{
.appVersion = "1075";
copyright = "Copyright © 2016 by Chris Simpson.";
date = "2016-07-29 23:55:50 +0000";
designer = "Chris Simpson";
designerURL = "https://github.com/chrismsimpson/Metropolis";
familyName = Metropolis;
fontMaster = (
{
alignmentZones = (
"{795, 12}",
"{687, 12}",
"{517, 12}",
"{0, -12}",
"{-205, -12}"
);
ascender = 795;
capHeight = 687;
customParameters = (
{
name = typoAscender;
value = 795;
},
{
name = typoDescender;
value = -205;
},
{
name = typoLineGap;
value = 0;
},
{
name = winAscent;
value = 795;
},
{
name = winDescent;
value = 205;
},
{
name = hheaAscender;
value = 795;
},
{
name = hheaDescender;
value = -205;
},
{
name = underlinePosition;
value = -133;
},
{
name = underlineThickness;
value = 20;
},
{
name = paramArea;
value = "462";
},
{
name = paramDepth;
value = "10";
},
{
name = paramOver;
value = "0";
}
);
descender = -205;
guideLines = (
{
position = "{175, 0}";
},
{
angle = 270;
position = "{144, 154}";
}
);
horizontalStems = (
36
);
id = "3B040282-CF47-4846-BCAF-7BFF90FB63BC";
verticalStems = (
36
);
weight = Light;
widthValue = 5;
xHeight = 517;
},
{
alignmentZones = (
"{795, 12}",
"{687, 12}",
"{517, 12}",
"{0, -12}",
"{-205, -12}"
);
ascender = 795;
capHeight = 687;
customParameters = (
{
name = typoAscender;
value = 795;
},
{
name = typoDescender;
value = -205;
},
{
name = typoLineGap;
value = 0;
},
{
name = winAscent;
value = 795;
},
{
name = winDescent;
value = 205;
},
{
name = hheaAscender;
value = 795;
},
{
name = hheaDescender;
value = -205;
},
{
name = underlinePosition;
value = -133;
},
{
name = underlineThickness;
value = 20;
},
{
name = paramArea;
value = "420";
},
{
name = paramDepth;
value = "10";
},
{
name = paramOver;
value = "0";
}
);
descender = -205;
guideLines = (
{
locked = 1;
position = "{223, 0}";
},
{
angle = 90;
position = "{149, 156}";
}
);
horizontalStems = (
67,
71,
74
);
id = "35616FF6-3D9C-499B-B113-AC9E0DB5842A";
userData = {
GSCornerRadius = 74;
};
verticalStems = (
75,
78,
79
);

glyphs = (
{
color = 1;
glyphname = A;
lastChange = "2017-12-08 21:33:43 +0000";
layers = (
{
anchors = (
{
name = bottom;
position = "{746, 0}";
},
{
name = top;
position = "{400, 687}";
}
);
components = (
{
name = V;
transform = "{-1, 0, 0, -1, 801, 687}";
}
);
guideLines = (
{
angle = 90;
position = "{400, 308}";
}
);
layerId = "35616FF6-3D9C-499B-B113-AC9E0DB5842A";
paths = (
{
closed = 1;
nodes = (
"604 156 LINE",
"604 230 LINE",
"185 230 LINE",
"185 156 LINE"
);
}
);
width = 801;
},
{
anchors = (
{
name = bottom;
position = "{764, 0}";
},
{
name = top;
position = "{391, 687}";
}
);
components = (
{
name = V;
transform = "{-1, 0, 0, -1, 781, 687}";
}
);
layerId = "A0D976AB-773B-4D3A-9F7E-7A0C42AF1E7B";
paths = (
{
closed = 1;
nodes = (
"623 92 LINE",
"623 235 LINE",
"204 235 LINE",
"204 92 LINE"
);
}
);
width = 781;
},
{
anchors = (
{
name = bottom;
position = "{711, 0}";
},
{
name = top;
position = "{388, 687}";
}
);
components = (
{
name = V;
transform = "{-1, 0, 0, -1, 776, 687}";
}
);
guideLines = (
{
angle = 90;
position = "{388, 336}";
}
);
layerId = "3B040282-CF47-4846-BCAF-7BFF90FB63BC";
paths = (
{
closed = 1;
nodes = (
"606 175 LINE",
"606 211 LINE",
"167 211 LINE",
"167 175 LINE"
);
}
);
width = 776;
},
{
anchors = (
{
name = bottom;
position = "{738, 0}";
},
{
name = top;
position = "{376, 687}";
}
);
associatedMasterId = "35616FF6-3D9C-499B-B113-AC9E0DB5842A";
components = (
{
name = V;
transform = "{-1, 0, 0, -1, 751, 687}";
}
);
layerId = "3A20BC3A-4777-4149-AA2B-B575B586568E";
name = "Intermediate {700, 5}";
paths = (
{
closed = 1;
nodes = (
"591 108 LINE",
"591 233 LINE",
"172 233 LINE",
"172 108 LINE"
);
}
);
width = 751;
},
{
anchors = (
{
name = bottom;
position = "{691, 0}";
},
{
name = top;
position = "{486, 687}";
}
);
components = (
{
name = V;
transform = "{-1, 0, 0, -1, 834, 687}";
}
);
layerId = "119329DF-C854-46E0-93EC-7E8A22DFCA4F";
paths = (
{
closed = 1;
nodes = (
"595 156 LINE",
"610 230 LINE",
"181 230 LINE",
"166 156 LINE"
);
}
);
width = 799;
},
{
anchors = (
{
name = bottom;
position = "{662, 0}";
},
{
name = top;
position = "{482, 687}";
}
);
components = (
{
name = V;
transform = "{-1, 0, 0, -1, 821, 687}";
}
);
layerId = "84328D8E-4D54-44EF-AF5C-0364B1C28646";
paths = (
{
closed = 1;
nodes = (
"596 175 LINE",
"603 211 LINE",
"164 211 LINE",
"157 175 LINE"
);
}
);
width = 786;
},
{
anchors = (
{
name = bottom;
position = "{714, 0}";
},
{
name = top;
position = "{486, 687}";
}
);
components = (
{
name = V;
transform = "{-1, 0, 0, -1, 824, 687}";
}
);
layerId = "88AF04C7-891B-4BE3-8AB1-6195D630646B";
paths = (
{
closed = 1;
nodes = (
"590 92 LINE",
"619 235 LINE",
"200 235 LINE",
"171 92 LINE"
);
}
);
width = 789;
},
{
associatedMasterId = "35616FF6-3D9C-499B-B113-AC9E0DB5842A";
layerId = "A87720A1-91B8-4FCB-B219-DA56869A51CD";
name = bubble;
paths = (
{
closed = 1;
nodes = (
"170 82 LINE",
"589 82 LINE",
"751 156 LINE",
"751 230 LINE",
"589 304 LINE",
"170 304 LINE",
"0 230 LINE",
"0 156 LINE"
);
}
);
width = 751;
}
);
leftKerningGroup = A;
rightKerningGroup = A;
unicode = 0041;
},
{
color = 1;
glyphname = AE;
lastChange = "2017-12-08 19:46:02 +0000";
layers = (
{
layerId = "3B040282-CF47-4846-BCAF-7BFF90FB63BC";
paths = (
{
closed = 1;
nodes = (
"106 0 LINE",
"207 175 LINE",
"481 175 LINE",
"481 0 LINE",
"932 0 LINE",
"932 36 LINE",
"517 36 LINE",
"517 332 LINE",
"901 332 LINE",
"901 368 LINE",
"517 368 LINE",
"517 651 LINE",
"932 651 LINE",
"932 687 LINE",
"461 687 LINE",
"64 0 LINE"
);
},
{
closed = 1;
nodes = (
"481 651 LINE",
"481 211 LINE",
"228 211 LINE"
);
}
);
width = 1003;
},
{
layerId = "35616FF6-3D9C-499B-B113-AC9E0DB5842A";
paths = (
{
closed = 1;
nodes = (
"144 0 LINE",
"234 156 LINE",
"498 156 LINE",
"498 0 LINE",
"991 0 LINE",
"991 74 LINE",
"577 74 LINE",
"577 313 LINE",
"950 313 LINE",
"950 387 LINE",
"577 387 LINE",
"577 613 LINE",
"991 613 LINE",
"991 687 LINE",
"450 687 LINE",
"54 0 LINE"
);
},
{
closed = 1;
nodes = (
"498 613 LINE",
"498 230 LINE",
"277 230 LINE"
);
}
);
width = 1057;
},
{
layerId = "A0D976AB-773B-4D3A-9F7E-7A0C42AF1E7B";
paths = (
{
closed = 1;
nodes = (
"239 0 LINE",
"292 92 LINE",
"536 92 LINE",
"536 0 LINE",
"1089 0 LINE",
"1089 173 LINE",
"730 173 LINE",
"730 264 LINE",
"1057 264 LINE",
"1057 437 LINE",
"730 437 LINE",
"730 514 LINE",
"1089 514 LINE",
"1089 687 LINE",
"412 687 LINE",
"15 0 LINE"
);
},
{
closed = 1;
nodes = (
"536 514 LINE",
"536 235 LINE",
"375 235 LINE"
);
}
);
width = 1136;
},
{
anchors = (
{
name = bottom;
position = "{663, 0}";
}
);
layerId = "84328D8E-4D54-44EF-AF5C-0364B1C28646";
paths = (
{
closed = 1;
nodes = (
"58 0 LINE",
"195 175 LINE",
"468 175 LINE",
"432 0 LINE",
"883 0 LINE",
"891 36 LINE",
"476 36 LINE",
"537 332 LINE",
"922 332 LINE",
"929 368 LINE",
"545 368 LINE",
"603 651 LINE",
"1019 651 LINE",
"1026 687 LINE",
"555 687 LINE",
"15 0 LINE"
);
},
{
closed = 1;
nodes = (
"567 649 LINE",
"476 211 LINE",
"224 211 LINE"
);
}
);
width = 1013;
},
{
anchors = (
{
name = bottom;
position = "{630, 0}";
}
);
layerId = "119329DF-C854-46E0-93EC-7E8A22DFCA4F";
paths = (
{
closed = 1;
nodes = (
"92 0 LINE",
"214 156 LINE",
"422 156 LINE",
"390 0 LINE",
"883 0 LINE",
"899 74 LINE",
"486 74 LINE",
"534 313 LINE",
"908 313 LINE",
"923 387 LINE",
"551 387 LINE",
"596 613 LINE",
"1011 613 LINE",
"1026 687 LINE",
"533 687 LINE",
"-1 0 LINE"
);
},
{
closed = 1;
nodes = (
"498 517 LINE",
"438 230 LINE",
"272 230 LINE"
);
}
);
width = 1002;
},
{
anchors = (
{
name = bottom;
position = "{698, 0}";
}
);
layerId = "88AF04C7-891B-4BE3-8AB1-6195D630646B";
paths = (
{
closed = 1;
nodes = (
"193 0 LINE",
"265 92 LINE",
"436 92 LINE",
"417 0 LINE",
"970 0 LINE",
"1006 173 LINE",
"648 173 LINE",
"666 264 LINE",
"993 264 LINE",
"1029 437 LINE",
"703 437 LINE",
"718 514 LINE",
"1077 514 LINE",
"1113 687 LINE",
"505 687 LINE",
"-35 0 LINE"
);
},
{
closed = 1;
nodes = (
"498 388 LINE",
"466 235 LINE",
"378 235 LINE"
);
}
);
width = 1075;
}
);
leftKerningGroup = A;
rightKerningGroup = E;
unicode = 00C6;
},
{
color = 1;
glyphname = B;
lastChange = "2017-12-08 19:46:15 +0000";
layers = (
{
layerId = "35616FF6-3D9C-499B-B113-AC9E0DB5842A";
paths = (
{
closed = 1;
nodes = (
"429 0 LINE SMOOTH",
"548 0 OFFCURVE",
"633 78 OFFCURVE",
"633 188 CURVE SMOOTH",
"633 263 OFFCURVE",
"587 325 OFFCURVE",
"508 365 CURVE",
"570 401 OFFCURVE",
"606 443 OFFCURVE",
"606 516 CURVE SMOOTH",
"606 616 OFFCURVE",
"528 687 OFFCURVE",
"417 687 CURVE SMOOTH",
"102 687 LINE",
"102 0 LINE"
);
},
{
closed = 1;
nodes = (
"180 325 LINE",
"409 325 LINE SMOOTH",
"494 325 OFFCURVE",
"554 272 OFFCURVE",
"554 198 CURVE SMOOTH",
"554 124 OFFCURVE",
"494 71 OFFCURVE",
"409 71 CURVE SMOOTH",
"180 71 LINE"
);
},
{
closed = 1;
nodes = (
"180 616 LINE",
"397 616 LINE SMOOTH",
"473 616 OFFCURVE",
"527 570 OFFCURVE",
"527 506 CURVE SMOOTH",
"527 442 OFFCURVE",
"473 396 OFFCURVE",
"397 396 CURVE SMOOTH",
"180 396 LINE"
);
}
);
width = 701;
},
{
layerId = "A0D976AB-773B-4D3A-9F7E-7A0C42AF1E7B";
paths = (
{
closed = 1;
nodes = (
"447 0 LINE SMOOTH",
"587 0 OFFCURVE",
"687 75 OFFCURVE",
"687 185 CURVE SMOOTH",
"687 261 OFFCURVE",
"640 326 OFFCURVE",
"560 360 CURVE",
"620 389 OFFCURVE",
"655 447 OFFCURVE",
"655 514 CURVE SMOOTH",
"655 614 OFFCURVE",
"564 687 OFFCURVE",
"433 687 CURVE SMOOTH",
"63 687 LINE",
"63 0 LINE"
);
},
{
closed = 1;
nodes = (
"256 273 LINE",
"415 273 LINE SMOOTH",
"457 273 OFFCURVE",
"487 250 OFFCURVE",
"487 218 CURVE SMOOTH",
"487 186 OFFCURVE",
"457 163 OFFCURVE",
"415 163 CURVE SMOOTH",
"256 163 LINE"
);
},
{
closed = 1;
nodes = (
"256 524 LINE",
"386 524 LINE SMOOTH",
"426 524 OFFCURVE",
"455 502 OFFCURVE",
"455 472 CURVE SMOOTH",
"455 442 OFFCURVE",
"426 420 OFFCURVE",
"386 420 CURVE SMOOTH",
"256 420 LINE"
);
}
);
width = 715;
},
{
layerId = "3B040282-CF47-4846-BCAF-7BFF90FB63BC";
paths = (
{
closed = 1;
nodes = (
"411 0 LINE SMOOTH",
"530 0 OFFCURVE",
"615 78 OFFCURVE",
"615 188 CURVE SMOOTH",
"615 264 OFFCURVE",
"564 335 OFFCURVE",
"492 358 CURVE",
"548 377 OFFCURVE",
"588 443 OFFCURVE",
"588 516 CURVE SMOOTH",
"588 616 OFFCURVE",
"510 687 OFFCURVE",
"399 687 CURVE SMOOTH",
"112 687 LINE",
"112 0 LINE"
);
},
{
closed = 1;
nodes = (
"148 340 LINE",
"411 340 LINE SMOOTH",
"509 340 OFFCURVE",
"579 277 OFFCURVE",
"579 188 CURVE SMOOTH",
"579 99 OFFCURVE",
"509 36 OFFCURVE",
"411 36 CURVE SMOOTH",
"148 36 LINE"
);
},
{
closed = 1;
nodes = (
"148 651 LINE",
"399 651 LINE SMOOTH",
"489 651 OFFCURVE",
"552 595 OFFCURVE",
"552 516 CURVE SMOOTH",
"552 434 OFFCURVE",
"494 376 OFFCURVE",
"411 376 CURVE SMOOTH",
"148 376 LINE"
);
}
);
width = 693;
},
{
layerId = "119329DF-C854-46E0-93EC-7E8A22DFCA4F";
paths = (
{
closed = 1;
nodes = (
"377 0 LINE SMOOTH",
"509 0 OFFCURVE",
"620 101 OFFCURVE",
"620 220 CURVE SMOOTH",
"620 273 OFFCURVE",
"582 332 OFFCURVE",
"529 362 CURVE",
"613 405 OFFCURVE",
"662 474 OFFCURVE",
"662 547 CURVE SMOOTH",
"662 629 OFFCURVE",
"596 687 OFFCURVE",
"503 687 CURVE SMOOTH",
"190 687 LINE",
"47 0 LINE"
);
},
{
closed = 1;
nodes = (
"193 325 LINE",
"425 325 LINE SMOOTH",
"495 325 OFFCURVE",
"545 285 OFFCURVE",
"545 229 CURVE SMOOTH",
"545 143 OFFCURVE",
"463 71 OFFCURVE",
"366 71 CURVE SMOOTH",
"140 71 LINE"
);
},
{
closed = 1;
nodes = (
"254 616 LINE",
"473 616 LINE SMOOTH",
"536 616 OFFCURVE",
"581 582 OFFCURVE",
"581 533 CURVE SMOOTH",
"581 459 OFFCURVE",
"508 396 OFFCURVE",
"422 396 CURVE SMOOTH",
"208 396 LINE"
);
}
);
width = 699;
},
{
layerId = "84328D8E-4D54-44EF-AF5C-0364B1C28646";
paths = (
{
closed = 1;
nodes = (
"364 0 LINE SMOOTH",
"494 0 OFFCURVE",
"609 99 OFFCURVE",
"609 221 CURVE SMOOTH",
"609 284 OFFCURVE",
"574 338 OFFCURVE",
"518 357 CURVE",
"592 381 OFFCURVE",
"650 471 OFFCURVE",
"650 550 CURVE SMOOTH",
"650 632 OFFCURVE",
"589 687 OFFCURVE",
"492 687 CURVE SMOOTH",
"206 687 LINE",
"63 0 LINE"
);
},
{
closed = 1;
nodes = (
"170 340 LINE",
"435 340 LINE SMOOTH",
"521 340 OFFCURVE",
"573 293 OFFCURVE",
"573 223 CURVE SMOOTH",
"573 120 OFFCURVE",
"480 36 OFFCURVE",
"368 36 CURVE SMOOTH",
"107 36 LINE"
);
},
{
closed = 1;
nodes = (
"235 651 LINE",
"487 651 LINE SMOOTH",
"565 651 OFFCURVE",
"614 609 OFFCURVE",
"614 548 CURVE SMOOTH",
"614 458 OFFCURVE",
"536 376 OFFCURVE",
"439 376 CURVE SMOOTH",
"178 376 LINE"
);
}
);
width = 704;
},
{
layerId = "88AF04C7-891B-4BE3-8AB1-6195D630646B";
paths = (
{
closed = 1;
nodes = (
"405 0 LINE SMOOTH",
"549 0 OFFCURVE",
"678 76 OFFCURVE",
"678 209 CURVE SMOOTH",
"678 274 OFFCURVE",
"642 328 OFFCURVE",
"585 354 CURVE",
"662 388 OFFCURVE",
"714 455 OFFCURVE",
"714 534 CURVE SMOOTH",
"714 623 OFFCURVE",
"637 687 OFFCURVE",
"521 687 CURVE SMOOTH",
"157 687 LINE",
"14 0 LINE"
);
},
{
closed = 1;
nodes = (
"264 273 LINE",
"429 273 LINE SMOOTH",
"471 273 OFFCURVE",
"488 263 OFFCURVE",
"488 239 CURVE SMOOTH",
"488 194 OFFCURVE",
"449 163 OFFCURVE",
"394 163 CURVE SMOOTH",
"241 163 LINE"
);
},
{
closed = 1;
nodes = (
"316 524 LINE",
"453 524 LINE SMOOTH",
"492 524 OFFCURVE",
"508 515 OFFCURVE",
"509 493 CURVE SMOOTH",
"509 450 OFFCURVE",
"472 420 OFFCURVE",
"419 420 CURVE SMOOTH",
"295 420 LINE"
);
}
);
width = 724;
}
);
leftKerningGroup = B;
rightKerningGroup = B;
unicode = 0042;
},
{
color = 1;
glyphname = C;
lastChange = "2017-12-08 19:47:59 +0000";
layers = (
{
anchors = (
{
name = bottom;
position = "{421, 0}";
},
{
name = top;
position = "{421, 687}";
}
);
layerId = "35616FF6-3D9C-499B-B113-AC9E0DB5842A";
paths = (
{
closed = 1;
nodes = (
"516 -12 OFFCURVE",
"604 29 OFFCURVE",
"668 93 CURVE",
"615 147 LINE",
"565 94 OFFCURVE",
"496 60 OFFCURVE",
"421 60 CURVE SMOOTH",
"273 60 OFFCURVE",
"148 190 OFFCURVE",
"148 344 CURVE SMOOTH",
"148 497 OFFCURVE",
"273 627 OFFCURVE",
"421 627 CURVE SMOOTH",
"496 627 OFFCURVE",
"565 593 OFFCURVE",
"615 540 CURVE",
"668 594 LINE",
"604 659 OFFCURVE",
"516 699 OFFCURVE",
"421 699 CURVE SMOOTH",
"231 699 OFFCURVE",
"69 537 OFFCURVE",
"69 344 CURVE SMOOTH",
"69 151 OFFCURVE",
"231 -12 OFFCURVE",
"421 -12 CURVE SMOOTH"
);
}
);
width = 726;
},
{
anchors = (
{
name = bottom;
position = "{404, 0}";
},
{
name = top;
position = "{404, 687}";
}
);
layerId = "A0D976AB-773B-4D3A-9F7E-7A0C42AF1E7B";
paths = (
{
closed = 1;
nodes = (
"514 -12 OFFCURVE",
"614 35 OFFCURVE",
"683 110 CURVE",
"541 234 LINE",
"508 192 OFFCURVE",
"459 164 OFFCURVE",
"404 164 CURVE SMOOTH",
"310 164 OFFCURVE",
"230 246 OFFCURVE",
"230 344 CURVE SMOOTH",
"230 441 OFFCURVE",
"310 523 OFFCURVE",
"404 523 CURVE SMOOTH",
"458 523 OFFCURVE",
"508 495 OFFCURVE",
"540 453 CURVE",
"683 578 LINE",
"614 652 OFFCURVE",
"514 699 OFFCURVE",
"404 699 CURVE SMOOTH",
"201 699 OFFCURVE",
"30 537 OFFCURVE",
"30 344 CURVE SMOOTH",
"30 151 OFFCURVE",
"201 -12 OFFCURVE",
"404 -12 CURVE SMOOTH"
);
}
);
width = 703;
},
{
anchors = (
{
name = bottom;
position = "{431, 0}";
},
{
name = top;
position = "{431, 687}";
}
);
layerId = "3B040282-CF47-4846-BCAF-7BFF90FB63BC";
paths = (
{
closed = 1;
nodes = (
"526 -12 OFFCURVE",
"614 29 OFFCURVE",
"678 93 CURVE",
"652 119 LINE",
"595 60 OFFCURVE",
"516 24 OFFCURVE",
"431 24 CURVE SMOOTH",
"259 24 OFFCURVE",
"115 170 OFFCURVE",
"115 344 CURVE SMOOTH",
"115 517 OFFCURVE",
"259 663 OFFCURVE",
"431 663 CURVE SMOOTH",
"516 663 OFFCURVE",
"595 627 OFFCURVE",
"652 569 CURVE",
"678 594 LINE",
"614 659 OFFCURVE",
"526 699 OFFCURVE",
"431 699 CURVE SMOOTH",
"240 699 OFFCURVE",
"79 537 OFFCURVE",
"79 344 CURVE SMOOTH",
"79 151 OFFCURVE",
"240 -12 OFFCURVE",
"431 -12 CURVE SMOOTH"
);
}
);
width = 747;
},
{
anchors = (
{
name = bottom;
position = "{371, 0}";
},
{
name = top;
position = "{511, 687}";
}
);
layerId = "119329DF-C854-46E0-93EC-7E8A22DFCA4F";
paths = (
{
closed = 1;
nodes = (
"452 -12 OFFCURVE",
"563 31 OFFCURVE",
"636 91 CURVE",
"591 149 LINE",
"532 97 OFFCURVE",
"446 60 OFFCURVE",
"383 60 CURVE SMOOTH",
"262 60 OFFCURVE",
"160 161 OFFCURVE",
"160 280 CURVE SMOOTH",
"160 468 OFFCURVE",
"316 627 OFFCURVE",
"502 627 CURVE SMOOTH",
"568 627 OFFCURVE",
"640 592 OFFCURVE",
"677 542 CURVE",
"738 592 LINE",
"688 655 OFFCURVE",
"597 699 OFFCURVE",
"517 699 CURVE SMOOTH",
"281 699 OFFCURVE",
"82 507 OFFCURVE",
"82 280 CURVE SMOOTH",
"82 121 OFFCURVE",
"213 -12 OFFCURVE",
"369 -12 CURVE SMOOTH"
);
}
);
width = 729;
},
{
anchors = (
{
name = bottom;
position = "{381, 0}";
},
{
name = top;
position = "{520, 687}";
}
);
layerId = "84328D8E-4D54-44EF-AF5C-0364B1C28646";
paths = (
{
closed = 1;
nodes = (
"473 -12 OFFCURVE",
"581 33 OFFCURVE",
"653 92 CURVE",
"630 120 LINE",
"564 64 OFFCURVE",
"465 24 OFFCURVE",
"385 24 CURVE SMOOTH",
"253 24 OFFCURVE",
"134 134 OFFCURVE",
"134 289 CURVE SMOOTH",
"134 481 OFFCURVE",
"318 663 OFFCURVE",
"517 663 CURVE SMOOTH",
"611 663 OFFCURVE",
"684 622 OFFCURVE",
"726 570 CURVE",
"755 593 LINE",
"704 655 OFFCURVE",
"620 699 OFFCURVE",
"518 699 CURVE SMOOTH",
"300 699 OFFCURVE",
"98 499 OFFCURVE",
"98 286 CURVE SMOOTH",
"98 110 OFFCURVE",
"235 -12 OFFCURVE",
"383 -12 CURVE SMOOTH"
);
}
);
width = 762;
},
{
anchors = (
{
name = bottom;
position = "{350, 0}";
},
{
name = top;
position = "{490, 687}";
}
);
layerId = "88AF04C7-891B-4BE3-8AB1-6195D630646B";
paths = (
{
closed = 1;
nodes = (
"463 -12 OFFCURVE",
"584 36 OFFCURVE",
"660 104 CURVE",
"537 240 LINE",
"495 195 OFFCURVE",
"428 164 OFFCURVE",
"377 164 CURVE SMOOTH",
"311 164 OFFCURVE",
"246 215 OFFCURVE",
"246 302 CURVE SMOOTH",
"246 414 OFFCURVE",
"355 523 OFFCURVE",
"470 523 CURVE SMOOTH",
"527 523 OFFCURVE",
"569 496 OFFCURVE",
"591 459 CURVE",
"751 573 LINE",
"696 645 OFFCURVE",
"597 699 OFFCURVE",
"479 699 CURVE SMOOTH",
"256 699 OFFCURVE",
"49 508 OFFCURVE",
"49 298 CURVE SMOOTH",
"49 123 OFFCURVE",
"192 -12 OFFCURVE",
"362 -12 CURVE SMOOTH"
);
}
);
width = 715;
}
);
leftKerningGroup = C;
rightKerningGroup = C;
unicode = 0043;
},
{
color = 1;
glyphname = D;
lastChange = "2017-12-08 19:48:41 +0000";
layers = (
{
anchors = (
{
name = top;
position = "{334, 687}";
}
);
layerId = "35616FF6-3D9C-499B-B113-AC9E0DB5842A";
paths = (
{
closed = 1;
nodes = (
"334 0 LINE SMOOTH",
"552 0 OFFCURVE",
"706 143 OFFCURVE",
"706 344 CURVE SMOOTH",
"706 545 OFFCURVE",
"552 687 OFFCURVE",
"334 687 CURVE SMOOTH",
"102 687 LINE",
"102 0 LINE"
);
},
{
closed = 1;
nodes = (
"180 616 LINE",
"334 616 LINE SMOOTH",
"506 616 OFFCURVE",
"627 503 OFFCURVE",
"627 344 CURVE SMOOTH",
"627 184 OFFCURVE",
"506 71 OFFCURVE",
"334 71 CURVE SMOOTH",
"180 71 LINE"
);
}
);
width = 775;
},
{
anchors = (
{
name = top;
position = "{319, 687}";
}
);
layerId = "A0D976AB-773B-4D3A-9F7E-7A0C42AF1E7B";
paths = (
{
closed = 1;
nodes = (
"319 0 LINE SMOOTH",
"559 0 OFFCURVE",
"729 143 OFFCURVE",
"729 344 CURVE SMOOTH",
"729 545 OFFCURVE",
"559 687 OFFCURVE",
"319 687 CURVE SMOOTH",
"63 687 LINE",
"63 0 LINE"
);
},
{
closed = 1;
nodes = (
"257 511 LINE",
"351 511 LINE SMOOTH",
"455 511 OFFCURVE",
"529 442 OFFCURVE",
"529 344 CURVE SMOOTH",
"529 246 OFFCURVE",
"455 176 OFFCURVE",
"351 176 CURVE SMOOTH",
"257 176 LINE"
);
}
);
width = 759;
},
{
anchors = (
{
name = top;
position = "{347, 687}";
}
);
layerId = "3B040282-CF47-4846-BCAF-7BFF90FB63BC";
paths = (
{
closed = 1;
nodes = (
"347 0 LINE SMOOTH",
"553 0 OFFCURVE",
"699 143 OFFCURVE",
"699 344 CURVE SMOOTH",
"699 545 OFFCURVE",
"553 687 OFFCURVE",
"347 687 CURVE SMOOTH",
"112 687 LINE",
"112 0 LINE"
);
},
{
closed = 1;
nodes = (
"148 651 LINE",
"347 651 LINE SMOOTH",
"532 651 OFFCURVE",
"663 524 OFFCURVE",
"663 344 CURVE SMOOTH",
"663 164 OFFCURVE",
"532 36 OFFCURVE",
"347 36 CURVE SMOOTH",
"148 36 LINE"
);
}
);
width = 779;
},
{
anchors = (
{
name = top;
position = "{420, 687}";
}
);
layerId = "119329DF-C854-46E0-93EC-7E8A22DFCA4F";
paths = (
{
closed = 1;
nodes = (
"282 0 LINE SMOOTH",
"525 0 OFFCURVE",
"730 189 OFFCURVE",
"730 414 CURVE SMOOTH",
"730 574 OFFCURVE",
"602 687 OFFCURVE",
"420 687 CURVE SMOOTH",
"190 687 LINE",
"47 0 LINE"
);
},
{
closed = 1;
nodes = (
"254 616 LINE",
"410 616 LINE SMOOTH",
"551 616 OFFCURVE",
"651 530 OFFCURVE",
"651 409 CURVE SMOOTH",
"651 226 OFFCURVE",
"486 71 OFFCURVE",
"291 71 CURVE SMOOTH",
"140 71 LINE"
);
}
);
width = 774;
},
{
anchors = (
{
name = top;
position = "{440, 687}";
}
);
layerId = "84328D8E-4D54-44EF-AF5C-0364B1C28646";
paths = (
{
closed = 1;
nodes = (
"300 0 LINE SMOOTH",
"533 0 OFFCURVE",
"730 192 OFFCURVE",
"730 421 CURVE SMOOTH",
"730 577 OFFCURVE",
"610 687 OFFCURVE",
"440 687 CURVE SMOOTH",
"206 687 LINE",
"63 0 LINE"
);
},
{
closed = 1;
nodes = (
"235 651 LINE",
"435 651 LINE SMOOTH",
"587 651 OFFCURVE",
"694 554 OFFCURVE",
"694 416 CURVE SMOOTH",
"694 210 OFFCURVE",
"516 36 OFFCURVE",
"304 36 CURVE SMOOTH",
"107 36 LINE"
);
}
);
width = 790;
},
{
anchors = (
{
name = top;
position = "{407, 687}";
}
);
layerId = "88AF04C7-891B-4BE3-8AB1-6195D630646B";
paths = (
{
closed = 1;
nodes = (
"277 0 LINE SMOOTH",
"538 0 OFFCURVE",
"757 183 OFFCURVE",
"757 400 CURVE SMOOTH",
"757 568 OFFCURVE",
"612 687 OFFCURVE",
"407 687 CURVE SMOOTH",
"157 687 LINE",
"14 0 LINE"
);
},
{
closed = 1;
nodes = (
"315 511 LINE",
"415 511 LINE SMOOTH",
"499 511 OFFCURVE",
"559 462 OFFCURVE",
"559 393 CURVE SMOOTH",
"559 275 OFFCURVE",
"456 176 OFFCURVE",
"333 176 CURVE SMOOTH",
"245 176 LINE"
);
}
);
width = 767;
}
);
leftKerningGroup = D;
rightKerningGroup = D;
unicode = 0044;
},
{
color = 1;
glyphname = Eth;
lastChange = "2017-12-08 19:30:34 +0000";
layers = (
{
components = (
{
name = D;
transform = "{1, 0, 0, 1, 57, 0}";
}
);
layerId = "3B040282-CF47-4846-BCAF-7BFF90FB63BC";
paths = (
{
closed = 1;
nodes = (
"415 332 LINE",
"416 368 LINE",
"67 368 LINE",
"67 332 LINE"
);
}
);
width = 836;
},
{
components = (
{
name = D;
transform = "{1, 0, 0, 1, 35, 0}";
}
);
layerId = "35616FF6-3D9C-499B-B113-AC9E0DB5842A";
paths = (
{
closed = 1;
nodes = (
"408 313 LINE",
"409 387 LINE",
"60 387 LINE",
"60 313 LINE"
);
}
);
width = 810;
},
{
components = (
{
name = D;
transform = "{1, 0, 0, 1, 46, 0}";
}
);
layerId = "A0D976AB-773B-4D3A-9F7E-7A0C42AF1E7B";
paths = (
{
closed = 1;
nodes = (
"426 258 LINE",
"427 431 LINE",
"28 431 LINE",
"28 258 LINE"
);
}
);
width = 805;
},
{
components = (
{
name = D;
transform = "{1, 0, 0, 1, 61, 0}";
}
);
layerId = "84328D8E-4D54-44EF-AF5C-0364B1C28646";
paths = (
{
closed = 1;
nodes = (
"436 332 LINE",
"444 368 LINE",
"95 368 LINE",
"88 332 LINE"
);
}
);
width = 851;
},
{
components = (
{
name = D;
transform = "{1, 0, 0, 1, 33, 0}";
}
);
layerId = "119329DF-C854-46E0-93EC-7E8A22DFCA4F";
paths = (
{
closed = 1;
nodes = (
"419 313 LINE",
"435 387 LINE",
"86 387 LINE",
"71 313 LINE"
);
}
);
width = 807;
},
{
components = (
{
name = D;
transform = "{1, 0, 0, 1, 51, 0}";
}
);
layerId = "88AF04C7-891B-4BE3-8AB1-6195D630646B";
paths = (
{
closed = 1;
nodes = (
"431 258 LINE",
"468 431 LINE",
"69 431 LINE",
"33 258 LINE"
);
}
);
width = 818;
}
);
unicode = 00D0;
},
{
color = 1;
glyphname = E;
lastChange = "2017-12-08 19:52:27 +0000";
layers = (
{
anchors = (
{
name = ae_upper;
position = "{102, 687}";
},
{
name = bottom;
position = "{595, 0}";
},
{
name = top;
position = "{351, 687}";
}
);
layerId = "35616FF6-3D9C-499B-B113-AC9E0DB5842A";
paths = (
{
closed = 1;
nodes = (
"595 0 LINE",
"595 74 LINE",
"161 74 LINE",
"181 54 LINE",
"181 333 LINE",
"161 313 LINE",
"554 313 LINE",
"554 387 LINE",
"161 387 LINE",
"181 367 LINE",
"181 633 LINE",
"161 613 LINE",
"595 613 LINE",
"595 687 LINE",
"102 687 LINE",
"102 0 LINE"
);
}
);
width = 661;
},
{
anchors = (
{
name = ae_upper;
position = "{63, 687}";
},
{
name = bottom;
position = "{616, 0}";
},
{
name = top;
position = "{340, 687}";
}
);
layerId = "A0D976AB-773B-4D3A-9F7E-7A0C42AF1E7B";
paths = (
{
closed = 1;
nodes = (
"616 0 LINE",
"616 173 LINE",
"162 173 LINE",
"257 54 LINE",
"257 333 LINE",
"162 264 LINE",
"584 264 LINE",
"584 437 LINE",
"162 437 LINE",
"257 367 LINE",
"257 633 LINE",
"162 514 LINE",
"616 514 LINE",
"616 687 LINE",
"63 687 LINE",
"63 0 LINE"
);
}
);
width = 663;
},
{
anchors = (
{
name = ae_upper;
position = "{112, 687}";
},
{
name = bottom;
position = "{563, 0}";
},
{
name = top;
position = "{348, 687}";
}
);
layerId = "3B040282-CF47-4846-BCAF-7BFF90FB63BC";
paths = (
{
closed = 1;
nodes = (
"563 0 LINE",
"563 36 LINE",
"139 36 LINE",
"148 26 LINE",
"148 342 LINE",
"139 332 LINE",
"532 332 LINE",
"532 368 LINE",
"139 368 LINE",
"148 358 LINE",
"148 661 LINE",
"139 651 LINE",
"563 651 LINE",
"563 687 LINE",
"112 687 LINE",
"112 0 LINE"
);
}
);
width = 634;
},
{
anchors = (
{
name = ae_upper;
position = "{190, 687}";
},
{
name = bottom;
position = "{540, 0}";
},
{
name = top;
position = "{442, 687}";
}
);
layerId = "119329DF-C854-46E0-93EC-7E8A22DFCA4F";
paths = (
{
closed = 1;
nodes = (
"540 0 LINE",
"556 74 LINE",
"123 74 LINE",
"139 54 LINE",
"195 333 LINE",
"171 313 LINE",
"565 313 LINE",
"580 387 LINE",
"188 387 LINE",
"204 367 LINE",
"257 633 LINE",
"233 613 LINE",
"668 613 LINE",
"683 687 LINE",
"190 687 LINE",
"47 0 LINE"
);
}
);
width = 659;
},
{
anchors = (
{
name = ae_upper;
position = "{206, 687}";
},
{
name = bottom;
position = "{514, 0}";
},
{
name = top;
position = "{434, 687}";
}
);
layerId = "84328D8E-4D54-44EF-AF5C-0364B1C28646";
paths = (
{
closed = 1;
nodes = (
"514 0 LINE",
"522 36 LINE",
"98 36 LINE",
"105 26 LINE",
"170 342 LINE",
"159 332 LINE",
"553 332 LINE",
"560 368 LINE",
"168 368 LINE",
"174 358 LINE",
"236 661 LINE",
"225 651 LINE",
"650 651 LINE",
"657 687 LINE",
"206 687 LINE",
"63 0 LINE"
);
}
);
width = 644;
},
{
anchors = (
{
name = ae_upper;
position = "{157, 687}";
},
{
name = bottom;
position = "{567, 0}";
},
{
name = top;
position = "{430, 687}";
}
);
layerId = "88AF04C7-891B-4BE3-8AB1-6195D630646B";
paths = (
{
closed = 1;
nodes = (
"567 0 LINE",
"603 173 LINE",
"152 173 LINE",
"222 54 LINE",
"276 333 LINE",
"167 264 LINE",
"590 264 LINE",
"626 437 LINE",
"206 437 LINE",
"287 367 LINE",
"338 633 LINE",
"218 514 LINE",
"674 514 LINE",
"710 687 LINE",
"157 687 LINE",
"14 0 LINE"
);
}
);
width = 672;
}
);
leftKerningGroup = E;
rightKerningGroup = E;
unicode = 0045;
},
{
color = 1;
glyphname = F;
lastChange = "2017-12-08 19:30:33 +0000";
layers = (
{
layerId = "35616FF6-3D9C-499B-B113-AC9E0DB5842A";
paths = (
{
closed = 1;
nodes = (
"181 0 LINE",
"181 333 LINE",
"161 313 LINE",
"554 313 LINE",
"554 387 LINE",
"161 387 LINE",
"181 367 LINE",
"181 633 LINE",
"161 613 LINE",
"595 613 LINE",
"595 687 LINE",
"102 687 LINE",
"102 0 LINE"
);
}
);
width = 654;
},
{
layerId = "A0D976AB-773B-4D3A-9F7E-7A0C42AF1E7B";
paths = (
{
closed = 1;
nodes = (
"257 0 LINE",
"257 313 LINE",
"162 244 LINE",
"584 244 LINE",
"584 417 LINE",
"162 417 LINE",
"257 347 LINE",
"257 633 LINE",
"162 514 LINE",
"616 514 LINE",
"616 687 LINE",
"63 687 LINE",
"63 0 LINE"
);
}
);
width = 648;
},
{
layerId = "3B040282-CF47-4846-BCAF-7BFF90FB63BC";
paths = (
{
closed = 1;
nodes = (
"148 0 LINE",
"148 342 LINE",
"138 332 LINE",
"542 332 LINE",
"542 368 LINE",
"138 368 LINE",
"148 358 LINE",
"148 661 LINE",
"138 651 LINE",
"583 651 LINE",
"583 687 LINE",
"112 687 LINE",
"112 0 LINE"
);
}
);
width = 648;
},
{
layerId = "119329DF-C854-46E0-93EC-7E8A22DFCA4F";
paths = (
{
closed = 1;
nodes = (
"126 0 LINE",
"195 333 LINE",
"171 313 LINE",
"565 313 LINE",
"580 387 LINE",
"188 387 LINE",
"204 367 LINE",
"257 633 LINE",
"233 613 LINE",
"668 613 LINE",
"683 687 LINE",
"190 687 LINE",
"47 0 LINE"
);
}
);
width = 652;
},
{
layerId = "84328D8E-4D54-44EF-AF5C-0364B1C28646";
paths = (
{
closed = 1;
nodes = (
"99 0 LINE",
"170 342 LINE",
"158 332 LINE",
"563 332 LINE",
"570 368 LINE",
"167 368 LINE",
"174 358 LINE",
"236 661 LINE",
"224 651 LINE",
"670 651 LINE",
"677 687 LINE",
"206 687 LINE",
"63 0 LINE"
);
}
);
width = 659;
},
{
layerId = "88AF04C7-891B-4BE3-8AB1-6195D630646B";
paths = (
{
closed = 1;
nodes = (
"208 0 LINE",
"272 313 LINE",
"162 244 LINE",
"586 244 LINE",
"622 417 LINE",
"202 417 LINE",
"282 347 LINE",
"338 633 LINE",
"218 514 LINE",
"674 514 LINE",
"710 687 LINE",
"157 687 LINE",
"14 0 LINE"
);
}
);
width = 657;
}
);
leftKerningGroup = F;
rightKerningGroup = F;
unicode = 0046;
},
{
color = 1;
glyphname = G;
lastChange = "2017-12-08 19:30:34 +0000";
layers = (
{
anchors = (
{
name = bottom;
position = "{418, 0}";
},
{
name = top;
position = "{421, 687}";
}
);
layerId = "35616FF6-3D9C-499B-B113-AC9E0DB5842A";
paths = (
{
closed = 1;
nodes = (
"516 -12 OFFCURVE",
"624 29 OFFCURVE",
"688 93 CURVE",
"635 147 LINE",
"585 94 OFFCURVE",
"496 60 OFFCURVE",
"421 60 CURVE SMOOTH",
"273 60 OFFCURVE",
"148 190 OFFCURVE",
"148 344 CURVE SMOOTH",
"148 497 OFFCURVE",
"273 627 OFFCURVE",
"421 627 CURVE SMOOTH",
"496 627 OFFCURVE",
"585 593 OFFCURVE",
"635 540 CURVE",
"688 594 LINE",
"624 659 OFFCURVE",
"516 699 OFFCURVE",
"421 699 CURVE SMOOTH",
"231 699 OFFCURVE",
"69 537 OFFCURVE",
"69 344 CURVE SMOOTH",
"69 151 OFFCURVE",
"231 -12 OFFCURVE",
"421 -12 CURVE SMOOTH"
);
},
{
closed = 1;
nodes = (
"688 93 LINE",
"688 362 LINE",
"413 362 LINE",
"413 288 LINE",
"642 288 LINE",
"610 329 LINE",
"610 93 LINE"
);
}
);
width = 766;
},
{
anchors = (
{
name = bottom;
position = "{408, 0}";
},
{
name = top;
position = "{409, 687}";
}
);
layerId = "A0D976AB-773B-4D3A-9F7E-7A0C42AF1E7B";
paths = (
{
closed = 1;
nodes = (
"517 -12 OFFCURVE",
"622 33 OFFCURVE",
"693 110 CURVE",
"551 234 LINE",
"516 190 OFFCURVE",
"464 164 OFFCURVE",
"409 164 CURVE SMOOTH",
"312 164 OFFCURVE",
"230 246 OFFCURVE",
"230 344 CURVE SMOOTH",
"230 441 OFFCURVE",
"312 523 OFFCURVE",
"409 523 CURVE SMOOTH",
"464 523 OFFCURVE",
"516 497 OFFCURVE",
"550 453 CURVE",
"693 578 LINE",
"622 654 OFFCURVE",
"517 699 OFFCURVE",
"409 699 CURVE SMOOTH",
"203 699 OFFCURVE",
"30 537 OFFCURVE",
"30 344 CURVE SMOOTH",
"30 151 OFFCURVE",
"203 -12 OFFCURVE",
"409 -12 CURVE SMOOTH"
);
},
{
closed = 1;
nodes = (
"693 110 LINE",
"693 402 LINE",
"371 402 LINE",
"371 259 LINE",
"534 259 LINE",
"505 288 LINE",
"505 110 LINE"
);
}
);
width = 734;
},
{
anchors = (
{
name = bottom;
position = "{429, 0}";
},
{
name = top;
position = "{431, 687}";
}
);
layerId = "3B040282-CF47-4846-BCAF-7BFF90FB63BC";
paths = (
{
closed = 1;
nodes = (
"533 -12 OFFCURVE",
"627 28 OFFCURVE",
"696 91 CURVE",
"671 116 LINE",
"608 59 OFFCURVE",
"523 24 OFFCURVE",
"431 24 CURVE SMOOTH",
"259 24 OFFCURVE",
"115 170 OFFCURVE",
"115 344 CURVE SMOOTH",
"115 517 OFFCURVE",
"259 663 OFFCURVE",
"431 663 CURVE SMOOTH",
"523 663 OFFCURVE",
"608 628 OFFCURVE",
"670 571 CURVE",
"696 597 LINE",
"627 660 OFFCURVE",
"533 699 OFFCURVE",
"431 699 CURVE SMOOTH",
"240 699 OFFCURVE",
"79 537 OFFCURVE",
"79 344 CURVE SMOOTH",
"79 151 OFFCURVE",
"240 -12 OFFCURVE",
"431 -12 CURVE SMOOTH"
);
},
{
closed = 1;
nodes = (
"696 91 LINE",
"696 341 LINE",
"421 341 LINE",
"421 305 LINE",
"675 305 LINE",
"660 325 LINE",
"660 91 LINE"
);
}
);
width = 783;
},
{
anchors = (
{
name = bottom;
position = "{368, 0}";
},
{
name = top;
position = "{508, 687}";
}
);
layerId = "119329DF-C854-46E0-93EC-7E8A22DFCA4F";
paths = (
{
closed = 1;
nodes = (
"458 -12 OFFCURVE",
"573 31 OFFCURVE",
"646 91 CURVE",
"601 149 LINE",
"542 97 OFFCURVE",
"452 60 OFFCURVE",
"383 60 CURVE SMOOTH",
"262 60 OFFCURVE",
"160 161 OFFCURVE",
"160 280 CURVE SMOOTH",
"160 468 OFFCURVE",
"316 627 OFFCURVE",
"502 627 CURVE SMOOTH",
"574 627 OFFCURVE",
"650 592 OFFCURVE",
"687 542 CURVE",
"748 592 LINE",
"698 655 OFFCURVE",
"603 699 OFFCURVE",
"517 699 CURVE SMOOTH",
"281 699 OFFCURVE",
"82 507 OFFCURVE",
"82 280 CURVE SMOOTH",
"82 121 OFFCURVE",
"213 -12 OFFCURVE",
"369 -12 CURVE SMOOTH"
);
},
{
closed = 1;
nodes = (
"646 91 LINE",
"702 360 LINE",
"427 360 LINE",
"411 286 LINE",
"639 286 LINE",
"616 327 LINE",
"568 91 LINE"
);
}
);
width = 758;
},
{
anchors = (
{
name = bottom;
position = "{384, 0}";
},
{
name = top;
position = "{524, 687}";
}
);
layerId = "84328D8E-4D54-44EF-AF5C-0364B1C28646";
paths = (
{
closed = 1;
nodes = (
"484 -12 OFFCURVE",
"586 27 OFFCURVE",
"668 90 CURVE",
"646 117 LINE",
"572 60 OFFCURVE",
"479 24 OFFCURVE",
"386 24 CURVE SMOOTH",
"236 24 OFFCURVE",
"132 135 OFFCURVE",
"132 279 CURVE SMOOTH",
"132 475 OFFCURVE",
"328 663 OFFCURVE",
"524 663 CURVE SMOOTH",
"615 663 OFFCURVE",
"692 629 OFFCURVE",
"743 572 CURVE",
"772 596 LINE",
"715 659 OFFCURVE",
"629 699 OFFCURVE",
"526 699 CURVE SMOOTH",
"309 699 OFFCURVE",
"96 492 OFFCURVE",
"96 275 CURVE SMOOTH",
"96 113 OFFCURVE",
"215 -12 OFFCURVE",
"384 -12 CURVE SMOOTH"
);
},
{
closed = 1;
nodes = (
"668 90 LINE",
"720 340 LINE",
"445 340 LINE",
"438 304 LINE",
"691 304 LINE",
"680 324 LINE",
"632 90 LINE"
);
}
);
width = 795;
},
{
anchors = (
{
name = bottom;
position = "{364, 0}";
},
{
name = top;
position = "{494, 687}";
}
);
layerId = "88AF04C7-891B-4BE3-8AB1-6195D630646B";
paths = (
{
closed = 1;
nodes = (
"471 -12 OFFCURVE",
"582 27 OFFCURVE",
"669 104 CURVE",
"546 240 LINE",
"503 196 OFFCURVE",
"442 164 OFFCURVE",
"381 164 CURVE SMOOTH",
"301 164 OFFCURVE",
"245 221 OFFCURVE",
"245 296 CURVE SMOOTH",
"245 405 OFFCURVE",
"362 523 OFFCURVE",
"481 523 CURVE SMOOTH",
"529 523 OFFCURVE",
"575 503 OFFCURVE",
"600 459 CURVE",
"760 573 LINE",
"703 649 OFFCURVE",
"607 699 OFFCURVE",
"492 699 CURVE SMOOTH",
"273 699 OFFCURVE",
"48 511 OFFCURVE",
"48 290 CURVE SMOOTH",
"48 121 OFFCURVE",
"182 -12 OFFCURVE",
"369 -12 CURVE SMOOTH"
);
},
{
closed = 1;
nodes = (
"669 104 LINE",
"730 396 LINE",
"408 396 LINE",
"378 253 LINE",
"539 253 LINE",
"516 282 LINE",
"481 104 LINE"
);
}
);
width = 746;
}
);
leftKerningGroup = G;
rightKerningGroup = G;
unicode = 0047;
},
{
color = 1;
glyphname = H;
lastChange = "2017-12-08 19:30:34 +0000";
layers = (
{
layerId = "35616FF6-3D9C-499B-B113-AC9E0DB5842A";
paths = (
{
closed = 1;
nodes = (
"180 0 LINE",
"180 335 LINE",
"158 313 LINE",
"606 313 LINE",
"585 335 LINE",
"585 0 LINE",
"663 0 LINE",
"663 687 LINE",
"585 687 LINE",
"585 365 LINE",
"607 387 LINE",
"158 387 LINE",
"180 365 LINE",
"180 687 LINE",
"102 687 LINE",
"102 0 LINE"
);
}
);
width = 765;
},
{
layerId = "A0D976AB-773B-4D3A-9F7E-7A0C42AF1E7B";
paths = (
{
closed = 1;
nodes = (
"257 0 LINE",
"257 315 LINE",
"210 264 LINE",
"554 264 LINE",
"508 315 LINE",
"508 0 LINE",
"702 0 LINE",
"702 687 LINE",
"508 687 LINE",
"508 385 LINE",
"556 437 LINE",
"210 437 LINE",
"257 385 LINE",
"257 687 LINE",
"63 687 LINE",
"63 0 LINE"
);
}
);
width = 765;
},
{
layerId = "3B040282-CF47-4846-BCAF-7BFF90FB63BC";
paths = (
{
closed = 1;
nodes = (
"148 0 LINE",
"148 343 LINE",
"147 332 LINE",
"595 332 LINE",
"595 343 LINE",
"595 0 LINE",
"631 0 LINE",
"631 687 LINE",
"595 687 LINE",
"595 357 LINE",
"596 368 LINE",
"147 368 LINE",
"148 357 LINE",
"148 687 LINE",
"112 687 LINE",
"112 0 LINE"
);
}
);
width = 743;
},
{
layerId = "119329DF-C854-46E0-93EC-7E8A22DFCA4F";
paths = (
{
closed = 1;
nodes = (
"125 0 LINE",
"194 335 LINE",
"168 313 LINE",
"616 313 LINE",
"599 335 LINE",
"530 0 LINE",
"608 0 LINE",
"751 687 LINE",
"673 687 LINE",
"607 365 LINE",
"634 387 LINE",
"185 387 LINE",
"202 365 LINE",
"268 687 LINE",
"190 687 LINE",
"47 0 LINE"
);
}
);
width = 763;
},
{
layerId = "84328D8E-4D54-44EF-AF5C-0364B1C28646";
paths = (
{
closed = 1;
nodes = (
"99 0 LINE",
"171 343 LINE",
"167 332 LINE",
"616 332 LINE",
"618 343 LINE",
"546 0 LINE",
"582 0 LINE",
"725 687 LINE",
"689 687 LINE",
"621 357 LINE",
"624 368 LINE",
"175 368 LINE",
"174 357 LINE",
"242 687 LINE",
"206 687 LINE",
"63 0 LINE"
);
}
);
width = 753;
},
{
layerId = "88AF04C7-891B-4BE3-8AB1-6195D630646B";
paths = (
{
closed = 1;
nodes = (
"208 0 LINE",
"272 315 LINE",
"214 264 LINE",
"558 264 LINE",
"523 315 LINE",
"460 0 LINE",
"653 0 LINE",
"796 687 LINE",
"602 687 LINE",
"542 385 LINE",
"601 437 LINE",
"255 437 LINE",
"291 385 LINE",
"351 687 LINE",
"157 687 LINE",
"14 0 LINE"
);
}
);
width = 775;
}
);
leftKerningGroup = H;
rightKerningGroup = H;
unicode = 0048;
},
{
color = 1;
glyphname = I;
lastChange = "2017-12-08 19:56:08 +0000";
layers = (
{
anchors = (
{
name = bottom;
position = "{180, 0}";
},
{
name = top;
position = "{141, 687}";
}
);
layerId = "35616FF6-3D9C-499B-B113-AC9E0DB5842A";
paths = (
{
closed = 1;
nodes = (
"180 0 LINE",
"180 687 LINE",
"102 687 LINE",
"102 0 LINE"
);
}
);
width = 282;
},
{
anchors = (
{
name = bottom;
position = "{257, 0}";
},
{
name = top;
position = "{160, 687}";
}
);
layerId = "A0D976AB-773B-4D3A-9F7E-7A0C42AF1E7B";
paths = (
{
closed = 1;
nodes = (
"257 0 LINE",
"257 687 LINE",
"63 687 LINE",
"63 0 LINE"
);
}
);
width = 320;
},
{
anchors = (
{
name = bottom;
position = "{148, 0}";
},
{
name = top;
position = "{130, 687}";
}
);
layerId = "3B040282-CF47-4846-BCAF-7BFF90FB63BC";
paths = (
{
closed = 1;
nodes = (
"148 0 LINE",
"148 687 LINE",
"112 687 LINE",
"112 0 LINE"
);
}
);
width = 260;
},
{
anchors = (
{
name = bottom;
position = "{125, 0}";
},
{
name = top;
position = "{229, 687}";
}
);
layerId = "119329DF-C854-46E0-93EC-7E8A22DFCA4F";
paths = (
{
closed = 1;
nodes = (
"125 0 LINE",
"268 687 LINE",
"190 687 LINE",
"47 0 LINE"
);
}
);
width = 280;
},
{
anchors = (
{
name = bottom;
position = "{99, 0}";
},
{
name = top;
position = "{224, 687}";
}
);
layerId = "84328D8E-4D54-44EF-AF5C-0364B1C28646";
paths = (
{
closed = 1;
nodes = (
"99 0 LINE",
"242 687 LINE",
"206 687 LINE",
"63 0 LINE"
);
}
);
width = 270;
},
{
anchors = (
{
name = bottom;
position = "{208, 0}";
},
{
name = top;
position = "{254, 687}";
}
);
layerId = "88AF04C7-891B-4BE3-8AB1-6195D630646B";
paths = (
{
closed = 1;
nodes = (
"208 0 LINE",
"351 687 LINE",
"157 687 LINE",
"14 0 LINE"
);
}
);
width = 330;
}
);
leftKerningGroup = I;
rightKerningGroup = I;
unicode = 0049;
},
{
color = 1;
glyphname = J;
lastChange = "2017-12-08 19:30:33 +0000";
layers = (
{
layerId = "35616FF6-3D9C-499B-B113-AC9E0DB5842A";
paths = (
{
closed = 1;
nodes = (
"393 -12 OFFCURVE",
"483 86 OFFCURVE",
"483 224 CURVE SMOOTH",
"483 687 LINE",
"405 687 LINE",
"405 224 LINE SMOOTH",
"405 127 OFFCURVE",
"347 59 OFFCURVE",
"266 59 CURVE SMOOTH",
"203 59 OFFCURVE",
"139 100 OFFCURVE",
"112 158 CURVE",
"55 102 LINE",
"97 35 OFFCURVE",
"185 -12 OFFCURVE",
"266 -12 CURVE SMOOTH"
);
}
);
width = 577;
},
{
layerId = "A0D976AB-773B-4D3A-9F7E-7A0C42AF1E7B";
paths = (
{
closed = 1;
nodes = (
"405 -12 OFFCURVE",
"508 86 OFFCURVE",
"508 224 CURVE SMOOTH",
"508 687 LINE",
"314 687 LINE",
"314 244 LINE SMOOTH",
"314 197 OFFCURVE",
"280 164 OFFCURVE",
"233 164 CURVE SMOOTH",
"198 164 OFFCURVE",
"160 189 OFFCURVE",
"141 224 CURVE",
"16 102 LINE",
"65 35 OFFCURVE",
"166 -12 OFFCURVE",
"259 -12 CURVE SMOOTH"
);
}
);
width = 562;
},
{
layerId = "3B040282-CF47-4846-BCAF-7BFF90FB63BC";
paths = (
{
closed = 1;
nodes = (
"388 -12 OFFCURVE",
"473 82 OFFCURVE",
"473 214 CURVE SMOOTH",
"473 687 LINE",
"437 687 LINE",
"437 214 LINE SMOOTH",
"437 103 OFFCURVE",
"367 24 OFFCURVE",
"267 24 CURVE SMOOTH",
"195 24 OFFCURVE",
"127 68 OFFCURVE",
"88 130 CURVE",
"66 102 LINE",
"108 35 OFFCURVE",
"185 -12 OFFCURVE",
"267 -12 CURVE SMOOTH"
);
}
);
width = 577;
},
{
layerId = "119329DF-C854-46E0-93EC-7E8A22DFCA4F";
paths = (
{
closed = 1;
nodes = (
"335 -12 OFFCURVE",
"444 85 OFFCURVE",
"473 221 CURVE SMOOTH",
"570 687 LINE",
"492 687 LINE",
"397 227 LINE SMOOTH",
"377 129 OFFCURVE",
"304 59 OFFCURVE",
"222 59 CURVE SMOOTH",
"158 59 OFFCURVE",
"103 99 OFFCURVE",
"88 155 CURVE",
"22 105 LINE",
"52 36 OFFCURVE",
"129 -12 OFFCURVE",
"208 -12 CURVE SMOOTH"
);
}
);
width = 574;
},
{
layerId = "84328D8E-4D54-44EF-AF5C-0364B1C28646";
paths = (
{
closed = 1;
nodes = (
"338 -12 OFFCURVE",
"441 81 OFFCURVE",
"469 213 CURVE SMOOTH",
"567 687 LINE",
"531 687 LINE",
"433 215 LINE SMOOTH",
"410 104 OFFCURVE",
"322 24 OFFCURVE",
"221 24 CURVE SMOOTH",
"150 24 OFFCURVE",
"92 67 OFFCURVE",
"65 129 CURVE",
"39 103 LINE",
"68 36 OFFCURVE",
"135 -12 OFFCURVE",
"219 -12 CURVE SMOOTH"
);
}
);
width = 588;
},
{
layerId = "88AF04C7-891B-4BE3-8AB1-6195D630646B";
paths = (
{
closed = 1;
nodes = (
"357 -12 OFFCURVE",
"473 78 OFFCURVE",
"501 216 CURVE SMOOTH",
"599 687 LINE",
"405 687 LINE",
"315 252 LINE SMOOTH",
"305 205 OFFCURVE",
"256 164 OFFCURVE",
"203 164 CURVE SMOOTH",
"174 164 OFFCURVE",
"143 182 OFFCURVE",
"132 217 CURVE",
"-11 108 LINE",
"26 41 OFFCURVE",
"118 -12 OFFCURVE",
"217 -12 CURVE SMOOTH"
);
}
);
width = 570;
}
);
leftKerningGroup = J;
rightKerningGroup = J;
unicode = 004A;
},
{
color = 1;
glyphname = K;
lastChange = "2017-12-08 19:30:34 +0000";
layers = (
{
anchors = (
{
name = bottom;
position = "{351, 0}";
}
);
layerId = "35616FF6-3D9C-499B-B113-AC9E0DB5842A";
paths = (
{
closed = 1;
nodes = (
"180 0 LINE",
"180 206 LINE",
"288 320 LINE",
"549 0 LINE",
"650 0 LINE",
"342 373 LINE",
"631 687 LINE",
"528 687 LINE",
"180 307 LINE",
"180 687 LINE",
"102 687 LINE",
"102 0 LINE"
);
}
);
width = 704;
},
{
anchors = (
{
name = bottom;
position = "{377, 0}";
}
);
layerId = "A0D976AB-773B-4D3A-9F7E-7A0C42AF1E7B";
paths = (
{
closed = 1;
nodes = (
"257 0 LINE",
"257 182 LINE",
"328 260 LINE",
"505 0 LINE",
"737 0 LINE",
"463 400 LINE",
"717 687 LINE",
"488 687 LINE",
"257 416 LINE",
"257 687 LINE",
"63 687 LINE",
"63 0 LINE"
);
}
);
width = 752;
},
{
anchors = (
{
name = bottom;
position = "{341, 0}";
}
);
layerId = "3B040282-CF47-4846-BCAF-7BFF90FB63BC";
paths = (
{
closed = 1;
nodes = (
"148 0 LINE",
"148 205 LINE",
"280 349 LINE",
"566 0 LINE",
"612 0 LINE",
"305 376 LINE",
"590 687 LINE",
"542 687 LINE",
"148 257 LINE",
"148 687 LINE",
"112 687 LINE",
"112 0 LINE"
);
}
);
width = 676;
},
{
anchors = (
{
name = bottom;
position = "{302, 0}";
}
);
layerId = "119329DF-C854-46E0-93EC-7E8A22DFCA4F";
paths = (
{
closed = 1;
nodes = (
"125 0 LINE",
"169 206 LINE",
"302 320 LINE",
"496 0 LINE",
"594 0 LINE",
"365 373 LINE",
"720 687 LINE",
"615 687 LINE",
"188 307 LINE",
"268 687 LINE",
"190 687 LINE",
"47 0 LINE"
);
}
);
width = 701;
},
{
anchors = (
{
name = bottom;
position = "{299, 0}";
}
);
layerId = "84328D8E-4D54-44EF-AF5C-0364B1C28646";
paths = (
{
closed = 1;
nodes = (
"99 0 LINE",
"143 205 LINE",
"305 349 LINE",
"518 0 LINE",
"563 0 LINE",
"335 376 LINE",
"685 687 LINE",
"636 687 LINE",
"152 257 LINE",
"242 687 LINE",
"206 687 LINE",
"63 0 LINE"
);
}
);
width = 686;
},
{
anchors = (
{
name = bottom;
position = "{332, 0}";
}
);
layerId = "88AF04C7-891B-4BE3-8AB1-6195D630646B";
paths = (
{
closed = 1;
nodes = (
"208 0 LINE",
"249 182 LINE",
"338 260 LINE",
"459 0 LINE",
"680 0 LINE",
"493 395 LINE",
"814 687 LINE",
"567 687 LINE",
"299 444 LINE",
"351 687 LINE",
"157 687 LINE",
"14 0 LINE"
);
}
);
width = 754;
}
);
leftKerningGroup = K;
rightKerningGroup = K;
unicode = 004B;
},
{
color = 1;
glyphname = L;
lastChange = "2017-12-08 20:02:13 +0000";
layers = (
{
anchors = (
{
name = top;
position = "{144, 687}";
}
);
layerId = "35616FF6-3D9C-499B-B113-AC9E0DB5842A";
paths = (
{
closed = 1;
nodes = (
"555 0 LINE",
"555 74 LINE",
"157 74 LINE",
"180 50 LINE",
"180 687 LINE",
"102 687 LINE",
"102 0 LINE"
);
}
);
width = 613;
},
{
anchors = (
{
name = top;
position = "{159, 687}";
}
);
layerId = "A0D976AB-773B-4D3A-9F7E-7A0C42AF1E7B";
paths = (
{
closed = 1;
nodes = (
"577 0 LINE",
"577 173 LINE",
"200 173 LINE",
"257 117 LINE",
"257 687 LINE",
"63 687 LINE",
"63 0 LINE"
);
}
);
width = 603;
},
{
anchors = (
{
name = top;
position = "{130, 687}";
}
);
layerId = "3B040282-CF47-4846-BCAF-7BFF90FB63BC";
paths = (
{
closed = 1;
nodes = (
"544 0 LINE",
"544 36 LINE",
"137 36 LINE",
"148 24 LINE",
"148 687 LINE",
"112 687 LINE",
"112 0 LINE"
);
}
);
width = 609;
},
{
anchors = (
{
name = top;
position = "{229, 687}";
}
);
layerId = "119329DF-C854-46E0-93EC-7E8A22DFCA4F";
paths = (
{
closed = 1;
nodes = (
"500 0 LINE",
"516 74 LINE",
"119 74 LINE",
"137 50 LINE",
"268 687 LINE",
"190 687 LINE",
"47 0 LINE"
);
}
);
width = 611;
},
{
anchors = (
{
name = top;
position = "{224, 687}";
}
);
layerId = "84328D8E-4D54-44EF-AF5C-0364B1C28646";
paths = (
{
closed = 1;
nodes = (
"495 0 LINE",
"503 36 LINE",
"96 36 LINE",
"105 24 LINE",
"242 687 LINE",
"206 687 LINE",
"63 0 LINE"
);
}
);
width = 619;
},
{
anchors = (
{
name = top;
position = "{250, 687}";
}
);
layerId = "88AF04C7-891B-4BE3-8AB1-6195D630646B";
paths = (
{
closed = 1;
nodes = (
"528 0 LINE",
"564 173 LINE",
"190 173 LINE",
"235 117 LINE",
"351 687 LINE",
"157 687 LINE",
"14 0 LINE"
);
}
);
width = 613;
}
);
leftKerningGroup = L;
rightKerningGroup = L;
unicode = 004C;
},
{
color = 1;
glyphname = Lslash;
lastChange = "2017-12-08 20:51:09 +0000";
layers = (
{
components = (
{
name = L;
transform = "{1, 0, 0, 1, 86, 0}";
}
);
layerId = "3B040282-CF47-4846-BCAF-7BFF90FB63BC";
paths = (
{
closed = 1;
nodes = (
"366 406 LINE",
"366 447 LINE",
"67 293 LINE",
"67 252 LINE"
);
}
);
width = 695;
},
{
components = (
{
name = L;
transform = "{1, 0, 0, 1, 67, 0}";
}
);
layerId = "35616FF6-3D9C-499B-B113-AC9E0DB5842A";
paths = (
{
closed = 1;
nodes = (
"359 388 LINE",
"359 463 LINE",
"60 309 LINE",
"60 234 LINE"
);
}
);
width = 680;
},
{
components = (
{
name = L;
transform = "{1, 0, 0, 1, 50, 0}";
}
);
layerId = "A0D976AB-773B-4D3A-9F7E-7A0C42AF1E7B";
paths = (
{
closed = 1;
nodes = (
"394 358 LINE",
"394 525 LINE",
"28 345 LINE",
"28 178 LINE"
);
}
);
width = 653;
},
{
components = (
{
name = L;
transform = "{1, 0, 0, 1, 87, 0}";
}
);
layerId = "84328D8E-4D54-44EF-AF5C-0364B1C28646";
paths = (
{
closed = 1;
nodes = (
"402 406 LINE",
"410 447 LINE",
"79 293 LINE",
"71 252 LINE"
);
}
);
width = 706;
},
{
components = (
{
name = L;
transform = "{1, 0, 0, 1, 69, 0}";
}
);
layerId = "119329DF-C854-46E0-93EC-7E8A22DFCA4F";
paths = (
{
closed = 1;
nodes = (
"387 388 LINE",
"401 463 LINE",
"70 309 LINE",
"56 234 LINE"
);
}
);
width = 680;
},
{
components = (
{
name = L;
transform = "{1, 0, 0, 1, 48, 0}";
}
);
layerId = "88AF04C7-891B-4BE3-8AB1-6195D630646B";
paths = (
{
closed = 1;
nodes = (
"421 358 LINE",
"454 525 LINE",
"50 345 LINE",
"18 178 LINE"
);
}
);
width = 661;
}
);
unicode = 0141;
},
{
color = 1;
glyphname = M;
lastChange = "2017-12-08 19:30:33 +0000";
layers = (
{
layerId = "35616FF6-3D9C-499B-B113-AC9E0DB5842A";
paths = (
{
closed = 1;
nodes = (
"180 0 LINE",
"180 519 LINE",
"435 40 LINE",
"690 519 LINE",
"690 0 LINE",
"768 0 LINE",
"768 687 LINE",
"690 687 LINE",
"435 208 LINE",
"180 687 LINE",
"102 687 LINE",
"102 0 LINE"
);
}
);
width = 870;
},
{
layerId = "A0D976AB-773B-4D3A-9F7E-7A0C42AF1E7B";
paths = (
{
closed = 1;
nodes = (
"257 0 LINE",
"257 368 LINE",
"441 40 LINE",
"625 368 LINE",
"625 0 LINE",
"819 0 LINE",
"819 687 LINE",
"625 687 LINE",
"441 359 LINE",
"257 687 LINE",
"63 687 LINE",
"63 0 LINE"
);
}
);
width = 882;
},
{
layerId = "3B040282-CF47-4846-BCAF-7BFF90FB63BC";
paths = (
{
closed = 1;
nodes = (
"148 0 LINE",
"148 615 LINE",
"424 96 LINE",
"700 615 LINE",
"700 0 LINE",
"736 0 LINE",
"736 687 LINE",
"700 687 LINE",
"424 168 LINE",
"148 687 LINE",
"112 687 LINE",
"112 0 LINE"
);
}
);
width = 848;
},
{
layerId = "119329DF-C854-46E0-93EC-7E8A22DFCA4F";
paths = (
{
closed = 1;
nodes = (
"125 0 LINE",
"234 519 LINE",
"391 40 LINE",
"744 519 LINE",
"635 0 LINE",
"713 0 LINE",
"856 687 LINE",
"777 687 LINE",
"422 208 LINE",
"267 687 LINE",
"190 687 LINE",
"47 0 LINE"
);
}
);
width = 868;
},
{
layerId = "84328D8E-4D54-44EF-AF5C-0364B1C28646";
paths = (
{
closed = 1;
nodes = (
"99 0 LINE",
"228 615 LINE",
"397 96 LINE",
"780 615 LINE",
"651 0 LINE",
"687 0 LINE",
"830 687 LINE",
"794 687 LINE",
"409 168 LINE",
"242 687 LINE",
"206 687 LINE",
"63 0 LINE"
);
}
);
width = 858;
},
{
layerId = "88AF04C7-891B-4BE3-8AB1-6195D630646B";
paths = (
{
closed = 1;
nodes = (
"208 0 LINE",
"287 368 LINE",
"405 40 LINE",
"655 368 LINE",
"576 0 LINE",
"770 0 LINE",
"913 687 LINE",
"717 687 LINE",
"463 359 LINE",
"349 687 LINE",
"157 687 LINE",
"14 0 LINE"
);
}
);
width = 892;
}
);
leftKerningGroup = M;
rightKerningGroup = M;
unicode = 004D;
},
{
color = 1;
glyphname = N;
lastChange = "2017-12-08 19:30:33 +0000";
layers = (
{
anchors = (
{
name = bottom;
position = "{393, 0}";
},
{
name = top;
position = "{393, 687}";
}
);
layerId = "35616FF6-3D9C-499B-B113-AC9E0DB5842A";
paths = (
{
closed = 1;
nodes = (
"180 0 LINE",
"180 559 LINE",
"606 0 LINE",
"684 0 LINE",
"684 687 LINE",
"606 687 LINE",
"606 128 LINE",
"180 687 LINE",
"102 687 LINE",
"102 0 LINE"
);
}
);
width = 786;
},
{
anchors = (
{
name = bottom;
position = "{391, 0}";
},
{
name = top;
position = "{391, 687}";
}
);
layerId = "A0D976AB-773B-4D3A-9F7E-7A0C42AF1E7B";
paths = (
{
closed = 1;
nodes = (
"257 0 LINE",
"257 368 LINE",
"525 0 LINE",
"719 0 LINE",
"719 687 LINE",
"525 687 LINE",
"525 319 LINE",
"257 687 LINE",
"63 687 LINE",
"63 0 LINE"
);
}
);
width = 782;
},
{
anchors = (
{
name = bottom;
position = "{382, 0}";
},
{
name = top;
position = "{382, 687}";
}
);
layerId = "3B040282-CF47-4846-BCAF-7BFF90FB63BC";
paths = (
{
closed = 1;
nodes = (
"148 0 LINE",
"148 631 LINE",
"616 0 LINE",
"652 0 LINE",
"652 687 LINE",
"616 687 LINE",
"616 56 LINE",
"148 687 LINE",
"112 687 LINE",
"112 0 LINE"
);
}
);
width = 764;
},
{
anchors = (
{
name = bottom;
position = "{338, 0}";
},
{
name = top;
position = "{480, 687}";
}
);
layerId = "119329DF-C854-46E0-93EC-7E8A22DFCA4F";
paths = (
{
closed = 1;
nodes = (
"125 0 LINE",
"243 559 LINE",
"553 0 LINE",
"629 0 LINE",
"772 687 LINE",
"694 687 LINE",
"577 128 LINE",
"267 687 LINE",
"190 687 LINE",
"47 0 LINE"
);
}
);
width = 784;
},
{
anchors = (
{
name = bottom;
position = "{334, 0}";
},
{
name = top;
position = "{476, 687}";
}
);
layerId = "84328D8E-4D54-44EF-AF5C-0364B1C28646";
paths = (
{
closed = 1;
nodes = (
"99 0 LINE",
"231 631 LINE",
"568 0 LINE",
"603 0 LINE",
"746 687 LINE",
"710 687 LINE",
"579 56 LINE",
"242 687 LINE",
"206 687 LINE",
"63 0 LINE"
);
}
);
width = 774;
},
{
anchors = (
{
name = bottom;
position = "{343, 0}";
},
{
name = top;
position = "{484, 687}";
}
);
layerId = "88AF04C7-891B-4BE3-8AB1-6195D630646B";
paths = (
{
closed = 1;
nodes = (
"208 0 LINE",
"287 368 LINE",
"479 0 LINE",
"670 0 LINE",
"813 687 LINE",
"619 687 LINE",
"540 319 LINE",
"349 687 LINE",
"157 687 LINE",
"14 0 LINE"
);
}
);
width = 792;
}
);
leftKerningGroup = N;
rightKerningGroup = N;
unicode = 004E;
},
{
color = 1;
glyphname = O;
lastChange = "2017-12-08 20:07:59 +0000";
layers = (
{
anchors = (
{
name = top;
position = "{421, 687}";
}
);
layerId = "35616FF6-3D9C-499B-B113-AC9E0DB5842A";
paths = (
{
closed = 1;
nodes = (
"612 -12 OFFCURVE",
"772 151 OFFCURVE",
"772 344 CURVE SMOOTH",
"772 537 OFFCURVE",
"612 699 OFFCURVE",
"421 699 CURVE SMOOTH",
"231 699 OFFCURVE",
"69 537 OFFCURVE",
"69 344 CURVE SMOOTH",
"69 151 OFFCURVE",
"231 -12 OFFCURVE",
"421 -12 CURVE SMOOTH"
);
},
{
closed = 1;
nodes = (
"273 60 OFFCURVE",
"148 190 OFFCURVE",
"148 344 CURVE SMOOTH",
"148 497 OFFCURVE",
"273 627 OFFCURVE",
"421 627 CURVE SMOOTH",
"569 627 OFFCURVE",
"693 497 OFFCURVE",
"693 344 CURVE SMOOTH",
"693 190 OFFCURVE",
"569 60 OFFCURVE",
"421 60 CURVE SMOOTH"
);
}
);
width = 841;
},
{
anchors = (
{
name = top;
position = "{404, 687}";
}
);
layerId = "A0D976AB-773B-4D3A-9F7E-7A0C42AF1E7B";
paths = (
{
closed = 1;
nodes = (
"607 -12 OFFCURVE",
"778 151 OFFCURVE",
"778 344 CURVE SMOOTH",
"778 537 OFFCURVE",
"607 699 OFFCURVE",
"404 699 CURVE SMOOTH",
"201 699 OFFCURVE",
"30 537 OFFCURVE",
"30 344 CURVE SMOOTH",
"30 151 OFFCURVE",
"201 -12 OFFCURVE",
"404 -12 CURVE SMOOTH"
);
},
{
closed = 1;
nodes = (
"310 164 OFFCURVE",
"230 246 OFFCURVE",
"230 344 CURVE SMOOTH",
"230 441 OFFCURVE",
"310 523 OFFCURVE",
"404 523 CURVE SMOOTH",
"498 523 OFFCURVE",
"578 441 OFFCURVE",
"578 344 CURVE SMOOTH",
"578 246 OFFCURVE",
"498 164 OFFCURVE",
"404 164 CURVE SMOOTH"
);
}
);
width = 808;
},
{
anchors = (
{
name = top;
position = "{431, 687}";
}
);
layerId = "3B040282-CF47-4846-BCAF-7BFF90FB63BC";
paths = (
{
closed = 1;
nodes = (
"622 -12 OFFCURVE",
"782 151 OFFCURVE",
"782 344 CURVE SMOOTH",
"782 537 OFFCURVE",
"622 699 OFFCURVE",
"431 699 CURVE SMOOTH",
"240 699 OFFCURVE",
"79 537 OFFCURVE",
"79 344 CURVE SMOOTH",
"79 151 OFFCURVE",
"240 -12 OFFCURVE",
"431 -12 CURVE SMOOTH"
);
},
{
closed = 1;
nodes = (
"259 24 OFFCURVE",
"115 170 OFFCURVE",
"115 344 CURVE SMOOTH",
"115 517 OFFCURVE",
"259 663 OFFCURVE",
"431 663 CURVE SMOOTH",
"602 663 OFFCURVE",
"746 517 OFFCURVE",
"746 344 CURVE SMOOTH",
"746 170 OFFCURVE",
"602 24 OFFCURVE",
"431 24 CURVE SMOOTH"
);
}
);
width = 861;
},
{
anchors = (
{
name = top;
position = "{522, 687}";
}
);
layerId = "119329DF-C854-46E0-93EC-7E8A22DFCA4F";
paths = (
{
closed = 1;
nodes = (
"599 -12 OFFCURVE",
"797 182 OFFCURVE",
"797 410 CURVE SMOOTH",
"797 573 OFFCURVE",
"679 699 OFFCURVE",
"513 699 CURVE SMOOTH",
"278 699 OFFCURVE",
"81 506 OFFCURVE",
"81 277 CURVE SMOOTH",
"81 120 OFFCURVE",
"211 -12 OFFCURVE",
"366 -12 CURVE SMOOTH"
);
},
{
closed = 1;
nodes = (
"261 60 OFFCURVE",
"160 162 OFFCURVE",
"160 283 CURVE SMOOTH",
"160 470 OFFCURVE",
"315 627 OFFCURVE",
"499 627 CURVE SMOOTH",
"629 627 OFFCURVE",
"719 531 OFFCURVE",
"719 407 CURVE SMOOTH",
"719 228 OFFCURVE",
"567 60 OFFCURVE",
"381 60 CURVE SMOOTH"
);
}
);
width = 843;
},
{
anchors = (
{
name = top;
position = "{522, 687}";
}
);
layerId = "84328D8E-4D54-44EF-AF5C-0364B1C28646";
paths = (
{
closed = 1;
nodes = (
"600 -12 OFFCURVE",
"811 194 OFFCURVE",
"811 410 CURVE SMOOTH",
"811 572 OFFCURVE",
"692 699 OFFCURVE",
"525 699 CURVE SMOOTH",
"310 699 OFFCURVE",
"95 489 OFFCURVE",
"95 272 CURVE SMOOTH",
"95 110 OFFCURVE",
"214 -12 OFFCURVE",
"382 -12 CURVE SMOOTH"
);
},
{
closed = 1;
nodes = (
"236 24 OFFCURVE",
"131 132 OFFCURVE",
"131 276 CURVE SMOOTH",
"131 472 OFFCURVE",
"327 663 OFFCURVE",
"521 663 CURVE SMOOTH",
"670 663 OFFCURVE",
"776 551 OFFCURVE",
"776 408 CURVE SMOOTH",
"776 215 OFFCURVE",
"582 24 OFFCURVE",
"385 24 CURVE SMOOTH"
);
}
);
width = 872;
},
{
anchors = (
{
name = top;
position = "{491, 687}";
}
);
layerId = "88AF04C7-891B-4BE3-8AB1-6195D630646B";
paths = (
{
closed = 1;
nodes = (
"581 -12 OFFCURVE",
"803 178 OFFCURVE",
"803 399 CURVE SMOOTH",
"803 567 OFFCURVE",
"671 699 OFFCURVE",
"486 699 CURVE SMOOTH",
"269 699 OFFCURVE",
"47 510 OFFCURVE",
"47 289 CURVE SMOOTH",
"47 121 OFFCURVE",
"179 -12 OFFCURVE",
"363 -12 CURVE SMOOTH"
);
},
{
closed = 1;
nodes = (
"298 164 OFFCURVE",
"244 220 OFFCURVE",
"244 295 CURVE SMOOTH",
"244 403 OFFCURVE",
"358 523 OFFCURVE",
"475 523 CURVE SMOOTH",
"551 523 OFFCURVE",
"606 467 OFFCURVE",
"606 392 CURVE SMOOTH",
"606 284 OFFCURVE",
"492 164 OFFCURVE",
"375 164 CURVE SMOOTH"
);
}
);
width = 815;
}
);
leftKerningGroup = O;
rightKerningGroup = O;
unicode = 004F;
},
{
color = 1;
glyphname = Oslash;
lastChange = "2017-12-08 19:30:33 +0000";
layers = (
{
components = (
{
name = O;
transform = "{1, 0, 0, 1, 8, 0}";
}
);
layerId = "35616FF6-3D9C-499B-B113-AC9E0DB5842A";
paths = (
{
closed = 1;
nodes = (
"154 0 LINE",
"755 687 LINE",
"670 687 LINE",
"69 0 LINE"
);
}
);
width = 850;
},
{
components = (
{
name = O;
transform = "{1, 0, 0, 1, 1, 0}";
}
);
layerId = "A0D976AB-773B-4D3A-9F7E-7A0C42AF1E7B";
paths = (
{
closed = 1;
nodes = (
"204 0 LINE",
"774 687 LINE",
"614 687 LINE",
"44 0 LINE"
);
}
);
width = 811;
},
{
components = (
{
name = O;
transform = "{1, 0, 0, 1, 2, 0}";
}
);
layerId = "3B040282-CF47-4846-BCAF-7BFF90FB63BC";
paths = (
{
closed = 1;
nodes = (
"130 0 LINE",
"731 687 LINE",
"683 687 LINE",
"82 0 LINE"
);
}
);
width = 863;
},
{
components = (
{
name = O;
transform = "{1, 0, 0, 1, 6, 0}";
}
);
layerId = "119329DF-C854-46E0-93EC-7E8A22DFCA4F";
paths = (
{
closed = 1;
nodes = (
"102 0 LINE",
"846 687 LINE",
"759 687 LINE",
"15 0 LINE"
);
}
);
width = 849;
},
{
components = (
{
name = O;
transform = "{1, 0, 0, 1, 8, 0}";
}
);
layerId = "84328D8E-4D54-44EF-AF5C-0364B1C28646";
paths = (
{
closed = 1;
nodes = (
"79 0 LINE",
"823 687 LINE",
"774 687 LINE",
"30 0 LINE"
);
}
);
width = 880;
},
{
components = (
{
name = O;
transform = "{1, 0, 0, 1, 2, 0}";
}
);
layerId = "88AF04C7-891B-4BE3-8AB1-6195D630646B";
paths = (
{
closed = 1;
nodes = (
"156 0 LINE",
"869 687 LINE",
"704 687 LINE",
"-9 0 LINE"
);
}
);
width = 819;
}
);
leftKerningGroup = O;
rightKerningGroup = O;
unicode = 00D8;
},
{
color = 1;
glyphname = OE;
lastChange = "2017-12-08 20:17:58 +0000";
layers = (
{
layerId = "3B040282-CF47-4846-BCAF-7BFF90FB63BC";
paths = (
{
closed = 1;
nodes = (
"79 151 OFFCURVE",
"240 0 OFFCURVE",
"431 0 CURVE SMOOTH",
"962 0 LINE",
"962 36 LINE",
"547 36 LINE",
"547 332 LINE",
"931 332 LINE",
"931 368 LINE",
"547 368 LINE",
"547 651 LINE",
"962 651 LINE",
"962 687 LINE",
"431 687 LINE SMOOTH",
"240 687 OFFCURVE",
"79 537 OFFCURVE",
"79 344 CURVE SMOOTH"
);
},
{
closed = 1;
nodes = (
"115 517 OFFCURVE",
"259 651 OFFCURVE",
"431 651 CURVE SMOOTH",
"511 651 LINE",
"511 36 LINE",
"431 36 LINE SMOOTH",
"259 36 OFFCURVE",
"115 170 OFFCURVE",
"115 344 CURVE SMOOTH"
);
}
);
width = 1033;
},
{
layerId = "35616FF6-3D9C-499B-B113-AC9E0DB5842A";
paths = (
{
closed = 1;
nodes = (
"69 141 OFFCURVE",
"231 0 OFFCURVE",
"421 0 CURVE SMOOTH",
"994 0 LINE",
"994 74 LINE",
"580 74 LINE",
"580 313 LINE",
"953 313 LINE",
"953 387 LINE",
"580 387 LINE",
"580 613 LINE",
"994 613 LINE",
"994 687 LINE",
"421 687 LINE SMOOTH",
"231 687 OFFCURVE",
"69 527 OFFCURVE",
"69 334 CURVE SMOOTH"
);
},
{
closed = 1;
nodes = (
"148 487 OFFCURVE",
"273 615 OFFCURVE",
"421 615 CURVE SMOOTH",
"501 615 LINE",
"501 72 LINE",
"421 72 LINE SMOOTH",
"273 72 OFFCURVE",
"148 180 OFFCURVE",
"148 334 CURVE SMOOTH"
);
}
);
width = 1060;
},
{
layerId = "A0D976AB-773B-4D3A-9F7E-7A0C42AF1E7B";
paths = (
{
closed = 1;
nodes = (
"30 151 OFFCURVE",
"201 0 OFFCURVE",
"404 0 CURVE SMOOTH",
"1004 0 LINE",
"1004 173 LINE",
"645 173 LINE",
"645 264 LINE",
"972 264 LINE",
"972 437 LINE",
"645 437 LINE",
"645 514 LINE",
"1004 514 LINE",
"1004 687 LINE",
"404 687 LINE SMOOTH",
"201 687 OFFCURVE",
"30 537 OFFCURVE",
"30 344 CURVE SMOOTH"
);
},
{
closed = 1;
nodes = (
"230 441 OFFCURVE",
"310 511 OFFCURVE",
"404 511 CURVE SMOOTH",
"451 511 LINE",
"451 176 LINE",
"404 176 LINE SMOOTH",
"310 176 OFFCURVE",
"230 246 OFFCURVE",
"230 344 CURVE SMOOTH"
);
}
);
width = 1051;
},
{
layerId = "84328D8E-4D54-44EF-AF5C-0364B1C28646";
paths = (
{
closed = 1;
nodes = (
"95 117 OFFCURVE",
"217 0 OFFCURVE",
"384 0 CURVE SMOOTH",
"918 0 LINE",
"926 36 LINE",
"511 36 LINE",
"572 332 LINE",
"957 332 LINE",
"964 368 LINE",
"580 368 LINE",
"638 651 LINE",
"1054 651 LINE",
"1061 687 LINE",
"524 687 LINE SMOOTH",
"303 687 OFFCURVE",
"95 491 OFFCURVE",
"95 277 CURVE SMOOTH"
);
},
{
closed = 1;
nodes = (
"131 475 OFFCURVE",
"322 651 OFFCURVE",
"519 651 CURVE SMOOTH",
"603 651 LINE",
"474 36 LINE",
"388 36 LINE SMOOTH",
"237 36 OFFCURVE",
"131 139 OFFCURVE",
"131 280 CURVE SMOOTH"
);
}
);
width = 1048;
},
{
layerId = "119329DF-C854-46E0-93EC-7E8A22DFCA4F";
paths = (
{
closed = 1;
nodes = (
"78 111 OFFCURVE",
"202 0 OFFCURVE",
"369 0 CURVE SMOOTH",
"939 0 LINE",
"955 74 LINE",
"542 74 LINE",
"590 313 LINE",
"964 313 LINE",
"979 387 LINE",
"607 387 LINE",
"652 613 LINE",
"1067 613 LINE",
"1082 687 LINE",
"507 687 LINE SMOOTH",
"294 687 OFFCURVE",
"78 488 OFFCURVE",
"78 271 CURVE SMOOTH"
);
},
{
closed = 1;
nodes = (
"156 444 OFFCURVE",
"326 615 OFFCURVE",
"497 615 CURVE SMOOTH",
"574 615 LINE",
"461 72 LINE",
"379 72 LINE SMOOTH",
"250 72 OFFCURVE",
"156 152 OFFCURVE",
"156 273 CURVE SMOOTH"
);
}
);
width = 1058;
},
{
layerId = "88AF04C7-891B-4BE3-8AB1-6195D630646B";
paths = (
{
closed = 1;
nodes = (
"48 124 OFFCURVE",
"182 0 OFFCURVE",
"361 0 CURVE SMOOTH",
"948 0 LINE",
"984 173 LINE",
"626 173 LINE",
"644 264 LINE",
"971 264 LINE",
"1007 437 LINE",
"681 437 LINE",
"696 514 LINE",
"1055 514 LINE",
"1091 687 LINE",
"491 687 LINE SMOOTH",
"265 687 OFFCURVE",
"48 510 OFFCURVE",
"48 291 CURVE SMOOTH"
);
},
{
closed = 1;
nodes = (
"246 406 OFFCURVE",
"357 511 OFFCURVE",
"467 511 CURVE SMOOTH",
"501 511 LINE",
"432 176 LINE",
"385 176 LINE SMOOTH",
"303 176 OFFCURVE",
"246 224 OFFCURVE",
"246 297 CURVE SMOOTH"
);
}
);
width = 1053;
}
);
leftKerningGroup = O;
rightKerningGroup = E;
unicode = 0152;
},
{
color = 1;
glyphname = P;
lastChange = "2017-12-08 19:30:33 +0000";
layers = (
{
layerId = "35616FF6-3D9C-499B-B113-AC9E0DB5842A";
paths = (
{
closed = 1;
nodes = (
"180 0 LINE",
"180 247 LINE",
"381 247 LINE SMOOTH",
"523 247 OFFCURVE",
"634 338 OFFCURVE",
"634 467 CURVE SMOOTH",
"634 596 OFFCURVE",
"523 687 OFFCURVE",
"381 687 CURVE SMOOTH",
"102 687 LINE",
"102 0 LINE"
);
},
{
closed = 1;
nodes = (
"180 613 LINE",
"367 613 LINE SMOOTH",
"479 613 OFFCURVE",
"555 559 OFFCURVE",
"555 467 CURVE SMOOTH",
"555 375 OFFCURVE",
"479 321 OFFCURVE",
"367 321 CURVE SMOOTH",
"180 321 LINE"
);
}
);
width = 699;
},
{
layerId = "A0D976AB-773B-4D3A-9F7E-7A0C42AF1E7B";
paths = (
{
closed = 1;
nodes = (
"257 0 LINE",
"257 207 LINE",
"392 207 LINE SMOOTH",
"546 207 OFFCURVE",
"655 306 OFFCURVE",
"655 447 CURVE SMOOTH",
"655 588 OFFCURVE",
"546 687 OFFCURVE",
"392 687 CURVE SMOOTH",
"63 687 LINE",
"63 0 LINE"
);
},
{
closed = 1;
nodes = (
"257 511 LINE",
"376 511 LINE SMOOTH",
"422 511 OFFCURVE",
"455 484 OFFCURVE",
"455 447 CURVE SMOOTH",
"455 410 OFFCURVE",
"422 383 OFFCURVE",
"376 383 CURVE SMOOTH",
"257 383 LINE"
);
}
);
width = 682;
},
{
layerId = "3B040282-CF47-4846-BCAF-7BFF90FB63BC";
paths = (
{
closed = 1;
nodes = (
"148 0 LINE",
"148 267 LINE",
"401 267 LINE SMOOTH",
"540 267 OFFCURVE",
"639 354 OFFCURVE",
"639 477 CURVE SMOOTH",
"639 600 OFFCURVE",
"540 687 OFFCURVE",
"401 687 CURVE SMOOTH",
"112 687 LINE",
"112 0 LINE"
);
},
{
closed = 1;
nodes = (
"148 651 LINE",
"394 651 LINE SMOOTH",
"516 651 OFFCURVE",
"603 579 OFFCURVE",
"603 477 CURVE SMOOTH",
"603 375 OFFCURVE",
"516 303 OFFCURVE",
"394 303 CURVE SMOOTH",
"148 303 LINE"
);
}
);
width = 714;
},
{
layerId = "119329DF-C854-46E0-93EC-7E8A22DFCA4F";
paths = (
{
closed = 1;
nodes = (
"125 0 LINE",
"177 247 LINE",
"373 247 LINE SMOOTH",
"539 247 OFFCURVE",
"679 363 OFFCURVE",
"679 500 CURVE SMOOTH",
"679 610 OFFCURVE",
"590 687 OFFCURVE",
"465 687 CURVE SMOOTH",
"190 687 LINE",
"47 0 LINE"
);
},
{
closed = 1;
nodes = (
"253 613 LINE",
"449 613 LINE SMOOTH",
"539 613 OFFCURVE",
"602 566 OFFCURVE",
"602 499 CURVE SMOOTH",
"602 402 OFFCURVE",
"505 321 OFFCURVE",
"389 321 CURVE SMOOTH",
"192 321 LINE"
);
}
);
width = 696;
},
{
layerId = "84328D8E-4D54-44EF-AF5C-0364B1C28646";
paths = (
{
closed = 1;
nodes = (
"99 0 LINE",
"155 267 LINE",
"409 267 LINE SMOOTH",
"562 267 OFFCURVE",
"694 375 OFFCURVE",
"694 519 CURVE SMOOTH",
"694 619 OFFCURVE",
"616 687 OFFCURVE",
"494 687 CURVE SMOOTH",
"206 687 LINE",
"63 0 LINE"
);
},
{
closed = 1;
nodes = (
"235 651 LINE",
"482 651 LINE SMOOTH",
"590 651 OFFCURVE",
"658 596 OFFCURVE",
"658 514 CURVE SMOOTH",
"658 395 OFFCURVE",
"541 303 OFFCURVE",
"407 303 CURVE SMOOTH",
"162 303 LINE"
);
}
);
width = 725;
},
{
layerId = "88AF04C7-891B-4BE3-8AB1-6195D630646B";
paths = (
{
closed = 1;
nodes = (
"208 0 LINE",
"252 207 LINE",
"393 207 LINE SMOOTH",
"565 207 OFFCURVE",
"702 324 OFFCURVE",
"702 487 CURVE SMOOTH",
"702 606 OFFCURVE",
"614 687 OFFCURVE",
"480 687 CURVE SMOOTH",
"157 687 LINE",
"14 0 LINE"
);
},
{
closed = 1;
nodes = (
"315 511 LINE",
"440 511 LINE SMOOTH",
"481 511 OFFCURVE",
"504 496 OFFCURVE",
"504 471 CURVE SMOOTH",
"504 429 OFFCURVE",
"452 383 OFFCURVE",
"401 383 CURVE SMOOTH",
"288 383 LINE"
);
}
);
width = 691;
}
);
leftKerningGroup = P;
rightKerningGroup = P;
unicode = 0050;
},
{
color = 1;
glyphname = Thorn;
lastChange = "2017-12-08 20:18:39 +0000";
layers = (
{
layerId = "3B040282-CF47-4846-BCAF-7BFF90FB63BC";
paths = (
{
closed = 1;
nodes = (
"148 0 LINE",
"148 136 LINE",
"401 136 LINE SMOOTH",
"540 136 OFFCURVE",
"639 223 OFFCURVE",
"639 346 CURVE SMOOTH",
"639 469 OFFCURVE",
"540 556 OFFCURVE",
"401 556 CURVE SMOOTH",
"148 556 LINE",
"148 687 LINE",
"112 687 LINE",
"112 0 LINE"
);
},
{
closed = 1;
nodes = (
"148 520 LINE",
"394 520 LINE SMOOTH",
"516 520 OFFCURVE",
"603 448 OFFCURVE",
"603 346 CURVE SMOOTH",
"603 244 OFFCURVE",
"516 172 OFFCURVE",
"394 172 CURVE SMOOTH",
"148 172 LINE"
);
}
);
width = 714;
},
{
layerId = "35616FF6-3D9C-499B-B113-AC9E0DB5842A";
paths = (
{
closed = 1;
nodes = (
"180 0 LINE",
"180 126 LINE",
"381 126 LINE SMOOTH",
"523 126 OFFCURVE",
"634 217 OFFCURVE",
"634 346 CURVE SMOOTH",
"634 475 OFFCURVE",
"523 566 OFFCURVE",
"381 566 CURVE SMOOTH",
"182 566 LINE",
"182 687 LINE",
"102 687 LINE",
"102 0 LINE"
);
},
{
closed = 1;
nodes = (
"180 492 LINE",
"367 492 LINE SMOOTH",
"479 492 OFFCURVE",
"555 438 OFFCURVE",
"555 346 CURVE SMOOTH",
"555 254 OFFCURVE",
"479 200 OFFCURVE",
"367 200 CURVE SMOOTH",
"180 200 LINE"
);
}
);
width = 699;
},
{
layerId = "A0D976AB-773B-4D3A-9F7E-7A0C42AF1E7B";
paths = (
{
closed = 1;
nodes = (
"257 0 LINE",
"257 105 LINE",
"392 105 LINE SMOOTH",
"546 105 OFFCURVE",
"655 204 OFFCURVE",
"655 345 CURVE SMOOTH",
"655 486 OFFCURVE",
"546 585 OFFCURVE",
"392 585 CURVE SMOOTH",
"252 585 LINE",
"252 687 LINE",
"63 687 LINE",
"63 0 LINE"
);
},
{
closed = 1;
nodes = (
"257 409 LINE",
"376 409 LINE SMOOTH",
"422 409 OFFCURVE",
"455 382 OFFCURVE",
"455 345 CURVE SMOOTH",
"455 308 OFFCURVE",
"422 281 OFFCURVE",
"376 281 CURVE SMOOTH",
"257 281 LINE"
);
}
);
width = 682;
},
{
layerId = "84328D8E-4D54-44EF-AF5C-0364B1C28646";
paths = (
{
closed = 1;
nodes = (
"99 0 LINE",
"128 136 LINE",
"382 136 LINE SMOOTH",
"535 136 OFFCURVE",
"667 244 OFFCURVE",
"667 388 CURVE SMOOTH",
"667 488 OFFCURVE",
"589 556 OFFCURVE",
"467 556 CURVE SMOOTH",
"215 556 LINE",
"242 687 LINE",
"206 687 LINE",
"63 0 LINE"
);
},
{
closed = 1;
nodes = (
"208 520 LINE",
"455 520 LINE SMOOTH",
"563 520 OFFCURVE",
"631 465 OFFCURVE",
"631 383 CURVE SMOOTH",
"631 264 OFFCURVE",
"514 172 OFFCURVE",
"380 172 CURVE SMOOTH",
"135 172 LINE"
);
}
);
width = 725;
},
{
layerId = "119329DF-C854-46E0-93EC-7E8A22DFCA4F";
paths = (
{
closed = 1;
nodes = (
"125 0 LINE",
"152 126 LINE",
"355 126 LINE SMOOTH",
"513 126 OFFCURVE",
"655 237 OFFCURVE",
"655 385 CURVE SMOOTH",
"655 493 OFFCURVE",
"566 566 OFFCURVE",
"441 566 CURVE SMOOTH",
"245 566 LINE",
"270 687 LINE",
"190 687 LINE",
"47 0 LINE"
);
},
{
closed = 1;
nodes = (
"228 492 LINE",
"418 492 LINE SMOOTH",
"517 492 OFFCURVE",
"577 452 OFFCURVE",
"577 381 CURVE SMOOTH",
"577 274 OFFCURVE",
"474 200 OFFCURVE",
"351 200 CURVE SMOOTH",
"167 200 LINE"
);
}
);
width = 698;
},
{
layerId = "88AF04C7-891B-4BE3-8AB1-6195D630646B";
paths = (
{
closed = 1;
nodes = (
"208 0 LINE",
"230 105 LINE",
"372 105 LINE SMOOTH",
"544 105 OFFCURVE",
"681 222 OFFCURVE",
"681 385 CURVE SMOOTH",
"681 504 OFFCURVE",
"593 585 OFFCURVE",
"459 585 CURVE SMOOTH",
"325 585 LINE",
"346 687 LINE",
"157 687 LINE",
"14 0 LINE"
);
},
{
closed = 1;
nodes = (
"294 409 LINE",
"419 409 LINE SMOOTH",
"460 409 OFFCURVE",
"482 394 OFFCURVE",
"482 369 CURVE SMOOTH",
"482 327 OFFCURVE",
"432 281 OFFCURVE",
"380 281 CURVE SMOOTH",
"267 281 LINE"
);
}
);
width = 692;
}
);
unicode = 00DE;
},
{
color = 1;
glyphname = Q;
lastChange = "2017-12-08 20:18:49 +0000";
layers = (
{
components = (
{
name = O;
}
);
layerId = "35616FF6-3D9C-499B-B113-AC9E0DB5842A";
paths = (
{
closed = 1;
nodes = (
"755 58 LINE",
"511 270 LINE",
"461 212 LINE",
"705 0 LINE"
);
}
);
width = 843;
},
{
components = (
{
name = O;
}
);
layerId = "A0D976AB-773B-4D3A-9F7E-7A0C42AF1E7B";
paths = (
{
closed = 1;
nodes = (
"780 106 LINE",
"511 340 LINE",
"420 234 LINE",
"689 0 LINE"
);
}
);
width = 815;
},
{
components = (
{
name = O;
}
);
layerId = "3B040282-CF47-4846-BCAF-7BFF90FB63BC";
paths = (
{
closed = 1;
nodes = (
"728 27 LINE",
"485 237 LINE",
"462 210 LINE",
"704 0 LINE"
);
}
);
width = 861;
},
{
components = (
{
name = O;
}
);
layerId = "119329DF-C854-46E0-93EC-7E8A22DFCA4F";
paths = (
{
closed = 1;
nodes = (
"710 51 LINE",
"500 271 LINE",
"446 220 LINE",
"656 0 LINE"
);
}
);
width = 844;
},
{
components = (
{
name = O;
}
);
layerId = "84328D8E-4D54-44EF-AF5C-0364B1C28646";
paths = (
{
closed = 1;
nodes = (
"703 24 LINE",
"504 234 LINE",
"479 210 LINE",
"678 0 LINE"
);
}
);
width = 872;
},
{
components = (
{
name = O;
}
);
layerId = "88AF04C7-891B-4BE3-8AB1-6195D630646B";
paths = (
{
closed = 1;
nodes = (
"748 106 LINE",
"523 340 LINE",
"414 234 LINE",
"639 0 LINE"
);
}
);
width = 819;
}
);
leftKerningGroup = Q;
rightKerningGroup = Q;
unicode = 0051;
},
{
color = 1;
glyphname = R;
lastChange = "2017-12-08 20:21:01 +0000";
layers = (
{
anchors = (
{
name = bottom;
position = "{334, 0}";
},
{
name = top;
position = "{334, 687}";
}
);
components = (
{
name = P;
}
);
layerId = "35616FF6-3D9C-499B-B113-AC9E0DB5842A";
paths = (
{
closed = 1;
nodes = (
"602 0 LINE",
"413 269 LINE",
"324 269 LINE",
"513 0 LINE"
);
}
);
width = 699;
},
{
anchors = (
{
name = bottom;
position = "{349, 0}";
},
{
name = top;
position = "{342, 687}";
}
);
components = (
{
name = P;
}
);
layerId = "A0D976AB-773B-4D3A-9F7E-7A0C42AF1E7B";
paths = (
{
closed = 1;
nodes = (
"680 0 LINE",
"491 269 LINE",
"270 269 LINE",
"459 0 LINE"
);
}
);
width = 700;
},
{
anchors = (
{
name = bottom;
position = "{334, 0}";
},
{
name = top;
position = "{334, 687}";
}
);
components = (
{
name = P;
}
);
layerId = "3B040282-CF47-4846-BCAF-7BFF90FB63BC";
paths = (
{
closed = 1;
nodes = (
"582 0 LINE",
"378 291 LINE",
"334 291 LINE",
"538 0 LINE"
);
}
);
width = 714;
},
{
anchors = (
{
name = bottom;
position = "{287, 0}";
},
{
name = top;
position = "{427, 687}";
}
);
components = (
{
name = P;
}
);
layerId = "119329DF-C854-46E0-93EC-7E8A22DFCA4F";
paths = (
{
closed = 1;
nodes = (
"573 0 LINE",
"410 269 LINE",
"323 269 LINE",
"487 0 LINE"
);
}
);
width = 698;
},
{
anchors = (
{
name = bottom;
position = "{302, 0}";
},
{
name = top;
position = "{441, 687}";
}
);
components = (
{
name = P;
}
);
layerId = "84328D8E-4D54-44EF-AF5C-0364B1C28646";
paths = (
{
closed = 1;
nodes = (
"527 0 LINE",
"353 291 LINE",
"311 291 LINE",
"484 0 LINE"
);
}
);
width = 725;
},
{
anchors = (
{
name = bottom;
position = "{307, 0}";
},
{
name = top;
position = "{447, 687}";
}
);
components = (
{
name = P;
}
);
layerId = "88AF04C7-891B-4BE3-8AB1-6195D630646B";
paths = (
{
closed = 1;
nodes = (
"650 0 LINE",
"487 269 LINE",
"271 269 LINE",
"434 0 LINE"
);
}
);
width = 724;
}
);
leftKerningGroup = R;
rightKerningGroup = R;
unicode = 0052;
},
{
color = 1;
glyphname = S;
lastChange = "2017-12-08 20:22:36 +0000";
layers = (
{
anchors = (
{
name = bottom;
position = "{322, 0}";
},
{
name = top;
position = "{321, 687}";
}
);
layerId = "35616FF6-3D9C-499B-B113-AC9E0DB5842A";
paths = (
{
closed = 1;
nodes = (
"491 -11 OFFCURVE",
"573 78 OFFCURVE",
"573 187 CURVE SMOOTH",
"573 308 OFFCURVE",
"479 355 OFFCURVE",
"348 386 CURVE SMOOTH",
"231 414 OFFCURVE",
"163 439 OFFCURVE",
"163 510 CURVE SMOOTH",
"163 573 OFFCURVE",
"225 629 OFFCURVE",
"310 629 CURVE SMOOTH",
"382 629 OFFCURVE",
"450 596 OFFCURVE",
"507 541 CURVE",
"555 602 LINE",
"492 660 OFFCURVE",
"416 700 OFFCURVE",
"314 700 CURVE SMOOTH",
"182 700 OFFCURVE",
"84 614 OFFCURVE",
"84 504 CURVE SMOOTH",
"84 385 OFFCURVE",
"171 342 OFFCURVE",
"309 310 CURVE SMOOTH",
"429 282 OFFCURVE",
"494 253 OFFCURVE",
"494 180 CURVE SMOOTH",
"494 118 OFFCURVE",
"440 60 OFFCURVE",
"334 60 CURVE SMOOTH",
"238 60 OFFCURVE",
"167 101 OFFCURVE",
"109 159 CURVE",
"60 98 LINE",
"129 30 OFFCURVE",
"218 -11 OFFCURVE",
"331 -11 CURVE SMOOTH"
);
}
);
width = 639;
},
{
anchors = (
{
name = bottom;
position = "{328, 0}";
},
{
name = top;
position = "{328, 687}";
}
);
layerId = "A0D976AB-773B-4D3A-9F7E-7A0C42AF1E7B";
paths = (
{
closed = 1;
nodes = (
"520 -12 OFFCURVE",
"631 73 OFFCURVE",
"631 218 CURVE SMOOTH",
"631 349 OFFCURVE",
"531 392 OFFCURVE",
"371 426 CURVE SMOOTH",
"273 447 OFFCURVE",
"249 458 OFFCURVE",
"249 493 CURVE SMOOTH",
"249 519 OFFCURVE",
"272 538 OFFCURVE",
"319 538 CURVE SMOOTH",
"381 538 OFFCURVE",
"451 515 OFFCURVE",
"515 469 CURVE",
"612 606 LINE",
"536 667 OFFCURVE",
"443 699 OFFCURVE",
"324 699 CURVE SMOOTH",
"161 699 OFFCURVE",
"53 610 OFFCURVE",
"53 473 CURVE SMOOTH",
"53 330 OFFCURVE",
"168 291 OFFCURVE",
"317 257 CURVE SMOOTH",
"412 235 OFFCURVE",
"436 230 OFFCURVE",
"436 197 CURVE SMOOTH",
"436 167 OFFCURVE",
"408 149 OFFCURVE",
"355 149 CURVE SMOOTH",
"274 149 OFFCURVE",
"198 178 OFFCURVE",
"128 233 CURVE",
"20 104 LINE",
"107 27 OFFCURVE",
"224 -12 OFFCURVE",
"348 -12 CURVE SMOOTH"
);
}
);
width = 659;
},
{
anchors = (
{
name = bottom;
position = "{333, 0}";
},
{
name = top;
position = "{333, 687}";
}
);
layerId = "3B040282-CF47-4846-BCAF-7BFF90FB63BC";
paths = (
{
closed = 1;
nodes = (
"475 -11 OFFCURVE",
"571 67 OFFCURVE",
"571 177 CURVE SMOOTH",
"571 273 OFFCURVE",
"506 327 OFFCURVE",
"345 365 CURVE SMOOTH",
"197 401 OFFCURVE",
"138 441 OFFCURVE",
"138 507 CURVE SMOOTH",
"138 599 OFFCURVE",
"213 664 OFFCURVE",
"320 664 CURVE SMOOTH",
"400 664 OFFCURVE",
"478 631 OFFCURVE",
"537 574 CURVE",
"559 602 LINE",
"492 664 OFFCURVE",
"406 700 OFFCURVE",
"322 700 CURVE SMOOTH",
"193 700 OFFCURVE",
"102 619 OFFCURVE",
"102 504 CURVE SMOOTH",
"102 418 OFFCURVE",
"166 369 OFFCURVE",
"327 332 CURVE SMOOTH",
"476 297 OFFCURVE",
"535 252 OFFCURVE",
"535 174 CURVE SMOOTH",
"535 87 OFFCURVE",
"454 25 OFFCURVE",
"340 25 CURVE SMOOTH",
"246 25 OFFCURVE",
"153 63 OFFCURVE",
"90 126 CURVE",
"68 98 LINE",
"138 29 OFFCURVE",
"238 -11 OFFCURVE",
"339 -11 CURVE SMOOTH"
);
}
);
width = 647;
},
{
anchors = (
{
name = bottom;
position = "{272, 0}";
},
{
name = top;
position = "{411, 687}";
}
);
layerId = "119329DF-C854-46E0-93EC-7E8A22DFCA4F";
paths = (
{
closed = 1;
nodes = (
"445 -11 OFFCURVE",
"561 86 OFFCURVE",
"561 222 CURVE SMOOTH",
"561 305 OFFCURVE",
"506 352 OFFCURVE",
"368 385 CURVE SMOOTH",
"256 414 OFFCURVE",
"211 442 OFFCURVE",
"211 486 CURVE SMOOTH",
"211 570 OFFCURVE",
"286 629 OFFCURVE",
"392 629 CURVE SMOOTH",
"453 629 OFFCURVE",
"526 593 OFFCURVE",
"567 543 CURVE",
"624 600 LINE",
"571 659 OFFCURVE",
"479 700 OFFCURVE",
"400 700 CURVE SMOOTH",
"242 700 OFFCURVE",
"131 603 OFFCURVE",
"131 467 CURVE SMOOTH",
"131 388 OFFCURVE",
"186 344 OFFCURVE",
"325 311 CURVE SMOOTH",
"436 283 OFFCURVE",
"480 253 OFFCURVE",
"480 207 CURVE SMOOTH",
"480 121 OFFCURVE",
"400 60 OFFCURVE",
"286 60 CURVE SMOOTH",
"213 60 OFFCURVE",
"130 100 OFFCURVE",
"85 157 CURVE",
"27 100 LINE",
"81 35 OFFCURVE",
"185 -11 OFFCURVE",
"280 -11 CURVE SMOOTH"
);
}
);
width = 639;
},
{
anchors = (
{
name = bottom;
position = "{284, 0}";
},
{
name = top;
position = "{425, 687}";
}
);
layerId = "84328D8E-4D54-44EF-AF5C-0364B1C28646";
paths = (
{
closed = 1;
nodes = (
"437 -11 OFFCURVE",
"562 89 OFFCURVE",
"562 208 CURVE SMOOTH",
"562 294 OFFCURVE",
"502 327 OFFCURVE",
"368 365 CURVE SMOOTH",
"265 394 OFFCURVE",
"191 415 OFFCURVE",
"191 490 CURVE SMOOTH",
"191 584 OFFCURVE",
"293 664 OFFCURVE",
"415 664 CURVE SMOOTH",
"492 664 OFFCURVE",
"564 629 OFFCURVE",
"608 575 CURVE",
"634 601 LINE",
"579 663 OFFCURVE",
"500 700 OFFCURVE",
"417 700 CURVE SMOOTH",
"275 700 OFFCURVE",
"155 600 OFFCURVE",
"155 481 CURVE SMOOTH",
"155 397 OFFCURVE",
"219 369 OFFCURVE",
"350 332 CURVE SMOOTH",
"448 305 OFFCURVE",
"525 282 OFFCURVE",
"525 200 CURVE SMOOTH",
"525 105 OFFCURVE",
"418 25 OFFCURVE",
"290 25 CURVE SMOOTH",
"207 25 OFFCURVE",
"117 59 OFFCURVE",
"65 125 CURVE",
"40 99 LINE",
"99 26 OFFCURVE",
"196 -11 OFFCURVE",
"288 -11 CURVE SMOOTH"
);
}
);
width = 657;
},
{
anchors = (
{
name = bottom;
position = "{286, 0}";
},
{
name = top;
position = "{426, 687}";
}
);
layerId = "88AF04C7-891B-4BE3-8AB1-6195D630646B";
paths = (
{
closed = 1;
nodes = (
"484 -12 OFFCURVE",
"628 87 OFFCURVE",
"628 240 CURVE SMOOTH",
"628 349 OFFCURVE",
"556 387 OFFCURVE",
"396 424 CURVE SMOOTH",
"321 441 OFFCURVE",
"297 446 OFFCURVE",
"297 471 CURVE SMOOTH",
"297 500 OFFCURVE",
"330 538 OFFCURVE",
"397 538 CURVE SMOOTH",
"441 538 OFFCURVE",
"511 522 OFFCURVE",
"568 473 CURVE",
"684 601 LINE",
"615 666 OFFCURVE",
"519 699 OFFCURVE",
"415 699 CURVE SMOOTH",
"225 699 OFFCURVE",
"99 589 OFFCURVE",
"99 448 CURVE SMOOTH",
"99 320 OFFCURVE",
"202 293 OFFCURVE",
"333 260 CURVE SMOOTH",
"412 240 OFFCURVE",
"431 238 OFFCURVE",
"431 216 CURVE SMOOTH",
"431 186 OFFCURVE",
"394 149 OFFCURVE",
"316 149 CURVE SMOOTH",
"253 149 OFFCURVE",
"178 173 OFFCURVE",
"120 228 CURVE",
"-6 109 LINE",
"65 34 OFFCURVE",
"178 -12 OFFCURVE",
"302 -12 CURVE SMOOTH"
);
}
);
width = 669;
}
);
leftKerningGroup = S;
rightKerningGroup = S;
unicode = 0053;
},
{
color = 1;
glyphname = T;
lastChange = "2017-12-08 19:30:33 +0000";
layers = (
{
anchors = (
{
name = bottom;
position = "{322, 0}";
},
{
name = top;
position = "{328, 687}";
}
);
layerId = "35616FF6-3D9C-499B-B113-AC9E0DB5842A";
paths = (
{
closed = 1;
nodes = (
"367 0 LINE",
"367 613 LINE",
"598 613 LINE",
"598 687 LINE",
"58 687 LINE",
"58 613 LINE",
"289 613 LINE",
"289 0 LINE"
);
}
);
width = 656;
},
{
anchors = (
{
name = bottom;
position = "{324, 0}";
},
{
name = top;
position = "{327, 687}";
}
);
layerId = "A0D976AB-773B-4D3A-9F7E-7A0C42AF1E7B";
paths = (
{
closed = 1;
nodes = (
"424 0 LINE",
"424 514 LINE",
"627 514 LINE",
"627 687 LINE",
"27 687 LINE",
"27 514 LINE",
"230 514 LINE",
"230 0 LINE"
);
}
);
width = 654;
},
{
anchors = (
{
name = bottom;
position = "{335, 0}";
},
{
name = top;
position = "{335, 687}";
}
);
layerId = "3B040282-CF47-4846-BCAF-7BFF90FB63BC";
paths = (
{
closed = 1;
nodes = (
"353 0 LINE",
"353 651 LINE",
"605 651 LINE",
"605 687 LINE",
"65 687 LINE",
"65 651 LINE",
"317 651 LINE",
"317 0 LINE"
);
}
);
width = 670;
},
{
anchors = (
{
name = bottom;
position = "{265, 0}";
},
{
name = top;
position = "{416, 687}";
}
);
layerId = "119329DF-C854-46E0-93EC-7E8A22DFCA4F";
paths = (
{
closed = 1;
nodes = (
"312 0 LINE",
"440 613 LINE",
"671 613 LINE",
"686 687 LINE",
"146 687 LINE",
"131 613 LINE",
"362 613 LINE",
"234 0 LINE"
);
}
);
width = 654;
},
{
anchors = (
{
name = bottom;
position = "{277, 0}";
},
{
name = top;
position = "{430, 687}";
}
);
layerId = "84328D8E-4D54-44EF-AF5C-0364B1C28646";
paths = (
{
closed = 1;
nodes = (
"304 0 LINE",
"440 651 LINE",
"692 651 LINE",
"699 687 LINE",
"159 687 LINE",
"152 651 LINE",
"404 651 LINE",
"268 0 LINE"
);
}
);
width = 680;
},
{
anchors = (
{
name = bottom;
position = "{271, 0}";
},
{
name = top;
position = "{420, 687}";
}
);
layerId = "88AF04C7-891B-4BE3-8AB1-6195D630646B";
paths = (
{
closed = 1;
nodes = (
"374 0 LINE",
"481 514 LINE",
"684 514 LINE",
"720 687 LINE",
"120 687 LINE",
"84 514 LINE",
"287 514 LINE",
"180 0 LINE"
);
}
);
width = 662;
}
);
leftKerningGroup = T;
rightKerningGroup = T;
unicode = 0054;
},
{
color = 1;
glyphname = U;
lastChange = "2017-12-08 20:23:37 +0000";
layers = (
{
anchors = (
{
name = bottom;
position = "{399, 0}";
},
{
name = top;
position = "{377, 687}";
}
);
layerId = "35616FF6-3D9C-499B-B113-AC9E0DB5842A";
paths = (
{
closed = 1;
nodes = (
"545 -12 OFFCURVE",
"664 111 OFFCURVE",
"664 285 CURVE SMOOTH",
"664 687 LINE",
"586 687 LINE",
"586 285 LINE SMOOTH",
"586 153 OFFCURVE",
"499 59 OFFCURVE",
"377 59 CURVE SMOOTH",
"255 59 OFFCURVE",
"168 153 OFFCURVE",
"168 285 CURVE SMOOTH",
"168 687 LINE",
"90 687 LINE",
"90 285 LINE SMOOTH",
"90 111 OFFCURVE",
"209 -12 OFFCURVE",
"377 -12 CURVE SMOOTH"
);
}
);
width = 754;
},
{
anchors = (
{
name = bottom;
position = "{431, 0}";
},
{
name = top;
position = "{377, 687}";
}
);
layerId = "A0D976AB-773B-4D3A-9F7E-7A0C42AF1E7B";
paths = (
{
closed = 1;
nodes = (
"569 -12 OFFCURVE",
"704 119 OFFCURVE",
"704 305 CURVE SMOOTH",
"704 687 LINE",
"510 687 LINE",
"510 315 LINE SMOOTH",
"510 227 OFFCURVE",
"455 164 OFFCURVE",
"377 164 CURVE SMOOTH",
"299 164 OFFCURVE",
"244 227 OFFCURVE",
"244 315 CURVE SMOOTH",
"244 687 LINE",
"50 687 LINE",
"50 305 LINE SMOOTH",
"50 119 OFFCURVE",
"185 -12 OFFCURVE",
"377 -12 CURVE SMOOTH"
);
}
);
width = 754;
},
{
anchors = (
{
name = bottom;
position = "{380, 0}";
},
{
name = top;
position = "{367, 687}";
}
);
layerId = "3B040282-CF47-4846-BCAF-7BFF90FB63BC";
paths = (
{
closed = 1;
nodes = (
"523 -12 OFFCURVE",
"633 103 OFFCURVE",
"633 265 CURVE SMOOTH",
"633 687 LINE",
"597 687 LINE",
"597 265 LINE SMOOTH",
"597 124 OFFCURVE",
"502 24 OFFCURVE",
"367 24 CURVE SMOOTH",
"232 24 OFFCURVE",
"137 124 OFFCURVE",
"137 265 CURVE SMOOTH",
"137 687 LINE",
"101 687 LINE",
"101 265 LINE SMOOTH",
"101 103 OFFCURVE",
"211 -12 OFFCURVE",
"367 -12 CURVE SMOOTH"
);
}
);
width = 734;
},
{
anchors = (
{
name = bottom;
position = "{338, 0}";
},
{
name = top;
position = "{463, 687}";
}
);
layerId = "119329DF-C854-46E0-93EC-7E8A22DFCA4F";
paths = (
{
closed = 1;
nodes = (
"489 -12 OFFCURVE",
"632 110 OFFCURVE",
"668 282 CURVE SMOOTH",
"752 687 LINE",
"674 687 LINE",
"591 288 LINE SMOOTH",
"564 154 OFFCURVE",
"458 59 OFFCURVE",
"335 59 CURVE SMOOTH",
"213 59 OFFCURVE",
"145 151 OFFCURVE",
"172 282 CURVE SMOOTH",
"256 687 LINE",
"178 687 LINE",
"95 288 LINE SMOOTH",
"59 112 OFFCURVE",
"152 -12 OFFCURVE",
"321 -12 CURVE SMOOTH"
);
}
);
width = 752;
},
{
anchors = (
{
name = bottom;
position = "{328, 0}";
},
{
name = top;
position = "{456, 687}";
}
);
layerId = "84328D8E-4D54-44EF-AF5C-0364B1C28646";
paths = (
{
closed = 1;
nodes = (
"473 -12 OFFCURVE",
"606 102 OFFCURVE",
"639 264 CURVE SMOOTH",
"727 687 LINE",
"691 687 LINE",
"604 266 LINE SMOOTH",
"575 125 OFFCURVE",
"457 24 OFFCURVE",
"321 24 CURVE SMOOTH",
"187 24 OFFCURVE",
"114 123 OFFCURVE",
"143 264 CURVE SMOOTH",
"231 687 LINE",
"195 687 LINE",
"108 266 LINE SMOOTH",
"74 104 OFFCURVE",
"161 -12 OFFCURVE",
"319 -12 CURVE SMOOTH"
);
}
);
width = 745;
},
{
anchors = (
{
name = bottom;
position = "{345, 0}";
},
{
name = top;
position = "{454, 687}";
}
);
layerId = "88AF04C7-891B-4BE3-8AB1-6195D630646B";
paths = (
{
closed = 1;
nodes = (
"522 -12 OFFCURVE",
"677 111 OFFCURVE",
"715 297 CURVE SMOOTH",
"796 687 LINE",
"602 687 LINE",
"527 323 LINE SMOOTH",
"508 235 OFFCURVE",
"432 164 OFFCURVE",
"348 164 CURVE SMOOTH",
"276 164 OFFCURVE",
"239 219 OFFCURVE",
"257 307 CURVE SMOOTH",
"336 687 LINE",
"142 687 LINE",
"64 313 LINE SMOOTH",
"26 127 OFFCURVE",
"138 -12 OFFCURVE",
"336 -12 CURVE SMOOTH"
);
}
);
width = 762;
}
);
leftKerningGroup = U;
rightKerningGroup = U;
unicode = 0055;
},
{
color = 1;
glyphname = V;
lastChange = "2017-12-08 19:30:34 +0000";
layers = (
{
layerId = "35616FF6-3D9C-499B-B113-AC9E0DB5842A";
paths = (
{
closed = 1;
nodes = (
"443 0 LINE",
"746 687 LINE",
"661 687 LINE",
"358 0 LINE"
);
},
{
closed = 1;
nodes = (
"443 0 LINE",
"140 687 LINE",
"55 687 LINE",
"358 0 LINE"
);
}
);
width = 801;
},
{
layerId = "A0D976AB-773B-4D3A-9F7E-7A0C42AF1E7B";
paths = (
{
closed = 1;
nodes = (
"500 0 LINE",
"764 687 LINE",
"545 687 LINE",
"281 0 LINE"
);
},
{
closed = 1;
nodes = (
"500 0 LINE",
"236 687 LINE",
"17 687 LINE",
"281 0 LINE"
);
}
);
width = 781;
},
{
layerId = "3B040282-CF47-4846-BCAF-7BFF90FB63BC";
paths = (
{
closed = 1;
nodes = (
"408 0 LINE",
"711 687 LINE",
"671 687 LINE",
"368 0 LINE"
);
},
{
closed = 1;
nodes = (
"408 0 LINE",
"105 687 LINE",
"65 687 LINE",
"368 0 LINE"
);
}
);
width = 776;
},
{
layerId = "119329DF-C854-46E0-93EC-7E8A22DFCA4F";
paths = (
{
closed = 1;
nodes = (
"388 0 LINE",
"834 687 LINE",
"747 687 LINE",
"302 0 LINE"
);
},
{
closed = 1;
nodes = (
"387 0 LINE",
"226 687 LINE",
"143 687 LINE",
"303 0 LINE"
);
}
);
width = 799;
},
{
layerId = "84328D8E-4D54-44EF-AF5C-0364B1C28646";
paths = (
{
closed = 1;
nodes = (
"359 0 LINE",
"805 687 LINE",
"764 687 LINE",
"318 0 LINE"
);
},
{
closed = 1;
nodes = (
"358 0 LINE",
"198 687 LINE",
"159 687 LINE",
"319 0 LINE"
);
}
);
width = 786;
},
{
layerId = "88AF04C7-891B-4BE3-8AB1-6195D630646B";
paths = (
{
closed = 1;
nodes = (
"450 0 LINE",
"857 687 LINE",
"634 687 LINE",
"228 0 LINE"
);
},
{
closed = 1;
nodes = (
"447 0 LINE",
"325 687 LINE",
"110 687 LINE",
"231 0 LINE"
);
}
);
width = 789;
},
{
associatedMasterId = "35616FF6-3D9C-499B-B113-AC9E0DB5842A";
layerId = "750D860D-B34D-4CA9-BD0A-AA18116D9DBC";
name = bubble;
paths = (
{
closed = 1;
nodes = (
"265 -30 LINE",
"333 -74 LINE",
"418 -74 LINE",
"486 -30 LINE",
"751 572 LINE",
"751 715 LINE",
"721 761 LINE",
"636 761 LINE",
"568 717 LINE",
"376 280 LINE",
"183 717 LINE",
"115 761 LINE",
"30 761 LINE",
"0 715 LINE",
"0 572 LINE"
);
}
);
width = 751;
}
);
leftKerningGroup = V;
rightKerningGroup = V;
unicode = 0056;
},
{
color = 1;
glyphname = W;
lastChange = "2017-12-08 19:30:33 +0000";
layers = (
{
anchors = (
{
name = top;
position = "{560, 687}";
}
);
layerId = "35616FF6-3D9C-499B-B113-AC9E0DB5842A";
paths = (
{
closed = 1;
nodes = (
"368 0 LINE",
"560 585 LINE",
"751 0 LINE",
"828 0 LINE",
"1063 687 LINE",
"975 687 LINE",
"785 131 LINE",
"603 687 LINE",
"516 687 LINE",
"334 131 LINE",
"144 687 LINE",
"56 687 LINE",
"291 0 LINE"
);
}
);
width = 1119;
},
{
anchors = (
{
name = top;
position = "{550, 687}";
}
);
layerId = "A0D976AB-773B-4D3A-9F7E-7A0C42AF1E7B";
paths = (
{
closed = 1;
nodes = (
"406 0 LINE",
"550 397 LINE",
"693 0 LINE",
"889 0 LINE",
"1079 687 LINE",
"870 687 LINE",
"786 290 LINE",
"654 687 LINE",
"445 687 LINE",
"312 290 LINE",
"228 687 LINE",
"19 687 LINE",
"210 0 LINE"
);
}
);
width = 1098;
},
{
anchors = (
{
name = top;
position = "{546, 687}";
}
);
layerId = "3B040282-CF47-4846-BCAF-7BFF90FB63BC";
paths = (
{
closed = 1;
nodes = (
"335 0 LINE",
"546 629 LINE",
"756 0 LINE",
"795 0 LINE",
"1025 687 LINE",
"986 687 LINE",
"776 58 LINE",
"565 687 LINE",
"526 687 LINE",
"316 58 LINE",
"105 687 LINE",
"66 687 LINE",
"296 0 LINE"
);
}
);
width = 1091;
},
{
anchors = (
{
name = top;
position = "{647, 687}";
}
);
layerId = "119329DF-C854-46E0-93EC-7E8A22DFCA4F";
paths = (
{
closed = 1;
nodes = (
"313 0 LINE",
"628 585 LINE",
"696 0 LINE",
"773 0 LINE",
"1151 687 LINE",
"1062 687 LINE",
"755 131 LINE",
"690 687 LINE",
"603 687 LINE",
"304 131 LINE",
"231 687 LINE",
"144 687 LINE",
"236 0 LINE"
);
}
);
width = 1117;
},
{
anchors = (
{
name = top;
position = "{640, 687}";
}
);
layerId = "84328D8E-4D54-44EF-AF5C-0364B1C28646";
paths = (
{
closed = 1;
nodes = (
"287 0 LINE",
"629 629 LINE",
"708 0 LINE",
"747 0 LINE",
"1120 687 LINE",
"1080 687 LINE",
"739 58 LINE",
"659 687 LINE",
"620 687 LINE",
"279 58 LINE",
"199 687 LINE",
"161 687 LINE",
"248 0 LINE"
);
}
);
width = 1103;
},
{
anchors = (
{
name = top;
position = "{640, 687}";
}
);
layerId = "88AF04C7-891B-4BE3-8AB1-6195D630646B";
paths = (
{
closed = 1;
nodes = (
"356 0 LINE",
"585 397 LINE",
"643 0 LINE",
"839 0 LINE",
"1172 687 LINE",
"960 687 LINE",
"792 290 LINE",
"744 687 LINE",
"535 687 LINE",
"318 290 LINE",
"318 687 LINE",
"112 687 LINE",
"160 0 LINE"
);
}
);
width = 1106;
}
);
leftKerningGroup = W;
rightKerningGroup = W;
unicode = 0057;
},
{
color = 1;
glyphname = X;
lastChange = "2017-12-08 19:30:34 +0000";
layers = (
{
layerId = "35616FF6-3D9C-499B-B113-AC9E0DB5842A";
paths = (
{
closed = 1;
nodes = (
"55 687 LINE",
"151 687 LINE",
"676 0 LINE",
"580 0 LINE"
);
},
{
closed = 1;
nodes = (
"581 687 LINE",
"676 687 LINE",
"150 0 LINE",
"55 0 LINE"
);
}
);
width = 731;
},
{
layerId = "A0D976AB-773B-4D3A-9F7E-7A0C42AF1E7B";
paths = (
{
closed = 1;
nodes = (
"17 687 LINE",
"244 687 LINE",
"730 0 LINE",
"503 0 LINE"
);
},
{
closed = 1;
nodes = (
"507 687 LINE",
"730 687 LINE",
"240 0 LINE",
"17 0 LINE"
);
}
);
width = 747;
},
{
layerId = "3B040282-CF47-4846-BCAF-7BFF90FB63BC";
paths = (
{
closed = 1;
nodes = (
"66 687 LINE",
"112 687 LINE",
"637 0 LINE",
"591 0 LINE"
);
},
{
closed = 1;
nodes = (
"592 687 LINE",
"638 687 LINE",
"112 0 LINE",
"66 0 LINE"
);
}
);
width = 704;
},
{
layerId = "119329DF-C854-46E0-93EC-7E8A22DFCA4F";
paths = (
{
closed = 1;
nodes = (
"146 687 LINE",
"239 687 LINE",
"621 0 LINE",
"528 0 LINE"
);
},
{
closed = 1;
nodes = (
"669 687 LINE",
"767 687 LINE",
"98 0 LINE",
"0 0 LINE"
);
}
);
width = 732;
},
{
layerId = "84328D8E-4D54-44EF-AF5C-0364B1C28646";
paths = (
{
closed = 1;
nodes = (
"162 687 LINE",
"204 687 LINE",
"587 0 LINE",
"544 0 LINE"
);
},
{
closed = 1;
nodes = (
"686 687 LINE",
"733 687 LINE",
"64 0 LINE",
"17 0 LINE"
);
}
);
width = 715;
},
{
layerId = "88AF04C7-891B-4BE3-8AB1-6195D630646B";
paths = (
{
closed = 1;
nodes = (
"122 687 LINE",
"340 687 LINE",
"683 0 LINE",
"465 0 LINE"
);
},
{
closed = 1;
nodes = (
"599 687 LINE",
"839 687 LINE",
"206 0 LINE",
"-34 0 LINE"
);
}
);
width = 771;
}
);
leftKerningGroup = X;
rightKerningGroup = X;
unicode = 0058;
},
{
color = 1;
glyphname = Y;
lastChange = "2017-12-08 20:26:22 +0000";
layers = (
{
anchors = (
{
name = top;
position = "{371, 687}";
}
);
layerId = "35616FF6-3D9C-499B-B113-AC9E0DB5842A";
paths = (
{
closed = 1;
nodes = (
"412 0 LINE",
"412 280 LINE",
"688 687 LINE",
"594 687 LINE",
"371 354 LINE",
"150 687 LINE",
"53 687 LINE",
"330 280 LINE",
"330 0 LINE"
);
}
);
width = 741;
},
{
anchors = (
{
name = top;
position = "{376, 687}";
}
);
layerId = "A0D976AB-773B-4D3A-9F7E-7A0C42AF1E7B";
paths = (
{
closed = 1;
nodes = (
"473 0 LINE",
"473 226 LINE",
"736 687 LINE",
"523 687 LINE",
"376 408 LINE",
"237 687 LINE",
"15 687 LINE",
"279 226 LINE",
"279 0 LINE"
);
}
);
width = 751;
},
{
anchors = (
{
name = top;
position = "{361, 687}";
}
);
layerId = "3B040282-CF47-4846-BCAF-7BFF90FB63BC";
paths = (
{
closed = 1;
nodes = (
"379 0 LINE",
"379 279 LINE",
"659 687 LINE",
"613 687 LINE",
"361 320 LINE",
"109 687 LINE",
"63 687 LINE",
"343 279 LINE",
"343 0 LINE"
);
}
);
width = 722;
},
{
anchors = (
{
name = top;
position = "{450, 687}";
}
);
layerId = "119329DF-C854-46E0-93EC-7E8A22DFCA4F";
paths = (
{
closed = 1;
nodes = (
"356 0 LINE",
"416 280 LINE",
"776 687 LINE",
"680 687 LINE",
"381 347 LINE",
"220 687 LINE",
"141 687 LINE",
"334 280 LINE",
"274 0 LINE"
);
}
);
width = 739;
},
{
anchors = (
{
name = top;
position = "{453, 687}";
}
);
layerId = "84328D8E-4D54-44EF-AF5C-0364B1C28646";
paths = (
{
closed = 1;
nodes = (
"330 0 LINE",
"389 279 LINE",
"754 687 LINE",
"707 687 LINE",
"375 317 LINE",
"198 687 LINE",
"158 687 LINE",
"353 279 LINE",
"294 0 LINE"
);
}
);
width = 734;
},
{
anchors = (
{
name = top;
position = "{451, 687}";
}
);
layerId = "88AF04C7-891B-4BE3-8AB1-6195D630646B";
paths = (
{
closed = 1;
nodes = (
"421 0 LINE",
"471 226 LINE",
"830 687 LINE",
"612 687 LINE",
"395 394 LINE",
"289 687 LINE",
"109 687 LINE",
"277 226 LINE",
"227 0 LINE"
);
}
);
width = 761;
}
);
leftKerningGroup = Y;
rightKerningGroup = Y;
unicode = 0059;
},
{
color = 1;
glyphname = Z;
lastChange = "2017-12-08 20:27:16 +0000";
layers = (
{
anchors = (
{
name = top;
position = "{328, 687}";
}
);
layerId = "35616FF6-3D9C-499B-B113-AC9E0DB5842A";
paths = (
{
closed = 1;
nodes = (
"589 0 LINE",
"589 74 LINE",
"170 74 LINE",
"585 625 LINE",
"585 687 LINE",
"71 687 LINE",
"71 613 LINE",
"478 613 LINE",
"64 62 LINE",
"64 0 LINE"
);
}
);
width = 653;
},
{
anchors = (
{
name = top;
position = "{340, 687}";
}
);
layerId = "A0D976AB-773B-4D3A-9F7E-7A0C42AF1E7B";
paths = (
{
closed = 1;
nodes = (
"634 0 LINE",
"634 173 LINE",
"305 173 LINE",
"629 542 LINE",
"629 687 LINE",
"45 687 LINE",
"45 514 LINE",
"363 514 LINE",
"37 145 LINE",
"38 0 LINE"
);
}
);
width = 672;
},
{
anchors = (
{
name = top;
position = "{322, 687}";
}
);
layerId = "3B040282-CF47-4846-BCAF-7BFF90FB63BC";
paths = (
{
closed = 1;
nodes = (
"574 0 LINE",
"574 36 LINE",
"113 36 LINE",
"570 657 LINE",
"570 687 LINE",
"76 687 LINE",
"76 651 LINE",
"526 651 LINE",
"69 30 LINE",
"69 0 LINE"
);
}
);
width = 643;
},
{
anchors = (
{
name = top;
position = "{417, 687}";
}
);
layerId = "119329DF-C854-46E0-93EC-7E8A22DFCA4F";
paths = (
{
closed = 1;
nodes = (
"535 0 LINE",
"551 74 LINE",
"133 74 LINE",
"662 625 LINE",
"674 687 LINE",
"160 687 LINE",
"145 613 LINE",
"551 613 LINE",
"22 62 LINE",
"11 0 LINE"
);
}
);
width = 652;
},
{
anchors = (
{
name = top;
position = "{417, 687}";
}
);
layerId = "84328D8E-4D54-44EF-AF5C-0364B1C28646";
paths = (
{
closed = 1;
nodes = (
"525 0 LINE",
"533 36 LINE",
"73 36 LINE",
"659 657 LINE",
"664 687 LINE",
"170 687 LINE",
"163 651 LINE",
"612 651 LINE",
"26 30 LINE",
"21 0 LINE"
);
}
);
width = 654;
},
{
anchors = (
{
name = top;
position = "{431, 687}";
}
);
layerId = "88AF04C7-891B-4BE3-8AB1-6195D630646B";
paths = (
{
closed = 1;
nodes = (
"585 0 LINE",
"621 173 LINE",
"295 173 LINE",
"695 542 LINE",
"723 687 LINE",
"139 687 LINE",
"103 514 LINE",
"419 514 LINE",
"16 145 LINE",
"-10 0 LINE"
);
}
);
width = 682;
}
);
leftKerningGroup = Z;
rightKerningGroup = Z;
unicode = 005A;
},
{
color = 1;
glyphname = a;
lastChange = "2017-12-08 20:32:32 +0000";
layers = (
{
anchors = (
{
name = bottom;
position = "{493, 0}";
},
{
name = top;
position = "{283, 517}";
}
);
layerId = "35616FF6-3D9C-499B-B113-AC9E0DB5842A";
paths = (
{
closed = 1;
nodes = (
"493 0 LINE",
"493 315 LINE SMOOTH",
"493 440 OFFCURVE",
"424 529 OFFCURVE",
"283 529 CURVE SMOOTH",
"233 529 OFFCURVE",
"171 516 OFFCURVE",
"97 479 CURVE",
"127 418 LINE",
"174 442 OFFCURVE",
"226 465 OFFCURVE",
"278 465 CURVE SMOOTH",
"390 465 OFFCURVE",
"418 385 OFFCURVE",
"418 315 CURVE SMOOTH",
"418 0 LINE"
);
},
{
closed = 1;
nodes = (
"318 -12 OFFCURVE",
"414 35 OFFCURVE",
"435 123 CURVE",
"418 162 LINE",
"398 89 OFFCURVE",
"317 54 OFFCURVE",
"249 54 CURVE SMOOTH",
"176 54 OFFCURVE",
"120 92 OFFCURVE",
"120 156 CURVE SMOOTH",
"120 218 OFFCURVE",
"185 262 OFFCURVE",
"262 262 CURVE SMOOTH",
"332 262 OFFCURVE",
"396 250 OFFCURVE",
"451 230 CURVE",
"451 284 LINE",
"390 308 OFFCURVE",
"318 325 OFFCURVE",
"250 325 CURVE SMOOTH",
"139 325 OFFCURVE",
"47 256 OFFCURVE",
"47 153 CURVE SMOOTH",
"47 51 OFFCURVE",
"127 -12 OFFCURVE",
"236 -12 CURVE SMOOTH"
);
}
);
width = 566;
},
{
anchors = (
{
name = bottom;
position = "{532, 0}";
},
{
name = top;
position = "{293, 517}";
}
);
layerId = "A0D976AB-773B-4D3A-9F7E-7A0C42AF1E7B";
paths = (
{
closed = 1;
nodes = (
"532 0 LINE",
"532 305 LINE SMOOTH",
"532 446 OFFCURVE",
"424 529 OFFCURVE",
"293 529 CURVE SMOOTH",
"206 529 OFFCURVE",
"129 504 OFFCURVE",
"57 468 CURVE",
"118 347 LINE",
"156 366 OFFCURVE",
"196 376 OFFCURVE",
"241 376 CURVE SMOOTH",
"308 376 OFFCURVE",
"347 350 OFFCURVE",
"347 305 CURVE SMOOTH",
"347 0 LINE"
);
},
{
closed = 1;
nodes = (
"294 -12 OFFCURVE",
"373 34 OFFCURVE",
"393 113 CURVE",
"347 163 LINE",
"343 133 OFFCURVE",
"308 112 OFFCURVE",
"261 112 CURVE SMOOTH",
"226 112 OFFCURVE",
"202 131 OFFCURVE",
"202 158 CURVE SMOOTH",
"202 187 OFFCURVE",
"228 208 OFFCURVE",
"265 208 CURVE SMOOTH",
"295 208 OFFCURVE",
"325 201 OFFCURVE",
"348 188 CURVE",
"399 274 LINE",
"348 308 OFFCURVE",
"288 325 OFFCURVE",
"238 325 CURVE SMOOTH",
"113 325 OFFCURVE",
"15 254 OFFCURVE",
"15 153 CURVE SMOOTH",
"15 56 OFFCURVE",
"103 -12 OFFCURVE",
"214 -12 CURVE SMOOTH"
);
}
);
width = 572;
},
{
anchors = (
{
name = bottom;
position = "{482, 0}";
},
{
name = top;
position = "{283, 517}";
}
);
layerId = "3B040282-CF47-4846-BCAF-7BFF90FB63BC";
paths = (
{
closed = 1;
nodes = (
"482 0 LINE",
"482 315 LINE SMOOTH",
"482 440 OFFCURVE",
"407 529 OFFCURVE",
"283 529 CURVE SMOOTH",
"229 529 OFFCURVE",
"162 512 OFFCURVE",
"105 479 CURVE",
"120 448 LINE",
"168 477 OFFCURVE",
"226 493 OFFCURVE",
"278 493 CURVE SMOOTH",
"401 493 OFFCURVE",
"446 402 OFFCURVE",
"446 315 CURVE SMOOTH",
"446 0 LINE"
);
},
{
closed = 1;
nodes = (
"330 -12 OFFCURVE",
"442 36 OFFCURVE",
"463 123 CURVE",
"446 162 LINE",
"426 69 OFFCURVE",
"324 24 OFFCURVE",
"245 24 CURVE SMOOTH",
"159 24 OFFCURVE",
"91 78 OFFCURVE",
"91 155 CURVE SMOOTH",
"91 233 OFFCURVE",
"162 289 OFFCURVE",
"267 289 CURVE SMOOTH",
"332 289 OFFCURVE",
"404 268 OFFCURVE",
"459 248 CURVE",
"459 284 LINE",
"398 308 OFFCURVE",
"324 325 OFFCURVE",
"263 325 CURVE SMOOTH",
"138 325 OFFCURVE",
"55 254 OFFCURVE",
"55 154 CURVE SMOOTH",
"55 56 OFFCURVE",
"134 -12 OFFCURVE",
"241 -12 CURVE SMOOTH"
);
}
);
width = 563;
},
{
anchors = (
{
name = bottom;
position = "{540, 0}";
},
{
name = top;
position = "{305, 517}";
}
);
associatedMasterId = "A0D976AB-773B-4D3A-9F7E-7A0C42AF1E7B";
layerId = "76C99E97-56EA-4E88-AE47-AB7E78508A3B";
name = "Bold[700]";
paths = (
{
closed = 1;
nodes = (
"540 0 LINE",
"540 305 LINE SMOOTH",
"540 446 OFFCURVE",
"432 529 OFFCURVE",
"301 529 CURVE SMOOTH",
"214 529 OFFCURVE",
"137 504 OFFCURVE",
"65 468 CURVE",
"124 351 LINE",
"167 373 OFFCURVE",
"200 386 OFFCURVE",
"249 386 CURVE SMOOTH",
"309 386 OFFCURVE",
"355 356 OFFCURVE",
"355 305 CURVE SMOOTH",
"355 0 LINE"
);
},
{
closed = 1;
nodes = (
"302 -12 OFFCURVE",
"381 34 OFFCURVE",
"401 113 CURVE",
"355 153 LINE",
"351 123 OFFCURVE",
"315 102 OFFCURVE",
"269 102 CURVE SMOOTH",
"232 102 OFFCURVE",
"206 125 OFFCURVE",
"206 158 CURVE SMOOTH",
"206 193 OFFCURVE",
"234 218 OFFCURVE",
"273 218 CURVE SMOOTH",
"304 218 OFFCURVE",
"338 211 OFFCURVE",
"356 201 CURVE",
"407 274 LINE",
"356 308 OFFCURVE",
"296 325 OFFCURVE",
"246 325 CURVE SMOOTH",
"121 325 OFFCURVE",
"23 254 OFFCURVE",
"23 153 CURVE SMOOTH",
"23 56 OFFCURVE",
"111 -12 OFFCURVE",
"222 -12 CURVE SMOOTH"
);
}
);
width = 587;
},
{
anchors = (
{
name = bottom;
position = "{502, 0}";
},
{
name = top;
position = "{355, 517}";
}
);
components = (
{
name = lowercase_loop_reverse;
transform = "{1, 0, 0, 1, 1, 0}";
},
{
name = idotless;
transform = "{1, 0, 0, 1, 400, 0}";
}
);
layerId = "119329DF-C854-46E0-93EC-7E8A22DFCA4F";
width = 637;
},
{
anchors = (
{
name = bottom;
position = "{485, 0}";
},
{
name = top;
position = "{356, 517}";
}
);
components = (
{
name = lowercase_loop_reverse;
transform = "{1, 0, 0, 1, -55, 0}";
},
{
name = idotless;
transform = "{1, 0, 0, 1, 409, 0}";
}
);
layerId = "84328D8E-4D54-44EF-AF5C-0364B1C28646";
width = 633;
},
{
anchors = (
{
name = bottom;
position = "{570, 0}";
},
{
name = top;
position = "{382, 517}";
}
);
components = (
{
name = lowercase_loop_reverse;
transform = "{1, 0, 0, 1, 1, 0}";
},
{
name = idotless;
transform = "{1, 0, 0, 1, 377, 0}";
}
);
layerId = "88AF04C7-891B-4BE3-8AB1-6195D630646B";
width = 678;
},
{
associatedMasterId = "35616FF6-3D9C-499B-B113-AC9E0DB5842A";
layerId = "DAA43F66-2CEA-4AC7-8BDC-457C62340B46";
name = bubble;
paths = (
{
closed = 1;
nodes = (
"45 -47 OFFCURVE",
"125 -86 OFFCURVE",
"222 -86 CURVE SMOOTH",
"278 -86 OFFCURVE",
"331 -71 OFFCURVE",
"375 -45 CURVE",
"404 -74 LINE",
"479 -74 LINE",
"546 -7 LINE",
"546 388 LINE",
"519 521 OFFCURVE",
"417 603 OFFCURVE",
"269 603 CURVE SMOOTH",
"202 603 OFFCURVE",
"125 583 OFFCURVE",
"50 545 CURVE",
"17 446 LINE",
"47 385 LINE",
"98 368 LINE",
"58 349 OFFCURVE",
"24 320 OFFCURVE",
"0 285 CURVE",
"0 18 LINE"
);
}
);
width = 546;
}
);
leftKerningGroup = a;
rightKerningGroup = a;
unicode = 0061;
},
{
color = 1;
glyphname = ae;
lastChange = "2017-12-08 20:35:07 +0000";
layers = (
{
components = (
{
name = e;
transform = "{1, 0, 0, 1, 385, 0}";
}
);
layerId = "3B040282-CF47-4846-BCAF-7BFF90FB63BC";
paths = (
{
closed = 1;
nodes = (
"386 -12 OFFCURVE",
"482 82 OFFCURVE",
"482 216 CURVE",
"482 315 LINE SMOOTH",
"482 440 OFFCURVE",
"407 529 OFFCURVE",
"283 529 CURVE SMOOTH",
"229 529 OFFCURVE",
"162 512 OFFCURVE",
"105 479 CURVE",
"120 448 LINE",
"168 477 OFFCURVE",
"226 493 OFFCURVE",
"278 493 CURVE SMOOTH",
"401 493 OFFCURVE",
"446 402 OFFCURVE",
"446 315 CURVE SMOOTH",
"446 216 LINE",
"446 104 OFFCURVE",
"367 24 OFFCURVE",
"255 24 CURVE SMOOTH",
"159 24 OFFCURVE",
"91 78 OFFCURVE",
"91 155 CURVE SMOOTH",
"91 233 OFFCURVE",
"162 289 OFFCURVE",
"267 289 CURVE SMOOTH",
"332 289 OFFCURVE",
"404 268 OFFCURVE",
"459 248 CURVE",
"459 284 LINE",
"398 308 OFFCURVE",
"324 325 OFFCURVE",
"263 325 CURVE SMOOTH",
"138 325 OFFCURVE",
"55 254 OFFCURVE",
"55 154 CURVE SMOOTH",
"55 57 OFFCURVE",
"136 -12 OFFCURVE",
"251 -12 CURVE SMOOTH"
);
}
);
width = 1000;
},
{
components = (
{
name = e;
transform = "{1, 0, 0, 1, 365, 0}";
}
);
layerId = "35616FF6-3D9C-499B-B113-AC9E0DB5842A";
paths = (
{
closed = 1;
nodes = (
"380 -12 OFFCURVE",
"493 91 OFFCURVE",
"493 213 CURVE",
"493 315 LINE SMOOTH",
"493 440 OFFCURVE",
"424 529 OFFCURVE",
"283 529 CURVE SMOOTH",
"233 529 OFFCURVE",
"171 516 OFFCURVE",
"97 479 CURVE",
"127 418 LINE",
"174 442 OFFCURVE",
"226 465 OFFCURVE",
"278 465 CURVE SMOOTH",
"390 465 OFFCURVE",
"418 385 OFFCURVE",
"418 315 CURVE SMOOTH",
"418 203 LINE",
"418 122 OFFCURVE",
"345 54 OFFCURVE",
"259 54 CURVE SMOOTH",
"172 54 OFFCURVE",
"120 92 OFFCURVE",
"120 156 CURVE SMOOTH",
"120 218 OFFCURVE",
"185 262 OFFCURVE",
"262 262 CURVE SMOOTH",
"332 262 OFFCURVE",
"396 250 OFFCURVE",
"451 230 CURVE",
"451 284 LINE",
"390 308 OFFCURVE",
"318 325 OFFCURVE",
"250 325 CURVE SMOOTH",
"139 325 OFFCURVE",
"47 256 OFFCURVE",
"47 153 CURVE SMOOTH",
"47 49 OFFCURVE",
"121 -12 OFFCURVE",
"246 -12 CURVE SMOOTH"
);
}
);
width = 965;
},
{
components = (
{
name = e;
transform = "{1, 0, 0, 1, 326, 0}";
}
);
layerId = "A0D976AB-773B-4D3A-9F7E-7A0C42AF1E7B";
paths = (
{
closed = 1;
nodes = (
"394 -12 OFFCURVE",
"482 62 OFFCURVE",
"482 188 CURVE",
"482 345 LINE SMOOTH",
"482 453 OFFCURVE",
"395 529 OFFCURVE",
"273 529 CURVE SMOOTH",
"186 529 OFFCURVE",
"129 504 OFFCURVE",
"57 468 CURVE",
"118 347 LINE",
"156 366 OFFCURVE",
"196 376 OFFCURVE",
"241 376 CURVE SMOOTH",
"308 376 OFFCURVE",
"347 350 OFFCURVE",
"347 305 CURVE SMOOTH",
"347 163 LINE",
"347 131 OFFCURVE",
"315 112 OFFCURVE",
"261 112 CURVE SMOOTH",
"226 112 OFFCURVE",
"202 131 OFFCURVE",
"202 158 CURVE SMOOTH",
"202 187 OFFCURVE",
"228 208 OFFCURVE",
"265 208 CURVE SMOOTH",
"295 208 OFFCURVE",
"325 201 OFFCURVE",
"348 188 CURVE",
"399 274 LINE",
"348 308 OFFCURVE",
"288 325 OFFCURVE",
"238 325 CURVE SMOOTH",
"113 325 OFFCURVE",
"15 254 OFFCURVE",
"15 153 CURVE SMOOTH",
"15 56 OFFCURVE",
"110 -12 OFFCURVE",
"244 -12 CURVE SMOOTH"
);
}
);
width = 900;
},
{
components = (
{
name = e;
transform = "{1, 0, 0, 1, 386, 0}";
}
);
layerId = "84328D8E-4D54-44EF-AF5C-0364B1C28646";
paths = (
{
closed = 1;
nodes = (
"336 -12 OFFCURVE",
"449 81 OFFCURVE",
"477 215 CURVE",
"498 314 LINE SMOOTH",
"524 439 OFFCURVE",
"466 529 OFFCURVE",
"341 529 CURVE SMOOTH",
"288 529 OFFCURVE",
"218 513 OFFCURVE",
"154 480 CURVE",
"165 447 LINE",
"219 476 OFFCURVE",
"280 493 OFFCURVE",
"334 493 CURVE SMOOTH",
"455 493 OFFCURVE",
"480 403 OFFCURVE",
"462 316 CURVE SMOOTH",
"442 217 LINE",
"418 105 OFFCURVE",
"321 24 OFFCURVE",
"208 24 CURVE SMOOTH",
"113 24 OFFCURVE",
"57 77 OFFCURVE",
"73 152 CURVE SMOOTH",
"90 232 OFFCURVE",
"174 289 OFFCURVE",
"281 289 CURVE SMOOTH",
"344 289 OFFCURVE",
"412 269 OFFCURVE",
"463 249 CURVE",
"467 283 LINE",
"411 307 OFFCURVE",
"341 325 OFFCURVE",
"278 325 CURVE SMOOTH",
"155 325 OFFCURVE",
"59 255 OFFCURVE",
"38 157 CURVE SMOOTH",
"17 58 OFFCURVE",
"86 -12 OFFCURVE",
"202 -12 CURVE SMOOTH"
);
}
);
width = 984;
},
{
components = (
{
name = e;
transform = "{1, 0, 0, 1, 365, 0}";
}
);
layerId = "119329DF-C854-46E0-93EC-7E8A22DFCA4F";
paths = (
{
closed = 1;
nodes = (
"325 -12 OFFCURVE",
"456 88 OFFCURVE",
"481 210 CURVE",
"502 312 LINE SMOOTH",
"528 437 OFFCURVE",
"476 529 OFFCURVE",
"332 529 CURVE SMOOTH",
"285 529 OFFCURVE",
"221 517 OFFCURVE",
"139 480 CURVE",
"162 417 LINE",
"213 441 OFFCURVE",
"270 465 OFFCURVE",
"325 465 CURVE SMOOTH",
"434 465 OFFCURVE",
"444 388 OFFCURVE",
"429 318 CURVE SMOOTH",
"405 206 LINE",
"389 125 OFFCURVE",
"298 54 OFFCURVE",
"209 54 CURVE SMOOTH",
"125 54 OFFCURVE",
"83 89 OFFCURVE",
"96 150 CURVE SMOOTH",
"110 215 OFFCURVE",
"187 262 OFFCURVE",
"266 262 CURVE SMOOTH",
"334 262 OFFCURVE",
"395 251 OFFCURVE",
"446 231 CURVE",
"452 283 LINE",
"396 307 OFFCURVE",
"327 325 OFFCURVE",
"257 325 CURVE SMOOTH",
"148 325 OFFCURVE",
"45 259 OFFCURVE",
"25 159 CURVE SMOOTH",
"4 52 OFFCURVE",
"66 -12 OFFCURVE",
"193 -12 CURVE SMOOTH"
);
}
);
width = 938;
},
{
components = (
{
name = e;
transform = "{1, 0, 0, 1, 326, 0}";
}
);
layerId = "88AF04C7-891B-4BE3-8AB1-6195D630646B";
paths = (
{
closed = 1;
nodes = (
"348 -12 OFFCURVE",
"444 55 OFFCURVE",
"470 180 CURVE",
"503 337 LINE SMOOTH",
"526 445 OFFCURVE",
"450 529 OFFCURVE",
"321 529 CURVE SMOOTH",
"240 529 OFFCURVE",
"179 507 OFFCURVE",
"100 471 CURVE",
"148 343 LINE",
"187 362 OFFCURVE",
"231 376 OFFCURVE",
"282 376 CURVE SMOOTH",
"343 376 OFFCURVE",
"371 358 OFFCURVE",
"362 313 CURVE SMOOTH",
"333 171 LINE",
"326 138 OFFCURVE",
"283 112 OFFCURVE",
"222 112 CURVE SMOOTH",
"194 112 OFFCURVE",
"178 124 OFFCURVE",
"182 143 CURVE SMOOTH",
"190 179 OFFCURVE",
"228 208 OFFCURVE",
"271 208 CURVE SMOOTH",
"295 208 OFFCURVE",
"323 205 OFFCURVE",
"344 192 CURVE",
"403 270 LINE",
"356 304 OFFCURVE",
"300 325 OFFCURVE",
"244 325 CURVE SMOOTH",
"125 325 OFFCURVE",
"20 262 OFFCURVE",
"0 168 CURVE SMOOTH",
"-22 64 OFFCURVE",
"64 -12 OFFCURVE",
"204 -12 CURVE SMOOTH"
);
}
);
width = 873;
}
);
leftKerningGroup = a;
rightKerningGroup = e;
unicode = 00E6;
},
{
color = 1;
glyphname = c;
lastChange = "2017-12-08 19:30:34 +0000";
layers = (
{
anchors = (
{
name = bottom;
position = "{310, 0}";
},
{
name = top;
position = "{300, 517}";
}
);
layerId = "35616FF6-3D9C-499B-B113-AC9E0DB5842A";
paths = (
{
closed = 1;
nodes = (
"392 -12 OFFCURVE",
"458 18 OFFCURVE",
"507 67 CURVE",
"455 118 LINE",
"420 79 OFFCURVE",
"372 55 OFFCURVE",
"320 55 CURVE SMOOTH",
"217 55 OFFCURVE",
"131 148 OFFCURVE",
"131 259 CURVE SMOOTH",
"131 369 OFFCURVE",
"217 462 OFFCURVE",
"320 462 CURVE SMOOTH",
"371 462 OFFCURVE",
"418 439 OFFCURVE",
"452 402 CURVE",
"504 453 LINE",
"455 500 OFFCURVE",
"390 529 OFFCURVE",
"320 529 CURVE SMOOTH",
"175 529 OFFCURVE",
"52 406 OFFCURVE",
"52 259 CURVE SMOOTH",
"52 112 OFFCURVE",
"175 -12 OFFCURVE",
"320 -12 CURVE SMOOTH"
);
}
);
width = 548;
},
{
anchors = (
{
name = bottom;
position = "{301, 0}";
},
{
name = top;
position = "{291, 517}";
}
);
layerId = "A0D976AB-773B-4D3A-9F7E-7A0C42AF1E7B";
paths = (
{
closed = 1;
nodes = (
"406 -12 OFFCURVE",
"479 27 OFFCURVE",
"531 87 CURVE",
"404 189 LINE",
"383 165 OFFCURVE",
"345 148 OFFCURVE",
"312 148 CURVE SMOOTH",
"253 148 OFFCURVE",
"204 199 OFFCURVE",
"204 260 CURVE SMOOTH",
"204 319 OFFCURVE",
"253 369 OFFCURVE",
"311 369 CURVE SMOOTH",
"344 369 OFFCURVE",
"381 352 OFFCURVE",
"401 329 CURVE",
"528 433 LINE",
"478 491 OFFCURVE",
"405 529 OFFCURVE",
"313 529 CURVE SMOOTH",
"154 529 OFFCURVE",
"20 406 OFFCURVE",
"20 259 CURVE SMOOTH",
"20 112 OFFCURVE",
"153 -12 OFFCURVE",
"310 -12 CURVE SMOOTH"
);
}
);
width = 541;
},
{
anchors = (
{
name = bottom;
position = "{312, 0}";
},
{
name = top;
position = "{302, 517}";
}
);
layerId = "3B040282-CF47-4846-BCAF-7BFF90FB63BC";
paths = (
{
closed = 1;
nodes = (
"388 -12 OFFCURVE",
"451 17 OFFCURVE",
"497 64 CURVE",
"472 89 LINE",
"432 49 OFFCURVE",
"378 24 OFFCURVE",
"320 24 CURVE SMOOTH",
"190 24 OFFCURVE",
"98 121 OFFCURVE",
"98 259 CURVE SMOOTH",
"98 396 OFFCURVE",
"190 493 OFFCURVE",
"320 493 CURVE SMOOTH",
"378 493 OFFCURVE",
"432 468 OFFCURVE",
"471 428 CURVE",
"497 453 LINE",
"451 500 OFFCURVE",
"388 529 OFFCURVE",
"320 529 CURVE SMOOTH",
"169 529 OFFCURVE",
"62 417 OFFCURVE",
"62 259 CURVE SMOOTH",
"62 100 OFFCURVE",
"169 -12 OFFCURVE",
"320 -12 CURVE SMOOTH"
);
}
);
width = 546;
},
{
anchors = (
{
name = bottom;
position = "{260, 0}";
},
{
name = top;
position = "{361, 517}";
}
);
layerId = "119329DF-C854-46E0-93EC-7E8A22DFCA4F";
paths = (
{
closed = 1;
nodes = (
"339 -12 OFFCURVE",
"407 13 OFFCURVE",
"469 65 CURVE",
"424 120 LINE",
"377 76 OFFCURVE",
"328 55 OFFCURVE",
"276 55 CURVE SMOOTH",
"195 55 OFFCURVE",
"126 127 OFFCURVE",
"126 213 CURVE SMOOTH",
"126 348 OFFCURVE",
"233 462 OFFCURVE",
"361 462 CURVE SMOOTH",
"409 462 OFFCURVE",
"460 438 OFFCURVE",
"484 404 CURVE",
"543 451 LINE",
"504 497 OFFCURVE",
"435 529 OFFCURVE",
"375 529 CURVE SMOOTH",
"197 529 OFFCURVE",
"48 382 OFFCURVE",
"48 208 CURVE SMOOTH",
"48 89 OFFCURVE",
"146 -12 OFFCURVE",
"263 -12 CURVE SMOOTH"
);
}
);
width = 548;
},
{
anchors = (
{
name = bottom;
position = "{269, 0}";
},
{
name = top;
position = "{370, 517}";
}
);
layerId = "84328D8E-4D54-44EF-AF5C-0364B1C28646";
paths = (
{
closed = 1;
nodes = (
"331 -12 OFFCURVE",
"410 19 OFFCURVE",
"462 63 CURVE",
"440 90 LINE",
"394 51 OFFCURVE",
"324 24 OFFCURVE",
"273 24 CURVE SMOOTH",
"169 24 OFFCURVE",
"96 96 OFFCURVE",
"96 198 CURVE SMOOTH",
"96 358 OFFCURVE",
"224 493 OFFCURVE",
"376 493 CURVE SMOOTH",
"427 493 OFFCURVE",
"483 466 OFFCURVE",
"512 429 CURVE",
"541 452 LINE",
"505 497 OFFCURVE",
"438 529 OFFCURVE",
"378 529 CURVE SMOOTH",
"205 529 OFFCURVE",
"60 376 OFFCURVE",
"60 195 CURVE SMOOTH",
"60 74 OFFCURVE",
"147 -12 OFFCURVE",
"271 -12 CURVE SMOOTH"
);
}
);
width = 556;
},
{
anchors = (
{
name = bottom;
position = "{252, 0}";
},
{
name = top;
position = "{345, 517}";
}
);
layerId = "88AF04C7-891B-4BE3-8AB1-6195D630646B";
paths = (
{
closed = 1;
nodes = (
"359 -12 OFFCURVE",
"437 21 OFFCURVE",
"501 81 CURVE",
"388 195 LINE",
"364 171 OFFCURVE",
"319 148 OFFCURVE",
"280 148 CURVE SMOOTH",
"234 148 OFFCURVE",
"202 181 OFFCURVE",
"202 225 CURVE SMOOTH",
"202 293 OFFCURVE",
"275 369 OFFCURVE",
"350 369 CURVE SMOOTH",
"376 369 OFFCURVE",
"409 358 OFFCURVE",
"424 335 CURVE",
"564 427 LINE",
"524 485 OFFCURVE",
"458 529 OFFCURVE",
"360 529 CURVE SMOOTH",
"193 529 OFFCURVE",
"21 391 OFFCURVE",
"21 222 CURVE SMOOTH",
"21 91 OFFCURVE",
"125 -12 OFFCURVE",
"269 -12 CURVE SMOOTH"
);
}
);
width = 551;
}
);
leftKerningGroup = c;
rightKerningGroup = c;
unicode = 0063;
},
{
color = 1;
glyphname = eth;
lastChange = "2017-12-08 20:34:35 +0000";
layers = (
{
layerId = "3B040282-CF47-4846-BCAF-7BFF90FB63BC";
paths = (
{
closed = 1;
nodes = (
"184 24 OFFCURVE",
"97 116 OFFCURVE",
"97 245 CURVE SMOOTH",
"97 375 OFFCURVE",
"184 467 OFFCURVE",
"307 467 CURVE SMOOTH",
"433 467 OFFCURVE",
"516 377 OFFCURVE",
"516 249 CURVE SMOOTH",
"516 117 OFFCURVE",
"429 24 OFFCURVE",
"306 24 CURVE SMOOTH"
);
},
{
closed = 1;
nodes = (
"427 524 OFFCURVE",
"485 414 CURVE",
"437 479 OFFCURVE",
"372 503 OFFCURVE",
"307 503 CURVE SMOOTH",
"163 503 OFFCURVE",
"61 397 OFFCURVE",
"61 246 CURVE SMOOTH",
"61 95 OFFCURVE",
"163 -12 OFFCURVE",
"307 -12 CURVE SMOOTH",
"451 -12 OFFCURVE",
"552 99 OFFCURVE",
"552 255 CURVE SMOOTH",
"552 440 OFFCURVE",
"400 613 OFFCURVE",
"231 713 CURVE",
"198 696 LINE",
"317 622 OFFCURVE"
);
},
{
closed = 1;
nodes = (
"441 652 LINE",
"426 685 LINE",
"186 578 LINE",
"201 545 LINE"
);
}
);
width = 615;
},
{
layerId = "35616FF6-3D9C-499B-B113-AC9E0DB5842A";
paths = (
{
closed = 1;
nodes = (
"204 56 OFFCURVE",
"131 135 OFFCURVE",
"131 247 CURVE SMOOTH",
"131 355 OFFCURVE",
"203 432 OFFCURVE",
"305 432 CURVE SMOOTH",
"413 432 OFFCURVE",
"481 348 OFFCURVE",
"481 245 CURVE SMOOTH",
"481 134 OFFCURVE",
"409 56 OFFCURVE",
"308 56 CURVE SMOOTH"
);
},
{
closed = 1;
nodes = (
"400 519 OFFCURVE",
"453 417 CURVE",
"410 468 OFFCURVE",
"356 498 OFFCURVE",
"286 498 CURVE SMOOTH",
"150 498 OFFCURVE",
"53 394 OFFCURVE",
"53 248 CURVE SMOOTH",
"53 96 OFFCURVE",
"159 -12 OFFCURVE",
"308 -12 CURVE SMOOTH",
"456 -12 OFFCURVE",
"560 104 OFFCURVE",
"560 269 CURVE SMOOTH",
"560 441 OFFCURVE",
"454 562 OFFCURVE",
"255 716 CURVE",
"179 685 LINE",
"292 609 OFFCURVE"
);
},
{
closed = 1;
nodes = (
"454 640 LINE",
"427 702 LINE",
"169 587 LINE",
"196 525 LINE"
);
}
);
width = 616;
},
{
layerId = "A0D976AB-773B-4D3A-9F7E-7A0C42AF1E7B";
paths = (
{
closed = 1;
nodes = (
"248 149 OFFCURVE",
"206 188 OFFCURVE",
"206 244 CURVE SMOOTH",
"206 299 OFFCURVE",
"247 338 OFFCURVE",
"306 338 CURVE SMOOTH",
"367 338 OFFCURVE",
"407 297 OFFCURVE",
"407 243 CURVE SMOOTH",
"407 188 OFFCURVE",
"366 149 OFFCURVE",
"307 149 CURVE SMOOTH"
);
},
{
closed = 1;
nodes = (
"342 513 OFFCURVE",
"385 425 CURVE",
"349 466 OFFCURVE",
"305 492 OFFCURVE",
"242 492 CURVE SMOOTH",
"113 492 OFFCURVE",
"22 392 OFFCURVE",
"22 251 CURVE SMOOTH",
"22 97 OFFCURVE",
"140 -12 OFFCURVE",
"306 -12 CURVE SMOOTH",
"473 -12 OFFCURVE",
"591 112 OFFCURVE",
"591 288 CURVE SMOOTH",
"591 460 OFFCURVE",
"494 573 OFFCURVE",
"288 732 CURVE",
"120 660 LINE",
"239 584 OFFCURVE"
);
},
{
closed = 1;
nodes = (
"466 638 LINE",
"427 726 LINE",
"142 599 LINE",
"181 511 LINE"
);
}
);
width = 616;
},
{
layerId = "84328D8E-4D54-44EF-AF5C-0364B1C28646";
paths = (
{
closed = 1;
nodes = (
"157 24 OFFCURVE",
"93 90 OFFCURVE",
"93 188 CURVE SMOOTH",
"93 332 OFFCURVE",
"208 467 OFFCURVE",
"359 467 CURVE SMOOTH",
"464 467 OFFCURVE",
"526 403 OFFCURVE",
"526 306 CURVE SMOOTH",
"526 162 OFFCURVE",
"410 24 OFFCURVE",
"260 24 CURVE SMOOTH"
);
},
{
closed = 1;
nodes = (
"488 525 OFFCURVE",
"522 414 CURVE",
"487 478 OFFCURVE",
"427 503 OFFCURVE",
"360 503 CURVE SMOOTH",
"191 503 OFFCURVE",
"57 353 OFFCURVE",
"57 186 CURVE SMOOTH",
"57 67 OFFCURVE",
"134 -12 OFFCURVE",
"259 -12 CURVE SMOOTH",
"433 -12 OFFCURVE",
"564 149 OFFCURVE",
"564 325 CURVE SMOOTH",
"564 483 OFFCURVE",
"458 625 OFFCURVE",
"329 712 CURVE",
"295 697 LINE",
"399 623 OFFCURVE"
);
},
{
closed = 1;
nodes = (
"528 652 LINE",
"519 685 LINE",
"258 578 LINE",
"267 545 LINE"
);
}
);
width = 625;
},
{
layerId = "119329DF-C854-46E0-93EC-7E8A22DFCA4F";
paths = (
{
closed = 1;
nodes = (
"175 56 OFFCURVE",
"123 110 OFFCURVE",
"123 193 CURVE SMOOTH",
"123 320 OFFCURVE",
"223 432 OFFCURVE",
"347 432 CURVE SMOOTH",
"436 432 OFFCURVE",
"484 373 OFFCURVE",
"484 294 CURVE SMOOTH",
"484 170 OFFCURVE",
"382 56 OFFCURVE",
"261 56 CURVE SMOOTH"
);
},
{
closed = 1;
nodes = (
"456 522 OFFCURVE",
"486 417 CURVE",
"451 466 OFFCURVE",
"403 498 OFFCURVE",
"331 498 CURVE SMOOTH",
"171 498 OFFCURVE",
"45 352 OFFCURVE",
"45 192 CURVE SMOOTH",
"45 70 OFFCURVE",
"127 -12 OFFCURVE",
"257 -12 CURVE SMOOTH",
"437 -12 OFFCURVE",
"570 159 OFFCURVE",
"570 342 CURVE SMOOTH",
"570 477 OFFCURVE",
"489 584 OFFCURVE",
"348 714 CURVE",
"270 687 LINE",
"368 611 OFFCURVE"
);
},
{
closed = 1;
nodes = (
"533 640 LINE",
"518 702 LINE",
"238 587 LINE",
"253 525 LINE"
);
}
);
width = 616;
},
{
layerId = "88AF04C7-891B-4BE3-8AB1-6195D630646B";
paths = (
{
closed = 1;
nodes = (
"229 149 OFFCURVE",
"201 172 OFFCURVE",
"201 211 CURVE SMOOTH",
"201 275 OFFCURVE",
"265 338 OFFCURVE",
"338 338 CURVE SMOOTH",
"385 338 OFFCURVE",
"412 313 OFFCURVE",
"412 277 CURVE SMOOTH",
"412 211 OFFCURVE",
"349 149 OFFCURVE",
"275 149 CURVE SMOOTH"
);
},
{
closed = 1;
nodes = (
"402 520 OFFCURVE",
"421 427 CURVE",
"390 461 OFFCURVE",
"351 492 OFFCURVE",
"281 492 CURVE SMOOTH",
"132 492 OFFCURVE",
"20 355 OFFCURVE",
"20 205 CURVE SMOOTH",
"20 76 OFFCURVE",
"116 -12 OFFCURVE",
"265 -12 CURVE SMOOTH",
"461 -12 OFFCURVE",
"606 156 OFFCURVE",
"606 358 CURVE SMOOTH",
"606 492 OFFCURVE",
"528 594 OFFCURVE",
"384 727 CURVE",
"212 664 LINE",
"316 588 OFFCURVE"
);
},
{
closed = 1;
nodes = (
"547 638 LINE",
"524 726 LINE",
"217 599 LINE",
"240 511 LINE"
);
}
);
width = 622;
}
);
unicode = 00F0;
},
{
color = 1;
glyphname = dcroat;
lastChange = "2017-12-08 20:34:48 +0000";
layers = (
{
components = (
{
name = d;
}
);
layerId = "3B040282-CF47-4846-BCAF-7BFF90FB63BC";
paths = (
{
closed = 1;
nodes = (
"590 592 LINE",
"590 628 LINE",
"300 628 LINE",
"300 592 LINE"
);
}
);
width = 623;
},
{
components = (
{
name = d;
}
);
layerId = "35616FF6-3D9C-499B-B113-AC9E0DB5842A";
paths = (
{
closed = 1;
nodes = (
"620 585 LINE",
"620 635 LINE",
"310 635 LINE",
"310 585 LINE"
);
}
);
width = 637;
},
{
components = (
{
name = d;
}
);
layerId = "A0D976AB-773B-4D3A-9F7E-7A0C42AF1E7B";
paths = (
{
closed = 1;
nodes = (
"680 565 LINE",
"680 655 LINE",
"290 655 LINE",
"290 565 LINE"
);
}
);
width = 670;
},
{
components = (
{
name = d;
}
);
layerId = "84328D8E-4D54-44EF-AF5C-0364B1C28646";
paths = (
{
closed = 1;
nodes = (
"659 592 LINE",
"666 628 LINE",
"376 628 LINE",
"369 592 LINE"
);
}
);
width = 633;
},
{
components = (
{
name = d;
}
);
layerId = "119329DF-C854-46E0-93EC-7E8A22DFCA4F";
paths = (
{
closed = 1;
nodes = (
"687 585 LINE",
"698 635 LINE",
"388 635 LINE",
"377 585 LINE"
);
}
);
width = 638;
},
{
components = (
{
name = d;
}
);
layerId = "88AF04C7-891B-4BE3-8AB1-6195D630646B";
paths = (
{
closed = 1;
nodes = (
"744 565 LINE",
"763 655 LINE",
"373 655 LINE",
"354 565 LINE"
);
}
);
width = 678;
}
);
unicode = 0111;
},
{
color = 1;
glyphname = e;
lastChange = "2017-12-08 19:30:34 +0000";
layers = (
{
anchors = (
{
name = bottom;
position = "{285, -12}";
},
{
name = top;
position = "{308, 517}";
}
);
layerId = "35616FF6-3D9C-499B-B113-AC9E0DB5842A";
paths = (
{
closed = 1;
nodes = (
"387 -12 OFFCURVE",
"478 19 OFFCURVE",
"523 68 CURVE",
"477 117 LINE",
"445 82 OFFCURVE",
"375 55 OFFCURVE",
"314 55 CURVE SMOOTH",
"202 55 OFFCURVE",
"128 144 OFFCURVE",
"128 260 CURVE SMOOTH",
"128 380 OFFCURVE",
"208 462 OFFCURVE",
"311 462 CURVE SMOOTH",
"424 462 OFFCURVE",
"480 374 OFFCURVE",
"480 268 CURVE",
"523 297 LINE",
"104 297 LINE",
"104 230 LINE",
"553 230 LINE",
"553 411 OFFCURVE",
"464 529 OFFCURVE",
"308 529 CURVE SMOOTH",
"169 529 OFFCURVE",
"53 414 OFFCURVE",
"53 260 CURVE SMOOTH",
"53 101 OFFCURVE",
"177 -12 OFFCURVE",
"315 -12 CURVE SMOOTH"
);
}
);
width = 600;
},
{
anchors = (
{
name = bottom;
position = "{303, -12}";
},
{
name = top;
position = "{295, 517}";
}
);
layerId = "A0D976AB-773B-4D3A-9F7E-7A0C42AF1E7B";
paths = (
{
closed = 1;
nodes = (
"382 -12 OFFCURVE",
"470 21 OFFCURVE",
"516 68 CURVE",
"410 175 LINE",
"376 148 OFFCURVE",
"334 132 OFFCURVE",
"295 132 CURVE SMOOTH",
"232 132 OFFCURVE",
"187 185 OFFCURVE",
"187 259 CURVE SMOOTH",
"187 333 OFFCURVE",
"232 385 OFFCURVE",
"295 385 CURVE SMOOTH",
"351 385 OFFCURVE",
"391 335 OFFCURVE",
"391 265 CURVE",
"433 314 LINE",
"76 314 LINE",
"76 213 LINE",
"559 213 LINE",
"559 412 OFFCURVE",
"461 529 OFFCURVE",
"295 529 CURVE SMOOTH",
"135 529 OFFCURVE",
"22 418 OFFCURVE",
"22 260 CURVE SMOOTH",
"22 101 OFFCURVE",
"138 -12 OFFCURVE",
"303 -12 CURVE SMOOTH"
);
}
);
width = 575;
},
{
anchors = (
{
name = bottom;
position = "{315, -12}";
},
{
name = top;
position = "{315, 517}";
}
);
layerId = "3B040282-CF47-4846-BCAF-7BFF90FB63BC";
paths = (
{
closed = 1;
nodes = (
"398 -12 OFFCURVE",
"488 21 OFFCURVE",
"531 68 CURVE",
"506 95 LINE",
"463 48 OFFCURVE",
"389 24 OFFCURVE",
"315 24 CURVE SMOOTH",
"197 24 OFFCURVE",
"97 132 OFFCURVE",
"97 260 CURVE SMOOTH",
"97 390 OFFCURVE",
"193 493 OFFCURVE",
"315 493 CURVE SMOOTH",
"441 493 OFFCURVE",
"525 401 OFFCURVE",
"525 264 CURVE",
"531 278 LINE",
"82 278 LINE",
"82 242 LINE",
"561 242 LINE",
"561 414 OFFCURVE",
"463 529 OFFCURVE",
"315 529 CURVE SMOOTH",
"173 529 OFFCURVE",
"61 411 OFFCURVE",
"61 260 CURVE SMOOTH",
"61 112 OFFCURVE",
"177 -12 OFFCURVE",
"315 -12 CURVE SMOOTH"
);
}
);
width = 615;
},
{
anchors = (
{
name = bottom;
position = "{309, -12}";
},
{
name = top;
position = "{301, 517}";
}
);
associatedMasterId = "35616FF6-3D9C-499B-B113-AC9E0DB5842A";
layerId = "0105EF15-E0E2-4DA7-8D98-E9B765EDB340";
name = "Intermediate {700, 5}";
paths = (
{
closed = 1;
nodes = (
"385 -12 OFFCURVE",
"474 20 OFFCURVE",
"520 68 CURVE",
"427 163 LINE",
"399 136 OFFCURVE",
"349 117 OFFCURVE",
"308 117 CURVE SMOOTH",
"231 117 OFFCURVE",
"178 179 OFFCURVE",
"178 260 CURVE SMOOTH",
"178 344 OFFCURVE",
"234 400 OFFCURVE",
"307 400 CURVE SMOOTH",
"385 400 OFFCURVE",
"425 343 OFFCURVE",
"425 263 CURVE",
"470 316 LINE",
"88 316 LINE",
"88 211 LINE",
"558 211 LINE",
"558 406 OFFCURVE",
"463 529 OFFCURVE",
"301 529 CURVE SMOOTH",
"150 529 OFFCURVE",
"35 416 OFFCURVE",
"35 260 CURVE SMOOTH",
"35 101 OFFCURVE",
"155 -12 OFFCURVE",
"309 -12 CURVE SMOOTH"
);
}
);
width = 593;
},
{
anchors = (
{
name = bottom;
position = "{256, -12}";
},
{
name = top;
position = "{362, 517}";
}
);
layerId = "119329DF-C854-46E0-93EC-7E8A22DFCA4F";
paths = (
{
closed = 1;
nodes = (
"326 -12 OFFCURVE",
"429 17 OFFCURVE",
"484 66 CURVE",
"444 119 LINE",
"406 84 OFFCURVE",
"333 55 OFFCURVE",
"269 55 CURVE SMOOTH",
"177 55 OFFCURVE",
"121 116 OFFCURVE",
"121 210 CURVE SMOOTH",
"121 334 OFFCURVE",
"219 462 OFFCURVE",
"358 462 CURVE SMOOTH",
"425 462 OFFCURVE",
"475 432 OFFCURVE",
"475 382 CURVE SMOOTH",
"475 328 OFFCURVE",
"418 297 OFFCURVE",
"318 297 CURVE",
"111 297 LINE",
"97 230 LINE",
"304 230 LINE",
"458 230 OFFCURVE",
"549 295 OFFCURVE",
"549 386 CURVE SMOOTH",
"549 475 OFFCURVE",
"461 529 OFFCURVE",
"364 529 CURVE SMOOTH",
"201 529 OFFCURVE",
"47 376 OFFCURVE",
"47 204 CURVE SMOOTH",
"47 75 OFFCURVE",
"134 -12 OFFCURVE",
"256 -12 CURVE SMOOTH"
);
}
);
width = 573;
},
{
anchors = (
{
name = bottom;
position = "{266, -12}";
},
{
name = top;
position = "{373, 517}";
}
);
layerId = "84328D8E-4D54-44EF-AF5C-0364B1C28646";
paths = (
{
closed = 1;
nodes = (
"346 -12 OFFCURVE",
"444 20 OFFCURVE",
"496 67 CURVE",
"475 96 LINE",
"423 49 OFFCURVE",
"345 24 OFFCURVE",
"270 24 CURVE SMOOTH",
"168 24 OFFCURVE",
"96 105 OFFCURVE",
"96 209 CURVE SMOOTH",
"96 350 OFFCURVE",
"224 493 OFFCURVE",
"370 493 CURVE SMOOTH",
"461 493 OFFCURVE",
"525 448 OFFCURVE",
"525 385 CURVE SMOOTH",
"525 318 OFFCURVE",
"451 278 OFFCURVE",
"325 278 CURVE",
"90 278 LINE",
"83 242 LINE",
"318 242 LINE",
"471 242 OFFCURVE",
"561 296 OFFCURVE",
"561 387 CURVE SMOOTH",
"561 470 OFFCURVE",
"484 529 OFFCURVE",
"376 529 CURVE SMOOTH",
"211 529 OFFCURVE",
"60 371 OFFCURVE",
"60 205 CURVE SMOOTH",
"60 82 OFFCURVE",
"144 -12 OFFCURVE",
"265 -12 CURVE SMOOTH"
);
}
);
width = 598;
},
{
anchors = (
{
name = bottom;
position = "{263, -12}";
},
{
name = top;
position = "{345, 517}";
}
);
layerId = "88AF04C7-891B-4BE3-8AB1-6195D630646B";
paths = (
{
closed = 1;
nodes = (
"336 -12 OFFCURVE",
"428 16 OFFCURVE",
"484 63 CURVE",
"391 180 LINE",
"353 153 OFFCURVE",
"306 132 OFFCURVE",
"260 132 CURVE SMOOTH",
"213 132 OFFCURVE",
"185 163 OFFCURVE",
"185 213 CURVE SMOOTH",
"185 295 OFFCURVE",
"253 385 OFFCURVE",
"338 385 CURVE SMOOTH",
"368 385 OFFCURVE",
"390 374 OFFCURVE",
"390 359 CURVE SMOOTH",
"389 331 OFFCURVE",
"359 314 OFFCURVE",
"310 314 CURVE",
"92 314 LINE",
"71 213 LINE",
"289 213 LINE",
"450 207 OFFCURVE",
"545 272 OFFCURVE",
"545 388 CURVE SMOOTH",
"545 471 OFFCURVE",
"461 529 OFFCURVE",
"343 529 CURVE SMOOTH",
"163 529 OFFCURVE",
"23 387 OFFCURVE",
"23 210 CURVE SMOOTH",
"23 78 OFFCURVE",
"115 -12 OFFCURVE",
"263 -12 CURVE SMOOTH"
);
}
);
width = 548;
},
{
anchors = (
{
name = bottom;
position = "{259, -12}";
},
{
name = top;
position = "{350, 517}";
}
);
associatedMasterId = "119329DF-C854-46E0-93EC-7E8A22DFCA4F";
layerId = "5020D4BE-9D5E-4601-AFA3-7C952DB9121D";
name = "Intermediate {700, 5, 5}";
paths = (
{
closed = 1;
nodes = (
"344 -12 OFFCURVE",
"427 16 OFFCURVE",
"482 64 CURVE",
"402 168 LINE",
"363 136 OFFCURVE",
"311 117 OFFCURVE",
"262 117 CURVE SMOOTH",
"200 117 OFFCURVE",
"168 145 OFFCURVE",
"168 206 CURVE SMOOTH",
"168 317 OFFCURVE",
"239 401 OFFCURVE",
"344 401 CURVE SMOOTH",
"378 401 OFFCURVE",
"402 384 OFFCURVE",
"402 361 CURVE SMOOTH",
"402 333 OFFCURVE",
"369 316 OFFCURVE",
"312 316 CURVE",
"98 316 LINE",
"80 211 LINE",
"293 211 LINE",
"451 207 OFFCURVE",
"545 273 OFFCURVE",
"545 388 CURVE SMOOTH",
"545 471 OFFCURVE",
"464 529 OFFCURVE",
"350 529 CURVE SMOOTH",
"178 529 OFFCURVE",
"32 384 OFFCURVE",
"32 205 CURVE SMOOTH",
"32 76 OFFCURVE",
"121 -12 OFFCURVE",
"259 -12 CURVE SMOOTH"
);
}
);
width = 563;
}
);
leftKerningGroup = e;
rightKerningGroup = e;
unicode = 0065;
},
{
color = 1;
glyphname = f;
lastChange = "2017-12-08 19:30:32 +0000";
layers = (
{
layerId = "35616FF6-3D9C-499B-B113-AC9E0DB5842A";
paths = (
{
closed = 1;
nodes = (
"195 0 LINE",
"195 588 LINE SMOOTH",
"195 626 OFFCURVE",
"221 653 OFFCURVE",
"251 653 CURVE SMOOTH",
"274 653 OFFCURVE",
"294 644 OFFCURVE",
"305 632 CURVE",
"342 687 LINE",
"315 708 OFFCURVE",
"281 720 OFFCURVE",
"246 720 CURVE SMOOTH",
"172 720 OFFCURVE",
"120 665 OFFCURVE",
"120 588 CURVE SMOOTH",
"120 0 LINE"
);
},
{
closed = 1;
nodes = (
"322 450 LINE",
"322 517 LINE",
"39 517 LINE",
"39 450 LINE"
);
}
);
width = 362;
},
{
layerId = "A0D976AB-773B-4D3A-9F7E-7A0C42AF1E7B";
paths = (
{
closed = 1;
nodes = (
"266 0 LINE",
"266 517 LINE SMOOTH",
"266 548 OFFCURVE",
"284 570 OFFCURVE",
"310 570 CURVE SMOOTH",
"328 570 OFFCURVE",
"347 564 OFFCURVE",
"357 555 CURVE",
"390 667 LINE",
"358 698 OFFCURVE",
"303 720 OFFCURVE",
"257 720 CURVE SMOOTH",
"154 720 OFFCURVE",
"82 648 OFFCURVE",
"82 545 CURVE SMOOTH",
"82 0 LINE"
);
},
{
closed = 1;
nodes = (
"368 365 LINE",
"368 517 LINE",
"17 517 LINE",
"17 365 LINE"
);
}
);
width = 385;
},
{
layerId = "3B040282-CF47-4846-BCAF-7BFF90FB63BC";
paths = (
{
closed = 1;
nodes = (
"171 0 LINE",
"171 588 LINE SMOOTH",
"171 644 OFFCURVE",
"201 684 OFFCURVE",
"243 684 CURVE SMOOTH",
"273 684 OFFCURVE",
"297 676 OFFCURVE",
"317 659 CURVE",
"337 687 LINE",
"309 709 OFFCURVE",
"277 720 OFFCURVE",
"241 720 CURVE SMOOTH",
"179 720 OFFCURVE",
"135 665 OFFCURVE",
"135 588 CURVE SMOOTH",
"135 0 LINE"
);
},
{
closed = 1;
nodes = (
"316 481 LINE",
"316 517 LINE",
"44 517 LINE",
"44 481 LINE"
);
}
);
width = 361;
},
{
layerId = "119329DF-C854-46E0-93EC-7E8A22DFCA4F";
paths = (
{
closed = 1;
nodes = (
"141 0 LINE",
"263 585 LINE SMOOTH",
"271 623 OFFCURVE",
"305 653 OFFCURVE",
"341 653 CURVE SMOOTH",
"358 653 OFFCURVE",
"377 646 OFFCURVE",
"385 634 CURVE",
"430 685 LINE",
"406 706 OFFCURVE",
"374 720 OFFCURVE",
"337 720 CURVE SMOOTH",
"265 720 OFFCURVE",
"205 668 OFFCURVE",
"189 591 CURVE SMOOTH",
"66 0 LINE"
);
},
{
closed = 1;
nodes = (
"362 450 LINE",
"376 517 LINE",
"93 517 LINE",
"79 450 LINE"
);
}
);
width = 360;
},
{
layerId = "84328D8E-4D54-44EF-AF5C-0364B1C28646";
paths = (
{
closed = 1;
nodes = (
"121 0 LINE",
"243 587 LINE SMOOTH",
"255 643 OFFCURVE",
"293 684 OFFCURVE",
"344 684 CURVE SMOOTH",
"365 684 OFFCURVE",
"389 677 OFFCURVE",
"406 660 CURVE",
"430 686 LINE",
"406 708 OFFCURVE",
"376 720 OFFCURVE",
"338 720 CURVE SMOOTH",
"278 720 OFFCURVE",
"224 666 OFFCURVE",
"208 589 CURVE SMOOTH",
"85 0 LINE"
);
},
{
closed = 1;
nodes = (
"367 481 LINE",
"374 517 LINE",
"102 517 LINE",
"95 481 LINE"
);
}
);
width = 369;
},
{
layerId = "88AF04C7-891B-4BE3-8AB1-6195D630646B";
paths = (
{
closed = 1;
nodes = (
"215 0 LINE",
"321 509 LINE SMOOTH",
"327 535 OFFCURVE",
"351 570 OFFCURVE",
"396 570 CURVE SMOOTH",
"404 570 OFFCURVE",
"417 569 OFFCURVE",
"428 560 CURVE",
"474 662 LINE",
"447 693 OFFCURVE",
"398 720 OFFCURVE",
"339 720 CURVE SMOOTH",
"249 720 OFFCURVE",
"168 656 OFFCURVE",
"146 553 CURVE SMOOTH",
"31 0 LINE"
);
},
{
closed = 1;
nodes = (
"393 365 LINE",
"425 517 LINE",
"74 517 LINE",
"42 365 LINE"
);
}
);
width = 391;
}
);
leftKerningGroup = f;
rightKerningGroup = f;
unicode = 0066;
},
{
color = 1;
glyphname = g;
lastChange = "2017-12-08 20:36:43 +0000";
layers = (
{
anchors = (
{
name = bottom;
position = "{299, -172}";
},
{
name = top;
position = "{308, 517}";
}
);
layerId = "35616FF6-3D9C-499B-B113-AC9E0DB5842A";
paths = (
{
closed = 1;
nodes = (
"478 55 LINE SMOOTH",
"478 -46 OFFCURVE",
"408 -105 OFFCURVE",
"289 -105 CURVE SMOOTH",
"225 -105 OFFCURVE",
"163 -82 OFFCURVE",
"123 -44 CURVE",
"90 -103 LINE",
"137 -143 OFFCURVE",
"215 -172 OFFCURVE",
"299 -172 CURVE SMOOTH",
"448 -172 OFFCURVE",
"553 -78 OFFCURVE",
"553 55 CURVE SMOOTH",
"553 517 LINE",
"478 517 LINE"
);
},
{
closed = 1;
nodes = (
"203 105 OFFCURVE",
"131 179 OFFCURVE",
"131 284 CURVE SMOOTH",
"131 388 OFFCURVE",
"203 462 OFFCURVE",
"304 462 CURVE SMOOTH",
"406 462 OFFCURVE",
"478 388 OFFCURVE",
"478 284 CURVE SMOOTH",
"478 179 OFFCURVE",
"406 105 OFFCURVE",
"304 105 CURVE SMOOTH"
);
},
{
closed = 1;
nodes = (
"493 401 LINE",
"455 480 OFFCURVE",
"383 529 OFFCURVE",
"290 529 CURVE SMOOTH",
"151 529 OFFCURVE",
"52 428 OFFCURVE",
"52 284 CURVE SMOOTH",
"52 140 OFFCURVE",
"151 38 OFFCURVE",
"290 38 CURVE SMOOTH",
"383 38 OFFCURVE",
"455 87 OFFCURVE",
"493 166 CURVE"
);
}
);
width = 634;
},
{
anchors = (
{
name = bottom;
position = "{306, -172}";
},
{
name = top;
position = "{313, 517}";
}
);
layerId = "A0D976AB-773B-4D3A-9F7E-7A0C42AF1E7B";
paths = (
{
closed = 1;
nodes = (
"406 65 LINE SMOOTH",
"406 21 OFFCURVE",
"352 -12 OFFCURVE",
"275 -12 CURVE SMOOTH",
"218 -12 OFFCURVE",
"158 5 OFFCURVE",
"128 30 CURVE",
"65 -103 LINE",
"120 -143 OFFCURVE",
"210 -172 OFFCURVE",
"306 -172 CURVE SMOOTH",
"478 -172 OFFCURVE",
"600 -78 OFFCURVE",
"600 55 CURVE SMOOTH",
"600 517 LINE",
"406 517 LINE"
);
},
{
closed = 1;
nodes = (
"259 198 OFFCURVE",
"220 234 OFFCURVE",
"220 284 CURVE SMOOTH",
"220 334 OFFCURVE",
"259 369 OFFCURVE",
"313 369 CURVE SMOOTH",
"367 369 OFFCURVE",
"406 334 OFFCURVE",
"406 284 CURVE SMOOTH",
"406 234 OFFCURVE",
"367 198 OFFCURVE",
"313 198 CURVE SMOOTH"
);
},
{
closed = 1;
nodes = (
"419 439 LINE",
"396 489 OFFCURVE",
"318 529 OFFCURVE",
"246 529 CURVE SMOOTH",
"121 529 OFFCURVE",
"22 428 OFFCURVE",
"22 284 CURVE SMOOTH",
"22 140 OFFCURVE",
"121 38 OFFCURVE",
"246 38 CURVE SMOOTH",
"316 38 OFFCURVE",
"385 72 OFFCURVE",
"425 129 CURVE"
);
}
);
width = 651;
},
{
anchors = (
{
name = bottom;
position = "{303, -172}";
},
{
name = top;
position = "{306, 517}";
}
);
layerId = "3B040282-CF47-4846-BCAF-7BFF90FB63BC";
paths = (
{
closed = 1;
nodes = (
"502 55 LINE SMOOTH",
"502 -57 OFFCURVE",
"418 -136 OFFCURVE",
"300 -136 CURVE SMOOTH",
"235 -136 OFFCURVE",
"157 -109 OFFCURVE",
"112 -71 CURVE",
"94 -103 LINE",
"141 -143 OFFCURVE",
"228 -172 OFFCURVE",
"303 -172 CURVE SMOOTH",
"441 -172 OFFCURVE",
"538 -78 OFFCURVE",
"538 55 CURVE SMOOTH",
"538 517 LINE",
"502 517 LINE"
);
},
{
closed = 1;
nodes = (
"186 74 OFFCURVE",
"96 170 OFFCURVE",
"96 284 CURVE SMOOTH",
"96 397 OFFCURVE",
"186 493 OFFCURVE",
"293 493 CURVE SMOOTH",
"411 493 OFFCURVE",
"502 406 OFFCURVE",
"502 284 CURVE SMOOTH",
"502 161 OFFCURVE",
"411 74 OFFCURVE",
"293 74 CURVE SMOOTH"
);
},
{
closed = 1;
nodes = (
"507 382 LINE",
"472 479 OFFCURVE",
"389 529 OFFCURVE",
"286 529 CURVE SMOOTH",
"163 529 OFFCURVE",
"60 417 OFFCURVE",
"60 284 CURVE SMOOTH",
"60 150 OFFCURVE",
"163 38 OFFCURVE",
"286 38 CURVE SMOOTH",
"385 38 OFFCURVE",
"472 89 OFFCURVE",
"507 186 CURVE"
);
}
);
width = 628;
},
{
anchors = (
{
name = bottom;
position = "{214, -172}";
},
{
name = top;
position = "{371, 517}";
}
);
layerId = "119329DF-C854-46E0-93EC-7E8A22DFCA4F";
paths = (
{
closed = 1;
nodes = (
"437 58 LINE SMOOTH",
"416 -43 OFFCURVE",
"328 -105 OFFCURVE",
"212 -105 CURVE SMOOTH",
"145 -105 OFFCURVE",
"90 -84 OFFCURVE",
"58 -46 CURVE",
"17 -101 LINE",
"56 -141 OFFCURVE",
"128 -172 OFFCURVE",
"214 -172 CURVE SMOOTH",
"357 -172 OFFCURVE",
"481 -86 OFFCURVE",
"510 52 CURVE SMOOTH",
"607 517 LINE",
"532 517 LINE"
);
},
{
closed = 1;
nodes = (
"182 105 OFFCURVE",
"131 157 OFFCURVE",
"131 240 CURVE SMOOTH",
"131 356 OFFCURVE",
"232 462 OFFCURVE",
"353 462 CURVE SMOOTH",
"437 462 OFFCURVE",
"489 411 OFFCURVE",
"489 328 CURVE SMOOTH",
"489 215 OFFCURVE",
"391 105 OFFCURVE",
"267 105 CURVE SMOOTH"
);
},
{
closed = 1;
nodes = (
"521 398 LINE",
"501 473 OFFCURVE",
"442 529 OFFCURVE",
"340 529 CURVE SMOOTH",
"179 529 OFFCURVE",
"52 387 OFFCURVE",
"52 234 CURVE SMOOTH",
"52 114 OFFCURVE",
"129 38 OFFCURVE",
"248 38 CURVE SMOOTH",
"341 38 OFFCURVE",
"420 84 OFFCURVE",
"475 163 CURVE"
);
}
);
width = 634;
},
{
anchors = (
{
name = bottom;
position = "{221, -172}";
},
{
name = top;
position = "{366, 517}";
}
);
layerId = "84328D8E-4D54-44EF-AF5C-0364B1C28646";
paths = (
{
closed = 1;
nodes = (
"464 56 LINE SMOOTH",
"441 -56 OFFCURVE",
"338 -136 OFFCURVE",
"221 -136 CURVE SMOOTH",
"155 -136 OFFCURVE",
"83 -110 OFFCURVE",
"46 -72 CURVE",
"24 -102 LINE",
"63 -142 OFFCURVE",
"144 -172 OFFCURVE",
"221 -172 CURVE SMOOTH",
"357 -172 OFFCURVE",
"472 -79 OFFCURVE",
"500 54 CURVE SMOOTH",
"596 517 LINE",
"560 517 LINE"
);
},
{
closed = 1;
nodes = (
"162 74 OFFCURVE",
"100 145 OFFCURVE",
"100 237 CURVE SMOOTH",
"100 365 OFFCURVE",
"219 493 OFFCURVE",
"354 493 CURVE SMOOTH",
"451 493 OFFCURVE",
"517 426 OFFCURVE",
"517 332 CURVE SMOOTH",
"517 199 OFFCURVE",
"395 74 OFFCURVE",
"261 74 CURVE SMOOTH"
);
},
{
closed = 1;
nodes = (
"536 381 LINE",
"523 476 OFFCURVE",
"444 529 OFFCURVE",
"352 529 CURVE SMOOTH",
"201 529 OFFCURVE",
"64 385 OFFCURVE",
"64 232 CURVE SMOOTH",
"64 121 OFFCURVE",
"140 38 OFFCURVE",
"253 38 CURVE SMOOTH",
"338 38 OFFCURVE",
"441 86 OFFCURVE",
"496 185 CURVE"
);
}
);
width = 637;
},
{
anchors = (
{
name = bottom;
position = "{232, -172}";
},
{
name = top;
position = "{389, 517}";
}
);
layerId = "88AF04C7-891B-4BE3-8AB1-6195D630646B";
paths = (
{
closed = 1;
nodes = (
"371 73 LINE SMOOTH",
"361 28 OFFCURVE",
"292 -12 OFFCURVE",
"207 -12 CURVE SMOOTH",
"160 -12 OFFCURVE",
"103 0 OFFCURVE",
"78 25 CURVE",
"-3 -99 LINE",
"46 -139 OFFCURVE",
"130 -172 OFFCURVE",
"232 -172 CURVE SMOOTH",
"396 -172 OFFCURVE",
"531 -88 OFFCURVE",
"559 47 CURVE SMOOTH",
"657 517 LINE",
"463 517 LINE"
);
},
{
closed = 1;
nodes = (
"252 198 OFFCURVE",
"224 216 OFFCURVE",
"224 256 CURVE SMOOTH",
"224 316 OFFCURVE",
"287 369 OFFCURVE",
"353 369 CURVE SMOOTH",
"394 369 OFFCURVE",
"419 349 OFFCURVE",
"419 312 CURVE SMOOTH",
"419 252 OFFCURVE",
"355 198 OFFCURVE",
"290 198 CURVE SMOOTH"
);
},
{
closed = 1;
nodes = (
"456 432 LINE",
"442 483 OFFCURVE",
"372 529 OFFCURVE",
"290 529 CURVE SMOOTH",
"143 529 OFFCURVE",
"27 385 OFFCURVE",
"27 238 CURVE SMOOTH",
"27 120 OFFCURVE",
"102 38 OFFCURVE",
"215 38 CURVE SMOOTH",
"280 38 OFFCURVE",
"352 66 OFFCURVE",
"404 123 CURVE"
);
}
);
width = 657;
}
);
leftKerningGroup = g;
rightKerningGroup = g;
unicode = 0067;
},
{
color = 1;
glyphname = idotless;
lastChange = "2017-12-08 21:12:03 +0000";
layers = (
{
anchors = (
{
name = _loop_left;
position = "{82, 259}";
},
{
name = _r_shoulder;
position = "{157, 291}";
},
{
name = _shoulder;
position = "{157, 329}";
},
{
name = bottom;
position = "{157, 0}";
},
{
name = top;
position = "{120, 517}";
}
);
layerId = "35616FF6-3D9C-499B-B113-AC9E0DB5842A";
paths = (
{
closed = 1;
nodes = (
"157 0 LINE",
"157 517 LINE",
"82 517 LINE",
"82 0 LINE"
);
}
);
width = 239;
},
{
anchors = (
{
name = _loop_left;
position = "{51, 259}";
},
{
name = _r_shoulder;
position = "{244, 219}";
},
{
name = _shoulder;
position = "{244, 290}";
},
{
name = bottom;
position = "{244, 0}";
},
{
name = top;
position = "{148, 517}";
}
);
layerId = "A0D976AB-773B-4D3A-9F7E-7A0C42AF1E7B";
paths = (
{
closed = 1;
nodes = (
"244 0 LINE",
"244 517 LINE",
"51 517 LINE",
"51 0 LINE"
);
}
);
width = 295;
},
{
anchors = (
{
name = _loop_left;
position = "{90, 259}";
},
{
name = _r_shoulder;
position = "{126, 289}";
},
{
name = _shoulder;
position = "{126, 330}";
},
{
name = bottom;
position = "{126, 0}";
},
{
name = top;
position = "{108, 517}";
}
);
layerId = "3B040282-CF47-4846-BCAF-7BFF90FB63BC";
paths = (
{
closed = 1;
nodes = (
"126 0 LINE",
"126 517 LINE",
"90 517 LINE",
"90 0 LINE"
);
}
);
width = 216;
},
{
anchors = (
{
name = _loop_left;
position = "{87, 318}";
},
{
name = _r_shoulder;
position = "{162, 287}";
},
{
name = _shoulder;
position = "{170, 326}";
},
{
name = bottom;
position = "{102, 0}";
},
{
name = top;
position = "{173, 517}";
}
);
guideLines = (
{
position = "{292, 0}";
}
);
layerId = "119329DF-C854-46E0-93EC-7E8A22DFCA4F";
paths = (
{
closed = 1;
nodes = (
"102 0 LINE",
"210 517 LINE",
"135 517 LINE",
"27 0 LINE"
);
}
);
width = 237;
},
{
anchors = (
{
name = _loop_left;
position = "{99, 321}";
},
{
name = _r_shoulder;
position = "{136, 288}";
},
{
name = _shoulder;
position = "{144, 329}";
},
{
name = bottom;
position = "{76, 0}";
},
{
name = top;
position = "{166, 517}";
}
);
guideLines = (
{
position = "{821, 0}";
}
);
layerId = "84328D8E-4D54-44EF-AF5C-0364B1C28646";
paths = (
{
closed = 1;
nodes = (
"76 0 LINE",
"184 517 LINE",
"148 517 LINE",
"40 0 LINE"
);
}
);
width = 224;
},
{
anchors = (
{
name = _loop_left;
position = "{59, 298}";
},
{
name = _r_shoulder;
position = "{237, 211}";
},
{
name = _shoulder;
position = "{251, 282}";
},
{
name = bottom;
position = "{193, 0}";
},
{
name = top;
position = "{205, 517}";
}
);
guideLines = (
{
position = "{1704, 0}";
}
);
layerId = "88AF04C7-891B-4BE3-8AB1-6195D630646B";
paths = (
{
closed = 1;
nodes = (
"193 0 LINE",
"301 517 LINE",
"108 517 LINE",
"0 0 LINE"
);
}
);
width = 301;
}
);
leftKerningGroup = i;
rightKerningGroup = i;
unicode = 0131;
},
{
color = 1;
glyphname = jdotless;
lastChange = "2017-12-08 19:30:33 +0000";
layers = (
{
anchors = (
{
name = top;
position = "{120, 517}";
}
);
layerId = "35616FF6-3D9C-499B-B113-AC9E0DB5842A";
paths = (
{
closed = 1;
nodes = (
"105 -178 OFFCURVE",
"157 -123 OFFCURVE",
"157 -46 CURVE SMOOTH",
"157 517 LINE",
"82 517 LINE",
"82 -46 LINE SMOOTH",
"82 -84 OFFCURVE",
"59 -111 OFFCURVE",
"26 -111 CURVE SMOOTH",
"5 -111 OFFCURVE",
"-22 -106 OFFCURVE",
"-38 -100 CURVE",
"-50 -162 LINE",
"-30 -171 OFFCURVE",
"3 -178 OFFCURVE",
"31 -178 CURVE SMOOTH"
);
}
);
width = 239;
},
{
anchors = (
{
name = top;
position = "{144, 517}";
}
);
layerId = "A0D976AB-773B-4D3A-9F7E-7A0C42AF1E7B";
paths = (
{
closed = 1;
nodes = (
"167 -178 OFFCURVE",
"243 -102 OFFCURVE",
"243 6 CURVE SMOOTH",
"243 517 LINE",
"50 517 LINE",
"50 30 LINE SMOOTH",
"50 -1 OFFCURVE",
"32 -23 OFFCURVE",
"6 -23 CURVE SMOOTH",
"-10 -23 OFFCURVE",
"-29 -20 OFFCURVE",
"-41 -15 CURVE",
"-59 -154 LINE",
"-31 -168 OFFCURVE",
"18 -178 OFFCURVE",
"59 -178 CURVE SMOOTH"
);
}
);
width = 294;
},
{
anchors = (
{
name = top;
position = "{107, 517}";
}
);
layerId = "3B040282-CF47-4846-BCAF-7BFF90FB63BC";
paths = (
{
closed = 1;
nodes = (
"82 -178 OFFCURVE",
"126 -127 OFFCURVE",
"126 -56 CURVE SMOOTH",
"126 517 LINE",
"90 517 LINE",
"90 -56 LINE SMOOTH",
"90 -106 OFFCURVE",
"60 -142 OFFCURVE",
"17 -142 CURVE SMOOTH",
"-7 -142 OFFCURVE",
"-37 -136 OFFCURVE",
"-55 -128 CURVE",
"-62 -162 LINE",
"-41 -171 OFFCURVE",
"-8 -178 OFFCURVE",
"19 -178 CURVE SMOOTH"
);
}
);
width = 216;
},
{
anchors = (
{
name = top;
position = "{173, 517}";
}
);
layerId = "119329DF-C854-46E0-93EC-7E8A22DFCA4F";
paths = (
{
closed = 1;
nodes = (
"16 -178 OFFCURVE",
"76 -126 OFFCURVE",
"92 -49 CURVE SMOOTH",
"210 517 LINE",
"135 517 LINE",
"19 -43 LINE SMOOTH",
"11 -81 OFFCURVE",
"-21 -111 OFFCURVE",
"-57 -111 CURVE SMOOTH",
"-75 -111 OFFCURVE",
"-101 -107 OFFCURVE",
"-116 -101 CURVE",
"-136 -161 LINE",
"-117 -170 OFFCURVE",
"-86 -178 OFFCURVE",
"-55 -178 CURVE SMOOTH"
);
}
);
width = 237;
},
{
anchors = (
{
name = top;
position = "{166, 517}";
}
);
layerId = "84328D8E-4D54-44EF-AF5C-0364B1C28646";
paths = (
{
closed = 1;
nodes = (
"-3 -178 OFFCURVE",
"50 -128 OFFCURVE",
"65 -57 CURVE SMOOTH",
"184 517 LINE",
"148 517 LINE",
"29 -55 LINE SMOOTH",
"19 -105 OFFCURVE",
"-21 -142 OFFCURVE",
"-65 -142 CURVE SMOOTH",
"-88 -142 OFFCURVE",
"-116 -137 OFFCURVE",
"-133 -129 CURVE",
"-144 -161 LINE",
"-125 -170 OFFCURVE",
"-93 -178 OFFCURVE",
"-65 -178 CURVE SMOOTH"
);
}
);
width = 224;
},
{
anchors = (
{
name = top;
position = "{205, 517}";
}
);
layerId = "88AF04C7-891B-4BE3-8AB1-6195D630646B";
paths = (
{
closed = 1;
nodes = (
"87 -178 OFFCURVE",
"171 -110 OFFCURVE",
"193 -2 CURVE SMOOTH",
"301 517 LINE",
"108 517 LINE",
"8 38 LINE SMOOTH",
"2 7 OFFCURVE",
"-29 -23 OFFCURVE",
"-61 -23 CURVE SMOOTH",
"-71 -23 OFFCURVE",
"-89 -23 OFFCURVE",
"-100 -18 CURVE",
"-135 -151 LINE",
"-109 -165 OFFCURVE",
"-62 -178 OFFCURVE",
"-15 -178 CURVE SMOOTH"
);
}
);
width = 301;
}
);
leftKerningGroup = j;
rightKerningGroup = j;
unicode = 0237;
},
{
color = 1;
glyphname = k;
lastChange = "2017-12-08 20:47:23 +0000";
layers = (
{
anchors = (
{
name = bottom;
position = "{269, 0}";
}
);
layerId = "35616FF6-3D9C-499B-B113-AC9E0DB5842A";
paths = (
{
closed = 1;
nodes = (
"157 0 LINE",
"157 137 LINE",
"250 229 LINE",
"429 0 LINE",
"523 0 LINE",
"303 280 LINE",
"536 517 LINE",
"440 517 LINE",
"157 231 LINE",
"157 699 LINE",
"82 699 LINE",
"82 0 LINE"
);
}
);
width = 571;
},
{
anchors = (
{
name = bottom;
position = "{308, 0}";
}
);
layerId = "A0D976AB-773B-4D3A-9F7E-7A0C42AF1E7B";
paths = (
{
closed = 1;
nodes = (
"244 0 LINE",
"244 119 LINE",
"286 171 LINE",
"381 0 LINE",
"597 0 LINE",
"412 294 LINE",
"593 517 LINE",
"377 517 LINE",
"244 335 LINE",
"244 699 LINE",
"51 699 LINE",
"51 0 LINE"
);
}
);
width = 603;
},
{
anchors = (
{
name = bottom;
position = "{270, 0}";
}
);
layerId = "3B040282-CF47-4846-BCAF-7BFF90FB63BC";
paths = (
{
closed = 1;
nodes = (
"126 0 LINE",
"126 134 LINE",
"244 255 LINE",
"443 0 LINE",
"489 0 LINE",
"269 280 LINE",
"501 517 LINE",
"451 517 LINE",
"126 186 LINE",
"126 699 LINE",
"90 699 LINE",
"90 0 LINE"
);
}
);
width = 544;
},
{
anchors = (
{
name = bottom;
position = "{222, 0}";
}
);
layerId = "119329DF-C854-46E0-93EC-7E8A22DFCA4F";
paths = (
{
closed = 1;
nodes = (
"102 0 LINE",
"131 138 LINE",
"242 229 LINE",
"373 0 LINE",
"464 0 LINE",
"304 280 LINE",
"587 517 LINE",
"489 517 LINE",
"151 234 LINE",
"247 699 LINE",
"172 699 LINE",
"27 0 LINE"
);
}
);
width = 567;
},
{
anchors = (
{
name = bottom;
position = "{226, 0}";
}
);
layerId = "84328D8E-4D54-44EF-AF5C-0364B1C28646";
paths = (
{
closed = 1;
nodes = (
"76 0 LINE",
"104 134 LINE",
"247 255 LINE",
"392 0 LINE",
"437 0 LINE",
"276 280 LINE",
"558 517 LINE",
"506 517 LINE",
"115 187 LINE",
"221 699 LINE",
"185 699 LINE",
"40 0 LINE"
);
}
);
width = 551;
},
{
anchors = (
{
name = bottom;
position = "{261, 0}";
}
);
layerId = "88AF04C7-891B-4BE3-8AB1-6195D630646B";
paths = (
{
closed = 1;
nodes = (
"193 0 LINE",
"218 120 LINE",
"272 171 LINE",
"329 0 LINE",
"540 0 LINE",
"419 294 LINE",
"648 517 LINE",
"428 517 LINE",
"264 343 LINE",
"338 699 LINE",
"145 699 LINE",
"0 0 LINE"
);
}
);
width = 604;
}
);
leftKerningGroup = l;
rightKerningGroup = k;
unicode = 006B;
},
{
color = 1;
glyphname = lslash;
lastChange = "2017-12-08 20:50:19 +0000";
layers = (
{
components = (
{
name = l;
transform = "{1, 0, 0, 1, 37, 0}";
}
);
layerId = "3B040282-CF47-4846-BCAF-7BFF90FB63BC";
paths = (
{
closed = 1;
nodes = (
"242 349 LINE",
"242 390 LINE",
"47 290 LINE",
"47 249 LINE"
);
}
);
width = 289;
},
{
components = (
{
name = l;
transform = "{1, 0, 0, 1, 41, 0}";
}
);
layerId = "35616FF6-3D9C-499B-B113-AC9E0DB5842A";
paths = (
{
closed = 1;
nodes = (
"276 354 LINE",
"276 429 LINE",
"43 309 LINE",
"43 234 LINE"
);
}
);
width = 318;
},
{
components = (
{
name = l;
transform = "{1, 0, 0, 1, 46, 0}";
}
);
layerId = "A0D976AB-773B-4D3A-9F7E-7A0C42AF1E7B";
paths = (
{
closed = 1;
nodes = (
"369 350 LINE",
"369 517 LINE",
"21 345 LINE",
"21 178 LINE"
);
}
);
width = 387;
},
{
components = (
{
name = l;
transform = "{1, 0, 0, 1, 39, 0}";
}
);
layerId = "84328D8E-4D54-44EF-AF5C-0364B1C28646";
paths = (
{
closed = 1;
nodes = (
"266 349 LINE",
"274 390 LINE",
"59 290 LINE",
"51 249 LINE"
);
}
);
width = 299;
},
{
components = (
{
name = l;
transform = "{1, 0, 0, 1, 42, 0}";
}
);
layerId = "119329DF-C854-46E0-93EC-7E8A22DFCA4F";
paths = (
{
closed = 1;
nodes = (
"297 354 LINE",
"311 429 LINE",
"53 309 LINE",
"39 234 LINE"
);
}
);
width = 318;
},
{
components = (
{
name = l;
transform = "{1, 0, 0, 1, 48, 0}";
}
);
layerId = "88AF04C7-891B-4BE3-8AB1-6195D630646B";
paths = (
{
closed = 1;
nodes = (
"393 350 LINE",
"426 517 LINE",
"42 345 LINE",
"10 178 LINE"
);
}
);
width = 396;
}
);
unicode = 0142;
},
{
color = 1;
glyphname = o;
lastChange = "2017-12-08 19:30:34 +0000";
layers = (
{
anchors = (
{
name = top;
position = "{320, 517}";
}
);
layerId = "35616FF6-3D9C-499B-B113-AC9E0DB5842A";
paths = (
{
closed = 1;
nodes = (
"465 -12 OFFCURVE",
"587 112 OFFCURVE",
"587 259 CURVE SMOOTH",
"587 406 OFFCURVE",
"465 529 OFFCURVE",
"320 529 CURVE SMOOTH",
"175 529 OFFCURVE",
"52 406 OFFCURVE",
"52 259 CURVE SMOOTH",
"52 112 OFFCURVE",
"175 -12 OFFCURVE",
"320 -12 CURVE SMOOTH"
);
},
{
closed = 1;
nodes = (
"217 55 OFFCURVE",
"131 148 OFFCURVE",
"131 259 CURVE SMOOTH",
"131 369 OFFCURVE",
"217 462 OFFCURVE",
"320 462 CURVE SMOOTH",
"422 462 OFFCURVE",
"508 369 OFFCURVE",
"508 259 CURVE SMOOTH",
"508 148 OFFCURVE",
"422 55 OFFCURVE",
"320 55 CURVE SMOOTH"
);
}
);
width = 639;
},
{
anchors = (
{
name = top;
position = "{312, 517}";
}
);
layerId = "A0D976AB-773B-4D3A-9F7E-7A0C42AF1E7B";
paths = (
{
closed = 1;
nodes = (
"470 -12 OFFCURVE",
"603 112 OFFCURVE",
"603 259 CURVE SMOOTH",
"603 406 OFFCURVE",
"470 529 OFFCURVE",
"312 529 CURVE SMOOTH",
"153 529 OFFCURVE",
"20 406 OFFCURVE",
"20 259 CURVE SMOOTH",
"20 112 OFFCURVE",
"153 -12 OFFCURVE",
"312 -12 CURVE SMOOTH"
);
},
{
closed = 1;
nodes = (
"251 148 OFFCURVE",
"200 199 OFFCURVE",
"200 259 CURVE SMOOTH",
"200 319 OFFCURVE",
"251 369 OFFCURVE",
"312 369 CURVE SMOOTH",
"372 369 OFFCURVE",
"423 319 OFFCURVE",
"423 259 CURVE SMOOTH",
"423 199 OFFCURVE",
"372 148 OFFCURVE",
"312 148 CURVE SMOOTH"
);
}
);
width = 623;
},
{
anchors = (
{
name = top;
position = "{328, 517}";
}
);
layerId = "3B040282-CF47-4846-BCAF-7BFF90FB63BC";
paths = (
{
closed = 1;
nodes = (
"473 -12 OFFCURVE",
"595 112 OFFCURVE",
"595 259 CURVE SMOOTH",
"595 406 OFFCURVE",
"473 529 OFFCURVE",
"328 529 CURVE SMOOTH",
"183 529 OFFCURVE",
"60 406 OFFCURVE",
"60 259 CURVE SMOOTH",
"60 112 OFFCURVE",
"183 -12 OFFCURVE",
"328 -12 CURVE SMOOTH"
);
},
{
closed = 1;
nodes = (
"202 24 OFFCURVE",
"96 131 OFFCURVE",
"96 259 CURVE SMOOTH",
"96 386 OFFCURVE",
"202 493 OFFCURVE",
"328 493 CURVE SMOOTH",
"453 493 OFFCURVE",
"559 386 OFFCURVE",
"559 259 CURVE SMOOTH",
"559 131 OFFCURVE",
"453 24 OFFCURVE",
"328 24 CURVE SMOOTH"
);
}
);
width = 655;
},
{
anchors = (
{
name = top;
position = "{370, 517}";
}
);
layerId = "119329DF-C854-46E0-93EC-7E8A22DFCA4F";
paths = (
{
closed = 1;
nodes = (
"441 -12 OFFCURVE",
"592 135 OFFCURVE",
"592 309 CURVE SMOOTH",
"592 428 OFFCURVE",
"492 529 OFFCURVE",
"374 529 CURVE SMOOTH",
"197 529 OFFCURVE",
"48 382 OFFCURVE",
"48 208 CURVE SMOOTH",
"48 89 OFFCURVE",
"146 -12 OFFCURVE",
"262 -12 CURVE SMOOTH"
);
},
{
closed = 1;
nodes = (
"195 55 OFFCURVE",
"126 127 OFFCURVE",
"126 213 CURVE SMOOTH",
"126 348 OFFCURVE",
"233 462 OFFCURVE",
"360 462 CURVE SMOOTH",
"444 462 OFFCURVE",
"514 389 OFFCURVE",
"514 303 CURVE SMOOTH",
"514 168 OFFCURVE",
"405 55 OFFCURVE",
"276 55 CURVE SMOOTH"
);
}
);
width = 639;
},
{
anchors = (
{
name = top;
position = "{388, 517}";
}
);
layerId = "84328D8E-4D54-44EF-AF5C-0364B1C28646";
paths = (
{
closed = 1;
nodes = (
"458 -12 OFFCURVE",
"607 136 OFFCURVE",
"607 311 CURVE SMOOTH",
"607 429 OFFCURVE",
"507 529 OFFCURVE",
"388 529 CURVE SMOOTH",
"210 529 OFFCURVE",
"61 382 OFFCURVE",
"61 207 CURVE SMOOTH",
"61 88 OFFCURVE",
"162 -12 OFFCURVE",
"281 -12 CURVE SMOOTH"
);
},
{
closed = 1;
nodes = (
"182 24 OFFCURVE",
"97 109 OFFCURVE",
"97 209 CURVE SMOOTH",
"97 363 OFFCURVE",
"229 493 OFFCURVE",
"386 493 CURVE SMOOTH",
"486 493 OFFCURVE",
"571 408 OFFCURVE",
"571 308 CURVE SMOOTH",
"571 154 OFFCURVE",
"439 24 OFFCURVE",
"283 24 CURVE SMOOTH"
);
}
);
width = 668;
},
{
anchors = (
{
name = top;
position = "{360, 517}";
}
);
layerId = "88AF04C7-891B-4BE3-8AB1-6195D630646B";
paths = (
{
closed = 1;
nodes = (
"437 -12 OFFCURVE",
"608 127 OFFCURVE",
"608 296 CURVE SMOOTH",
"608 426 OFFCURVE",
"504 529 OFFCURVE",
"359 529 CURVE SMOOTH",
"193 529 OFFCURVE",
"21 392 OFFCURVE",
"21 222 CURVE SMOOTH",
"21 91 OFFCURVE",
"125 -12 OFFCURVE",
"271 -12 CURVE SMOOTH"
);
},
{
closed = 1;
nodes = (
"232 148 OFFCURVE",
"198 181 OFFCURVE",
"198 225 CURVE SMOOTH",
"198 294 OFFCURVE",
"274 369 OFFCURVE",
"351 369 CURVE SMOOTH",
"398 369 OFFCURVE",
"431 337 OFFCURVE",
"431 293 CURVE SMOOTH",
"431 225 OFFCURVE",
"355 148 OFFCURVE",
"280 148 CURVE SMOOTH"
);
}
);
width = 629;
},
{
associatedMasterId = "35616FF6-3D9C-499B-B113-AC9E0DB5842A";
layerId = "5DD8FEEC-5A7B-4327-A9E8-A996CE2A3057";
name = bubble;
paths = (
{
closed = 1;
nodes = (
"0 111 LINE",
"56 -5 OFFCURVE",
"174 -86 OFFCURVE",
"308 -86 CURVE SMOOTH",
"442 -86 OFFCURVE",
"559 -5 OFFCURVE",
"615 111 CURVE",
"615 407 LINE",
"559 522 OFFCURVE",
"442 603 OFFCURVE",
"308 603 CURVE SMOOTH",
"174 603 OFFCURVE",
"56 522 OFFCURVE",
"0 407 CURVE"
);
}
);
width = 615;
}
);
leftKerningGroup = o;
rightKerningGroup = o;
unicode = 006F;
},
{
color = 1;
glyphname = oslash;
lastChange = "2017-12-08 19:30:34 +0000";
layers = (
{
components = (
{
name = o;
transform = "{1, 0, 0, 1, 2, 0}";
}
);
layerId = "35616FF6-3D9C-499B-B113-AC9E0DB5842A";
paths = (
{
closed = 1;
nodes = (
"141 0 LINE",
"582 517 LINE",
"497 517 LINE",
"56 0 LINE"
);
}
);
width = 643;
},
{
components = (
{
name = o;
transform = "{1, 0, 0, 1, 1, 0}";
}
);
layerId = "A0D976AB-773B-4D3A-9F7E-7A0C42AF1E7B";
paths = (
{
closed = 1;
nodes = (
"155 0 LINE",
"605 517 LINE",
"485 517 LINE",
"35 0 LINE"
);
}
);
width = 628;
},
{
components = (
{
name = o;
transform = "{1, 0, 0, 1, 1, 0}";
}
);
layerId = "3B040282-CF47-4846-BCAF-7BFF90FB63BC";
paths = (
{
closed = 1;
nodes = (
"122 0 LINE",
"563 517 LINE",
"515 517 LINE",
"74 0 LINE"
);
}
);
width = 656;
},
{
components = (
{
name = o;
transform = "{1, 0, 0, 1, 3, 0}";
}
);
layerId = "119329DF-C854-46E0-93EC-7E8A22DFCA4F";
paths = (
{
closed = 1;
nodes = (
"88 0 LINE",
"637 517 LINE",
"550 517 LINE",
"1 0 LINE"
);
}
);
width = 644;
},
{
components = (
{
name = o;
transform = "{1, 0, 0, 1, 2, 0}";
}
);
layerId = "84328D8E-4D54-44EF-AF5C-0364B1C28646";
paths = (
{
closed = 1;
nodes = (
"68 0 LINE",
"617 517 LINE",
"567 517 LINE",
"19 0 LINE"
);
}
);
width = 670;
},
{
components = (
{
name = o;
transform = "{1, 0, 0, 1, 3, 0}";
}
);
layerId = "88AF04C7-891B-4BE3-8AB1-6195D630646B";
paths = (
{
closed = 1;
nodes = (
"105 0 LINE",
"662 517 LINE",
"538 517 LINE",
"-20 0 LINE"
);
}
);
width = 635;
}
);
leftKerningGroup = o;
rightKerningGroup = o;
unicode = 00F8;
},
{
color = 1;
glyphname = s;
lastChange = "2017-12-08 19:30:33 +0000";
layers = (
{
anchors = (
{
name = bottom;
position = "{246, 0}";
},
{
name = top;
position = "{249, 517}";
}
);
layerId = "35616FF6-3D9C-499B-B113-AC9E0DB5842A";
paths = (
{
closed = 1;
nodes = (
"364 -12 OFFCURVE",
"446 49 OFFCURVE",
"446 144 CURVE SMOOTH",
"446 242 OFFCURVE",
"360 270 OFFCURVE",
"277 296 CURVE SMOOTH",
"181 327 OFFCURVE",
"143 341 OFFCURVE",
"143 386 CURVE SMOOTH",
"143 436 OFFCURVE",
"191 462 OFFCURVE",
"249 462 CURVE SMOOTH",
"295 462 OFFCURVE",
"346 446 OFFCURVE",
"398 413 CURVE",
"434 471 LINE",
"379 507 OFFCURVE",
"313 529 OFFCURVE",
"249 529 CURVE SMOOTH",
"146 529 OFFCURVE",
"68 471 OFFCURVE",
"68 377 CURVE SMOOTH",
"68 303 OFFCURVE",
"116 266 OFFCURVE",
"241 230 CURVE SMOOTH",
"311 210 OFFCURVE",
"371 192 OFFCURVE",
"371 136 CURVE SMOOTH",
"371 87 OFFCURVE",
"325 55 OFFCURVE",
"257 55 CURVE SMOOTH",
"200 55 OFFCURVE",
"141 77 OFFCURVE",
"82 120 CURVE",
"43 65 LINE",
"105 15 OFFCURVE",
"185 -12 OFFCURVE",
"257 -12 CURVE SMOOTH"
);
}
);
width = 495;
},
{
anchors = (
{
name = bottom;
position = "{254, 0}";
},
{
name = top;
position = "{253, 517}";
}
);
layerId = "A0D976AB-773B-4D3A-9F7E-7A0C42AF1E7B";
paths = (
{
closed = 1;
nodes = (
"400 -12 OFFCURVE",
"485 56 OFFCURVE",
"485 163 CURVE SMOOTH",
"485 285 OFFCURVE",
"377 316 OFFCURVE",
"283 337 CURVE SMOOTH",
"231 349 OFFCURVE",
"208 352 OFFCURVE",
"208 369 CURVE SMOOTH",
"208 384 OFFCURVE",
"226 398 OFFCURVE",
"253 398 CURVE SMOOTH",
"302 398 OFFCURVE",
"361 371 OFFCURVE",
"404 343 CURVE",
"469 461 LINE",
"410 500 OFFCURVE",
"333 529 OFFCURVE",
"253 529 CURVE SMOOTH",
"118 529 OFFCURVE",
"37 451 OFFCURVE",
"37 351 CURVE SMOOTH",
"37 229 OFFCURVE",
"142 206 OFFCURVE",
"236 186 CURVE SMOOTH",
"284 176 OFFCURVE",
"314 166 OFFCURVE",
"314 148 CURVE SMOOTH",
"314 131 OFFCURVE",
"301 122 OFFCURVE",
"265 122 CURVE SMOOTH",
"210 122 OFFCURVE",
"136 148 OFFCURVE",
"86 183 CURVE",
"14 66 LINE",
"77 17 OFFCURVE",
"170 -12 OFFCURVE",
"260 -12 CURVE SMOOTH"
);
}
);
width = 504;
},
{
anchors = (
{
name = bottom;
position = "{250, 0}";
},
{
name = top;
position = "{254, 517}";
}
);
layerId = "3B040282-CF47-4846-BCAF-7BFF90FB63BC";
paths = (
{
closed = 1;
nodes = (
"358 -12 OFFCURVE",
"440 50 OFFCURVE",
"440 124 CURVE SMOOTH",
"440 197 OFFCURVE",
"392 241 OFFCURVE",
"272 279 CURVE SMOOTH",
"162 314 OFFCURVE",
"118 349 OFFCURVE",
"118 401 CURVE SMOOTH",
"118 451 OFFCURVE",
"180 493 OFFCURVE",
"253 493 CURVE SMOOTH",
"306 493 OFFCURVE",
"366 474 OFFCURVE",
"416 443 CURVE",
"438 471 LINE",
"382 507 OFFCURVE",
"314 529 OFFCURVE",
"253 529 CURVE SMOOTH",
"160 529 OFFCURVE",
"82 469 OFFCURVE",
"82 397 CURVE SMOOTH",
"82 328 OFFCURVE",
"131 285 OFFCURVE",
"254 247 CURVE SMOOTH",
"361 214 OFFCURVE",
"404 178 OFFCURVE",
"404 120 CURVE SMOOTH",
"404 68 OFFCURVE",
"339 24 OFFCURVE",
"261 24 CURVE SMOOTH",
"200 24 OFFCURVE",
"129 50 OFFCURVE",
"69 93 CURVE",
"47 65 LINE",
"107 17 OFFCURVE",
"187 -12 OFFCURVE",
"261 -12 CURVE SMOOTH"
);
}
);
width = 497;
},
{
anchors = (
{
name = bottom;
position = "{251, 0}";
},
{
name = top;
position = "{250, 517}";
}
);
associatedMasterId = "35616FF6-3D9C-499B-B113-AC9E0DB5842A";
layerId = "BF550E2D-2659-4996-85C0-6FD9F9A4BC18";
name = "Intermediate {700, 5}";
paths = (
{
closed = 1;
nodes = (
"385 -12 OFFCURVE",
"468 53 OFFCURVE",
"468 155 CURVE SMOOTH",
"468 268 OFFCURVE",
"369 298 OFFCURVE",
"280 321 CURVE SMOOTH",
"210 340 OFFCURVE",
"189 348 OFFCURVE",
"189 376 CURVE SMOOTH",
"189 394 OFFCURVE",
"214 407 OFFCURVE",
"250 407 CURVE SMOOTH",
"294 407 OFFCURVE",
"348 390 OFFCURVE",
"395 361 CURVE",
"454 465 LINE",
"397 503 OFFCURVE",
"324 529 OFFCURVE",
"250 529 CURVE SMOOTH",
"128 529 OFFCURVE",
"47 459 OFFCURVE",
"48 361 CURVE SMOOTH",
"49 259 OFFCURVE",
"131 230 OFFCURVE",
"237 204 CURVE SMOOTH",
"290 190 OFFCURVE",
"328 180 OFFCURVE",
"328 148 CURVE SMOOTH",
"328 125 OFFCURVE",
"300 109 OFFCURVE",
"261 109 CURVE SMOOTH",
"192 109 OFFCURVE",
"134 134 OFFCURVE",
"88 167 CURVE",
"25 66 LINE",
"87 16 OFFCURVE",
"175 -12 OFFCURVE",
"258 -12 CURVE SMOOTH"
);
}
);
width = 502;
},
{
anchors = (
{
name = bottom;
position = "{197, 0}";
},
{
name = top;
position = "{305, 517}";
}
);
layerId = "119329DF-C854-46E0-93EC-7E8A22DFCA4F";
paths = (
{
closed = 1;
nodes = (
"322 -12 OFFCURVE",
"422 70 OFFCURVE",
"422 168 CURVE SMOOTH",
"422 226 OFFCURVE",
"381 262 OFFCURVE",
"277 294 CURVE SMOOTH",
"197 324 OFFCURVE",
"165 345 OFFCURVE",
"165 369 CURVE SMOOTH",
"165 423 OFFCURVE",
"219 462 OFFCURVE",
"295 462 CURVE SMOOTH",
"340 462 OFFCURVE",
"391 445 OFFCURVE",
"431 415 CURVE",
"475 469 LINE",
"424 507 OFFCURVE",
"358 529 OFFCURVE",
"298 529 CURVE SMOOTH",
"176 529 OFFCURVE",
"89 457 OFFCURVE",
"89 354 CURVE SMOOTH",
"89 298 OFFCURVE",
"132 263 OFFCURVE",
"239 232 CURVE SMOOTH",
"315 207 OFFCURVE",
"346 185 OFFCURVE",
"346 155 CURVE SMOOTH",
"346 101 OFFCURVE",
"282 55 OFFCURVE",
"207 55 CURVE SMOOTH",
"154 55 OFFCURVE",
"95 78 OFFCURVE",
"49 118 CURVE",
"2 67 LINE",
"55 17 OFFCURVE",
"130 -12 OFFCURVE",
"204 -12 CURVE SMOOTH"
);
}
);
width = 492;
},
{
anchors = (
{
name = bottom;
position = "{206, 0}";
},
{
name = top;
position = "{314, 517}";
}
);
layerId = "84328D8E-4D54-44EF-AF5C-0364B1C28646";
paths = (
{
closed = 1;
nodes = (
"308 -12 OFFCURVE",
"418 53 OFFCURVE",
"418 149 CURVE SMOOTH",
"418 208 OFFCURVE",
"375 246 OFFCURVE",
"276 278 CURVE SMOOTH",
"186 310 OFFCURVE",
"148 341 OFFCURVE",
"148 382 CURVE SMOOTH",
"148 441 OFFCURVE",
"226 493 OFFCURVE",
"308 493 CURVE SMOOTH",
"359 493 OFFCURVE",
"415 475 OFFCURVE",
"459 444 CURVE",
"485 470 LINE",
"436 506 OFFCURVE",
"372 529 OFFCURVE",
"310 529 CURVE SMOOTH",
"217 529 OFFCURVE",
"112 466 OFFCURVE",
"112 373 CURVE SMOOTH",
"112 318 OFFCURVE",
"156 280 OFFCURVE",
"258 248 CURVE SMOOTH",
"344 218 OFFCURVE",
"381 188 OFFCURVE",
"381 143 CURVE SMOOTH",
"381 70 OFFCURVE",
"291 24 OFFCURVE",
"213 24 CURVE SMOOTH",
"153 24 OFFCURVE",
"87 49 OFFCURVE",
"36 92 CURVE",
"11 66 LINE",
"61 18 OFFCURVE",
"135 -12 OFFCURVE",
"211 -12 CURVE SMOOTH"
);
}
);
width = 504;
},
{
anchors = (
{
name = bottom;
position = "{203, 0}";
},
{
name = top;
position = "{311, 517}";
}
);
layerId = "88AF04C7-891B-4BE3-8AB1-6195D630646B";
paths = (
{
closed = 1;
nodes = (
"357 -12 OFFCURVE",
"467 61 OFFCURVE",
"467 181 CURVE SMOOTH",
"467 288 OFFCURVE",
"378 309 OFFCURVE",
"288 330 CURVE SMOOTH",
"236 342 OFFCURVE",
"229 347 OFFCURVE",
"229 356 CURVE SMOOTH",
"229 375 OFFCURVE",
"260 398 OFFCURVE",
"299 398 CURVE SMOOTH",
"337 398 OFFCURVE",
"392 375 OFFCURVE",
"429 347 CURVE",
"509 457 LINE",
"455 496 OFFCURVE",
"384 529 OFFCURVE",
"299 529 CURVE SMOOTH",
"166 529 OFFCURVE",
"57 449 OFFCURVE",
"57 332 CURVE SMOOTH",
"57 230 OFFCURVE",
"139 211 OFFCURVE",
"235 189 CURVE SMOOTH",
"292 176 OFFCURVE",
"295 169 OFFCURVE",
"295 162 CURVE SMOOTH",
"295 140 OFFCURVE",
"269 122 OFFCURVE",
"225 122 CURVE SMOOTH",
"177 122 OFFCURVE",
"108 144 OFFCURVE",
"66 179 CURVE",
"-21 71 LINE",
"34 22 OFFCURVE",
"121 -12 OFFCURVE",
"217 -12 CURVE SMOOTH"
);
}
);
width = 509;
},
{
anchors = (
{
name = bottom;
position = "{197, 0}";
},
{
name = top;
position = "{305, 517}";
}
);
associatedMasterId = "119329DF-C854-46E0-93EC-7E8A22DFCA4F";
layerId = "B063FA73-133B-41E9-BBC6-28FA21FC0BF3";
name = "Intermediate {700, 5, 5}";
paths = (
{
closed = 1;
nodes = (
"349 -12 OFFCURVE",
"448 67 OFFCURVE",
"448 175 CURVE SMOOTH",
"448 266 OFFCURVE",
"377 288 OFFCURVE",
"281 316 CURVE SMOOTH",
"217 335 OFFCURVE",
"204 346 OFFCURVE",
"204 361 CURVE SMOOTH",
"204 388 OFFCURVE",
"243 407 OFFCURVE",
"291 407 CURVE SMOOTH",
"336 407 OFFCURVE",
"380 391 OFFCURVE",
"418 362 CURVE",
"492 462 LINE",
"438 501 OFFCURVE",
"372 529 OFFCURVE",
"294 529 CURVE SMOOTH",
"162 529 OFFCURVE",
"63 450 OFFCURVE",
"63 343 CURVE SMOOTH",
"63 254 OFFCURVE",
"132 234 OFFCURVE",
"234 206 CURVE SMOOTH",
"300 188 OFFCURVE",
"308 173 OFFCURVE",
"308 159 CURVE SMOOTH",
"308 130 OFFCURVE",
"270 109 OFFCURVE",
"214 109 CURVE SMOOTH",
"165 109 OFFCURVE",
"106 125 OFFCURVE",
"62 162 CURVE",
"-15 69 LINE",
"39 20 OFFCURVE",
"122 -12 OFFCURVE",
"210 -12 CURVE SMOOTH"
);
}
);
visible = 1;
width = 503;
}
);
leftKerningGroup = s;
rightKerningGroup = s;
unicode = 0073;
},
{
color = 1;
glyphname = germandbls;
lastChange = "2017-12-08 19:30:33 +0000";
layers = (
{
layerId = "35616FF6-3D9C-499B-B113-AC9E0DB5842A";
paths = (
{
closed = 1;
nodes = (
"160 0 LINE",
"160 513 LINE SMOOTH",
"160 585 OFFCURVE",
"214 636 OFFCURVE",
"290 636 CURVE SMOOTH",
"366 636 OFFCURVE",
"420 586 OFFCURVE",
"420 516 CURVE SMOOTH",
"420 452 OFFCURVE",
"366 396 OFFCURVE",
"290 396 CURVE SMOOTH",
"235 396 LINE",
"235 325 LINE",
"302 325 LINE SMOOTH",
"387 325 OFFCURVE",
"447 272 OFFCURVE",
"447 198 CURVE SMOOTH",
"447 124 OFFCURVE",
"387 71 OFFCURVE",
"302 71 CURVE SMOOTH",
"235 71 LINE",
"235 0 LINE",
"322 0 LINE SMOOTH",
"441 0 OFFCURVE",
"526 78 OFFCURVE",
"526 188 CURVE SMOOTH",
"526 274 OFFCURVE",
"486 331 OFFCURVE",
"401 365 CURVE",
"467 395 OFFCURVE",
"499 447 OFFCURVE",
"499 526 CURVE SMOOTH",
"499 632 OFFCURVE",
"413 707 OFFCURVE",
"291 707 CURVE SMOOTH",
"169 707 OFFCURVE",
"82 632 OFFCURVE",
"82 526 CURVE SMOOTH",
"82 0 LINE"
);
}
);
width = 577;
},
{
layerId = "A0D976AB-773B-4D3A-9F7E-7A0C42AF1E7B";
paths = (
{
closed = 1;
nodes = (
"244 0 LINE",
"244 463 LINE SMOOTH",
"244 502 OFFCURVE",
"274 524 OFFCURVE",
"314 524 CURVE SMOOTH",
"357 524 OFFCURVE",
"383 502 OFFCURVE",
"383 472 CURVE SMOOTH",
"383 442 OFFCURVE",
"354 420 OFFCURVE",
"314 420 CURVE SMOOTH",
"313 420 LINE",
"313 273 LINE",
"343 273 LINE SMOOTH",
"385 273 OFFCURVE",
"415 250 OFFCURVE",
"415 218 CURVE SMOOTH",
"415 186 OFFCURVE",
"385 163 OFFCURVE",
"343 163 CURVE SMOOTH",
"313 163 LINE",
"313 0 LINE",
"375 0 LINE SMOOTH",
"515 0 OFFCURVE",
"615 75 OFFCURVE",
"615 185 CURVE SMOOTH",
"615 271 OFFCURVE",
"572 335 OFFCURVE",
"498 360 CURVE",
"552 380 OFFCURVE",
"583 436 OFFCURVE",
"583 514 CURVE SMOOTH",
"583 637 OFFCURVE",
"473 724 OFFCURVE",
"317 724 CURVE SMOOTH",
"161 724 OFFCURVE",
"51 637 OFFCURVE",
"51 514 CURVE SMOOTH",
"51 0 LINE"
);
}
);
width = 635;
},
{
layerId = "3B040282-CF47-4846-BCAF-7BFF90FB63BC";
paths = (
{
closed = 1;
nodes = (
"126 0 LINE",
"126 517 LINE SMOOTH",
"126 601 OFFCURVE",
"195 671 OFFCURVE",
"278 671 CURVE SMOOTH",
"360 671 OFFCURVE",
"429 602 OFFCURVE",
"429 519 CURVE SMOOTH",
"429 437 OFFCURVE",
"367 379 OFFCURVE",
"280 379 CURVE SMOOTH",
"212 379 LINE",
"212 343 LINE",
"286 343 LINE SMOOTH",
"386 343 OFFCURVE",
"456 282 OFFCURVE",
"456 196 CURVE SMOOTH",
"456 109 OFFCURVE",
"380 36 OFFCURVE",
"289 36 CURVE SMOOTH",
"212 36 LINE",
"212 0 LINE",
"309 0 LINE SMOOTH",
"408 0 OFFCURVE",
"492 87 OFFCURVE",
"492 191 CURVE SMOOTH",
"492 264 OFFCURVE",
"445 336 OFFCURVE",
"378 365 CURVE",
"429 389 OFFCURVE",
"465 455 OFFCURVE",
"465 524 CURVE SMOOTH",
"465 623 OFFCURVE",
"380 707 OFFCURVE",
"278 707 CURVE SMOOTH",
"176 707 OFFCURVE",
"90 623 OFFCURVE",
"90 523 CURVE SMOOTH",
"90 0 LINE"
);
}
);
width = 551;
},
{
layerId = "119329DF-C854-46E0-93EC-7E8A22DFCA4F";
paths = (
{
closed = 1;
nodes = (
"104 0 LINE",
"211 510 LINE SMOOTH",
"226 582 OFFCURVE",
"294 636 OFFCURVE",
"372 636 CURVE SMOOTH",
"436 636 OFFCURVE",
"476 600 OFFCURVE",
"476 547 CURVE SMOOTH",
"476 470 OFFCURVE",
"399 396 OFFCURVE",
"314 396 CURVE SMOOTH",
"262 396 LINE",
"247 325 LINE",
"317 325 LINE SMOOTH",
"391 325 OFFCURVE",
"437 287 OFFCURVE",
"437 229 CURVE SMOOTH",
"437 145 OFFCURVE",
"354 71 OFFCURVE",
"258 71 CURVE SMOOTH",
"194 71 LINE",
"179 0 LINE",
"269 0 LINE SMOOTH",
"400 0 OFFCURVE",
"512 95 OFFCURVE",
"512 220 CURVE SMOOTH",
"512 281 OFFCURVE",
"478 330 OFFCURVE",
"421 362 CURVE",
"502 404 OFFCURVE",
"556 472 OFFCURVE",
"556 558 CURVE SMOOTH",
"556 647 OFFCURVE",
"487 707 OFFCURVE",
"377 707 CURVE SMOOTH",
"258 707 OFFCURVE",
"159 635 OFFCURVE",
"137 529 CURVE SMOOTH",
"26 0 LINE"
);
}
);
width = 574;
},
{
layerId = "84328D8E-4D54-44EF-AF5C-0364B1C28646";
paths = (
{
closed = 1;
nodes = (
"76 0 LINE",
"184 516 LINE SMOOTH",
"201 600 OFFCURVE",
"287 671 OFFCURVE",
"371 671 CURVE SMOOTH",
"442 671 OFFCURVE",
"491 619 OFFCURVE",
"491 552 CURVE SMOOTH",
"491 459 OFFCURVE",
"409 379 OFFCURVE",
"308 379 CURVE SMOOTH",
"241 379 LINE",
"234 343 LINE",
"309 343 LINE SMOOTH",
"397 343 OFFCURVE",
"451 296 OFFCURVE",
"451 228 CURVE SMOOTH",
"451 132 OFFCURVE",
"349 36 OFFCURVE",
"245 36 CURVE SMOOTH",
"170 36 LINE",
"162 0 LINE",
"261 0 LINE SMOOTH",
"374 0 OFFCURVE",
"486 113 OFFCURVE",
"486 224 CURVE SMOOTH",
"486 285 OFFCURVE",
"454 340 OFFCURVE",
"404 364 CURVE",
"472 392 OFFCURVE",
"528 482 OFFCURVE",
"528 557 CURVE SMOOTH",
"528 641 OFFCURVE",
"464 707 OFFCURVE",
"373 707 CURVE SMOOTH",
"272 707 OFFCURVE",
"170 624 OFFCURVE",
"150 524 CURVE SMOOTH",
"40 0 LINE"
);
}
);
width = 560;
},
{
layerId = "88AF04C7-891B-4BE3-8AB1-6195D630646B";
paths = (
{
closed = 1;
nodes = (
"193 0 LINE",
"288 455 LINE SMOOTH",
"296 494 OFFCURVE",
"339 524 OFFCURVE",
"385 524 CURVE SMOOTH",
"419 524 OFFCURVE",
"435 512 OFFCURVE",
"435 493 CURVE SMOOTH",
"435 460 OFFCURVE",
"390 420 OFFCURVE",
"345 420 CURVE SMOOTH",
"350 420 LINE",
"319 273 LINE",
"355 273 LINE SMOOTH",
"397 273 OFFCURVE",
"418 258 OFFCURVE",
"413 233 CURVE SMOOTH",
"405 194 OFFCURVE",
"362 163 OFFCURVE",
"320 163 CURVE SMOOTH",
"296 163 LINE",
"262 0 LINE",
"331 0 LINE SMOOTH",
"475 0 OFFCURVE",
"604 76 OFFCURVE",
"604 209 CURVE SMOOTH",
"604 274 OFFCURVE",
"568 328 OFFCURVE",
"511 354 CURVE",
"593 390 OFFCURVE",
"641 459 OFFCURVE",
"641 542 CURVE SMOOTH",
"641 649 OFFCURVE",
"549 724 OFFCURVE",
"405 724 CURVE SMOOTH",
"255 724 OFFCURVE",
"135 645 OFFCURVE",
"109 522 CURVE SMOOTH",
"0 0 LINE"
);
}
);
width = 640;
}
);
leftKerningGroup = B;
rightKerningGroup = B;
unicode = 00DF;
},
{
color = 1;
glyphname = t;
lastChange = "2017-12-08 19:30:34 +0000";
layers = (
{
anchors = (
{
name = bottom;
position = "{248, 0}";
}
);
layerId = "35616FF6-3D9C-499B-B113-AC9E0DB5842A";
paths = (
{
closed = 1;
nodes = (
"281 -12 OFFCURVE",
"315 0 OFFCURVE",
"342 21 CURVE",
"305 76 LINE",
"294 64 OFFCURVE",
"274 55 OFFCURVE",
"251 55 CURVE SMOOTH",
"221 55 OFFCURVE",
"195 82 OFFCURVE",
"195 120 CURVE SMOOTH",
"195 659 LINE",
"120 659 LINE",
"120 120 LINE SMOOTH",
"120 43 OFFCURVE",
"172 -12 OFFCURVE",
"246 -12 CURVE SMOOTH"
);
},
{
closed = 1;
nodes = (
"322 450 LINE",
"322 517 LINE",
"39 517 LINE",
"39 450 LINE"
);
}
);
width = 383;
},
{
anchors = (
{
name = bottom;
position = "{259, 0}";
}
);
layerId = "A0D976AB-773B-4D3A-9F7E-7A0C42AF1E7B";
paths = (
{
closed = 1;
nodes = (
"303 -12 OFFCURVE",
"358 10 OFFCURVE",
"390 41 CURVE",
"357 163 LINE",
"347 154 OFFCURVE",
"328 148 OFFCURVE",
"310 148 CURVE SMOOTH",
"284 148 OFFCURVE",
"266 170 OFFCURVE",
"266 201 CURVE SMOOTH",
"266 659 LINE",
"82 659 LINE",
"82 163 LINE SMOOTH",
"82 60 OFFCURVE",
"154 -12 OFFCURVE",
"257 -12 CURVE SMOOTH"
);
},
{
closed = 1;
nodes = (
"368 365 LINE",
"368 517 LINE",
"17 517 LINE",
"17 365 LINE"
);
}
);
width = 410;
},
{
anchors = (
{
name = bottom;
position = "{242, 0}";
}
);
layerId = "3B040282-CF47-4846-BCAF-7BFF90FB63BC";
paths = (
{
closed = 1;
nodes = (
"275 -12 OFFCURVE",
"310 0 OFFCURVE",
"337 21 CURVE",
"317 50 LINE",
"296 34 OFFCURVE",
"269 24 OFFCURVE",
"243 24 CURVE SMOOTH",
"201 24 OFFCURVE",
"171 64 OFFCURVE",
"171 120 CURVE SMOOTH",
"171 659 LINE",
"135 659 LINE",
"135 120 LINE SMOOTH",
"135 43 OFFCURVE",
"179 -12 OFFCURVE",
"241 -12 CURVE SMOOTH"
);
},
{
closed = 1;
nodes = (
"307 481 LINE",
"307 517 LINE",
"44 517 LINE",
"44 481 LINE"
);
}
);
width = 382;
},
{
anchors = (
{
name = bottom;
position = "{197, 0}";
}
);
layerId = "119329DF-C854-46E0-93EC-7E8A22DFCA4F";
paths = (
{
closed = 1;
nodes = (
"227 -12 OFFCURVE",
"262 -2 OFFCURVE",
"294 19 CURVE",
"264 78 LINE",
"252 66 OFFCURVE",
"228 55 OFFCURVE",
"202 55 CURVE SMOOTH",
"179 55 OFFCURVE",
"163 72 OFFCURVE",
"163 100 CURVE SMOOTH",
"163 110 OFFCURVE",
"158 82 OFFCURVE",
"278 659 CURVE",
"203 659 LINE",
"94 138 OFFCURVE",
"88 121 OFFCURVE",
"88 92 CURVE SMOOTH",
"88 31 OFFCURVE",
"129 -12 OFFCURVE",
"194 -12 CURVE SMOOTH"
);
},
{
closed = 1;
nodes = (
"361 450 LINE",
"375 517 LINE",
"92 517 LINE",
"78 450 LINE"
);
}
);
width = 383;
},
{
anchors = (
{
name = bottom;
position = "{194, 0}";
}
);
layerId = "84328D8E-4D54-44EF-AF5C-0364B1C28646";
paths = (
{
closed = 1;
nodes = (
"224 -12 OFFCURVE",
"261 -1 OFFCURVE",
"293 20 CURVE",
"276 51 LINE",
"253 35 OFFCURVE",
"223 24 OFFCURVE",
"196 24 CURVE SMOOTH",
"163 24 OFFCURVE",
"143 50 OFFCURVE",
"143 89 CURVE SMOOTH",
"143 115 OFFCURVE",
"148 126 OFFCURVE",
"259 659 CURVE",
"223 659 LINE",
"114 135 OFFCURVE",
"107 115 OFFCURVE",
"107 84 CURVE SMOOTH",
"107 27 OFFCURVE",
"139 -12 OFFCURVE",
"192 -12 CURVE SMOOTH"
);
},
{
closed = 1;
nodes = (
"358 481 LINE",
"365 517 LINE",
"102 517 LINE",
"95 481 LINE"
);
}
);
width = 393;
},
{
anchors = (
{
name = bottom;
position = "{235, 0}";
}
);
layerId = "88AF04C7-891B-4BE3-8AB1-6195D630646B";
paths = (
{
closed = 1;
nodes = (
"262 -12 OFFCURVE",
"315 7 OFFCURVE",
"351 36 CURVE",
"336 169 LINE",
"326 160 OFFCURVE",
"301 148 OFFCURVE",
"279 148 CURVE SMOOTH",
"263 148 OFFCURVE",
"254 155 OFFCURVE",
"254 175 CURVE SMOOTH",
"254 193 OFFCURVE",
"261 219 OFFCURVE",
"353 659 CURVE",
"169 659 LINE",
"73 198 OFFCURVE",
"63 167 OFFCURVE",
"63 132 CURVE SMOOTH",
"63 48 OFFCURVE",
"123 -12 OFFCURVE",
"212 -12 CURVE SMOOTH"
);
},
{
closed = 1;
nodes = (
"393 365 LINE",
"425 517 LINE",
"74 517 LINE",
"42 365 LINE"
);
}
);
width = 418;
}
);
leftKerningGroup = t;
rightKerningGroup = t;
unicode = 0074;
},
{
color = 1;
glyphname = v;
lastChange = "2017-12-08 19:30:33 +0000";
layers = (
{
layerId = "35616FF6-3D9C-499B-B113-AC9E0DB5842A";
paths = (
{
closed = 1;
nodes = (
"328 0 LINE",
"545 517 LINE",
"461 517 LINE",
"292 88 LINE",
"120 517 LINE",
"36 517 LINE",
"256 0 LINE"
);
}
);
width = 581;
},
{
layerId = "A0D976AB-773B-4D3A-9F7E-7A0C42AF1E7B";
paths = (
{
closed = 1;
nodes = (
"409 0 LINE",
"632 517 LINE",
"434 517 LINE",
"320 221 LINE",
"203 517 LINE",
"5 517 LINE",
"231 0 LINE"
);
}
);
width = 637;
},
{
layerId = "3B040282-CF47-4846-BCAF-7BFF90FB63BC";
paths = (
{
closed = 1;
nodes = (
"303 0 LINE",
"540 517 LINE",
"501 517 LINE",
"292 61 LINE",
"83 517 LINE",
"44 517 LINE",
"281 0 LINE"
);
}
);
width = 584;
},
{
layerId = "119329DF-C854-46E0-93EC-7E8A22DFCA4F";
paths = (
{
closed = 1;
nodes = (
"274 0 LINE",
"599 517 LINE",
"513 517 LINE",
"254 88 LINE",
"172 517 LINE",
"90 517 LINE",
"202 0 LINE"
);
}
);
width = 581;
},
{
layerId = "84328D8E-4D54-44EF-AF5C-0364B1C28646";
paths = (
{
closed = 1;
nodes = (
"253 0 LINE",
"598 517 LINE",
"557 517 LINE",
"253 61 LINE",
"139 517 LINE",
"102 517 LINE",
"231 0 LINE"
);
}
);
width = 592;
},
{
layerId = "88AF04C7-891B-4BE3-8AB1-6195D630646B";
paths = (
{
closed = 1;
nodes = (
"360 0 LINE",
"690 517 LINE",
"488 517 LINE",
"311 221 LINE",
"257 517 LINE",
"63 517 LINE",
"182 0 LINE"
);
}
);
width = 645;
}
);
leftKerningGroup = v;
rightKerningGroup = v;
unicode = 0076;
},
{
color = 1;
glyphname = w;
lastChange = "2017-12-08 19:30:34 +0000";
layers = (
{
anchors = (
{
name = top;
position = "{421, 517}";
}
);
layerId = "35616FF6-3D9C-499B-B113-AC9E0DB5842A";
paths = (
{
closed = 1;
nodes = (
"282 0 LINE",
"421 413 LINE",
"558 0 LINE",
"629 0 LINE",
"803 517 LINE",
"723 517 LINE",
"594 100 LINE",
"453 517 LINE",
"388 517 LINE",
"247 100 LINE",
"118 517 LINE",
"38 517 LINE",
"211 0 LINE"
);
}
);
width = 841;
},
{
anchors = (
{
name = top;
position = "{424, 517}";
}
);
layerId = "A0D976AB-773B-4D3A-9F7E-7A0C42AF1E7B";
paths = (
{
closed = 1;
nodes = (
"356 0 LINE",
"424 266 LINE",
"494 0 LINE",
"665 0 LINE",
"841 517 LINE",
"656 517 LINE",
"580 259 LINE",
"503 517 LINE",
"345 517 LINE",
"269 259 LINE",
"192 517 LINE",
"7 517 LINE",
"185 0 LINE"
);
}
);
width = 848;
},
{
anchors = (
{
name = top;
position = "{408, 517}";
}
);
layerId = "3B040282-CF47-4846-BCAF-7BFF90FB63BC";
paths = (
{
closed = 1;
nodes = (
"260 0 LINE",
"408 450 LINE",
"556 0 LINE",
"601 0 LINE",
"771 517 LINE",
"734 517 LINE",
"579 48 LINE",
"424 517 LINE",
"393 517 LINE",
"238 48 LINE",
"83 517 LINE",
"46 517 LINE",
"215 0 LINE"
);
}
);
width = 817;
},
{
anchors = (
{
name = top;
position = "{472, 517}";
}
);
layerId = "119329DF-C854-46E0-93EC-7E8A22DFCA4F";
paths = (
{
closed = 1;
nodes = (
"227 0 LINE",
"453 413 LINE",
"503 0 LINE",
"574 0 LINE",
"856 517 LINE",
"774 517 LINE",
"558 100 LINE",
"504 517 LINE",
"439 517 LINE",
"211 100 LINE",
"169 517 LINE",
"91 517 LINE",
"156 0 LINE"
);
}
);
width = 839;
},
{
anchors = (
{
name = top;
position = "{468, 517}";
}
);
layerId = "84328D8E-4D54-44EF-AF5C-0364B1C28646";
paths = (
{
closed = 1;
nodes = (
"212 0 LINE",
"454 450 LINE",
"508 0 LINE",
"553 0 LINE",
"830 517 LINE",
"793 517 LINE",
"540 48 LINE",
"483 517 LINE",
"452 517 LINE",
"199 48 LINE",
"142 517 LINE",
"105 517 LINE",
"167 0 LINE"
);
}
);
width = 827;
},
{
anchors = (
{
name = top;
position = "{478, 517}";
}
);
layerId = "88AF04C7-891B-4BE3-8AB1-6195D630646B";
paths = (
{
closed = 1;
nodes = (
"305 0 LINE",
"430 266 LINE",
"443 0 LINE",
"614 0 LINE",
"898 517 LINE",
"709 517 LINE",
"578 259 LINE",
"557 517 LINE",
"399 517 LINE",
"267 259 LINE",
"245 517 LINE",
"64 517 LINE",
"134 0 LINE"
);
}
);
width = 854;
}
);
leftKerningGroup = w;
rightKerningGroup = w;
unicode = 0077;
},
{
color = 1;
glyphname = x;
lastChange = "2017-12-08 19:30:33 +0000";
layers = (
{
layerId = "35616FF6-3D9C-499B-B113-AC9E0DB5842A";
paths = (
{
closed = 1;
nodes = (
"523 0 LINE",
"132 517 LINE",
"44 517 LINE",
"435 0 LINE"
);
},
{
closed = 1;
nodes = (
"124 0 LINE",
"515 517 LINE",
"427 517 LINE",
"36 0 LINE"
);
}
);
width = 559;
},
{
layerId = "A0D976AB-773B-4D3A-9F7E-7A0C42AF1E7B";
paths = (
{
closed = 1;
nodes = (
"575 0 LINE",
"218 517 LINE",
"14 517 LINE",
"371 0 LINE"
);
},
{
closed = 1;
nodes = (
"204 0 LINE",
"565 517 LINE",
"366 517 LINE",
"5 0 LINE"
);
}
);
width = 580;
},
{
layerId = "3B040282-CF47-4846-BCAF-7BFF90FB63BC";
paths = (
{
closed = 1;
nodes = (
"487 0 LINE",
"96 517 LINE",
"52 517 LINE",
"443 0 LINE"
);
},
{
closed = 1;
nodes = (
"88 0 LINE",
"479 517 LINE",
"435 517 LINE",
"44 0 LINE"
);
}
);
width = 531;
},
{
layerId = "119329DF-C854-46E0-93EC-7E8A22DFCA4F";
paths = (
{
closed = 1;
nodes = (
"468 0 LINE",
"185 517 LINE",
"99 517 LINE",
"383 0 LINE"
);
},
{
closed = 1;
nodes = (
"72 0 LINE",
"570 517 LINE",
"480 517 LINE",
"-19 0 LINE"
);
}
);
width = 557;
},
{
layerId = "84328D8E-4D54-44EF-AF5C-0364B1C28646";
paths = (
{
closed = 1;
nodes = (
"437 0 LINE",
"153 517 LINE",
"111 517 LINE",
"394 0 LINE"
);
},
{
closed = 1;
nodes = (
"39 0 LINE",
"538 517 LINE",
"492 517 LINE",
"-6 0 LINE"
);
}
);
width = 539;
},
{
layerId = "88AF04C7-891B-4BE3-8AB1-6195D630646B";
paths = (
{
closed = 1;
nodes = (
"524 0 LINE",
"275 517 LINE",
"75 517 LINE",
"325 0 LINE"
);
},
{
closed = 1;
nodes = (
"158 0 LINE",
"626 517 LINE",
"423 517 LINE",
"-46 0 LINE"
);
}
);
width = 587;
}
);
leftKerningGroup = x;
rightKerningGroup = x;
unicode = 0078;
},
{
color = 1;
glyphname = y;
lastChange = "2017-12-08 19:30:34 +0000";
layers = (
{
anchors = (
{
name = top;
position = "{300, 517}";
}
);
layerId = "35616FF6-3D9C-499B-B113-AC9E0DB5842A";
paths = (
{
closed = 1;
nodes = (
"230 -179 OFFCURVE",
"280 -146 OFFCURVE",
"316 -58 CURVE SMOOTH",
"552 517 LINE",
"471 517 LINE",
"300 87 LINE",
"119 517 LINE",
"36 517 LINE",
"261 -2 LINE",
"231 -66 LINE",
"211 -101 OFFCURVE",
"189 -112 OFFCURVE",
"156 -112 CURVE SMOOTH",
"134 -112 OFFCURVE",
"113 -108 OFFCURVE",
"95 -99 CURVE",
"77 -163 LINE",
"101 -174 OFFCURVE",
"129 -180 OFFCURVE",
"159 -180 CURVE SMOOTH"
);
}
);
width = 589;
},
{
anchors = (
{
name = top;
position = "{309, 517}";
}
);
layerId = "A0D976AB-773B-4D3A-9F7E-7A0C42AF1E7B";
paths = (
{
closed = 1;
nodes = (
"290 -180 OFFCURVE",
"366 -115 OFFCURVE",
"408 -4 CURVE SMOOTH",
"603 517 LINE",
"409 517 LINE",
"309 198 LINE",
"203 517 LINE",
"6 517 LINE",
"215 -7 LINE",
"205 -27 LINE",
"199 -36 OFFCURVE",
"177 -43 OFFCURVE",
"153 -43 CURVE SMOOTH",
"139 -43 OFFCURVE",
"109 -31 OFFCURVE",
"80 -14 CURVE",
"41 -138 LINE",
"83 -163 OFFCURVE",
"150 -180 OFFCURVE",
"202 -180 CURVE SMOOTH"
);
}
);
width = 609;
},
{
anchors = (
{
name = top;
position = "{293, 517}";
}
);
layerId = "3B040282-CF47-4846-BCAF-7BFF90FB63BC";
paths = (
{
closed = 1;
nodes = (
"214 -179 OFFCURVE",
"263 -145 OFFCURVE",
"291 -76 CURVE SMOOTH",
"534 517 LINE",
"495 517 LINE",
"293 25 LINE",
"83 517 LINE",
"44 517 LINE",
"274 -21 LINE",
"243 -94 LINE",
"225 -125 OFFCURVE",
"187 -144 OFFCURVE",
"141 -144 CURVE SMOOTH",
"118 -144 OFFCURVE",
"92 -137 OFFCURVE",
"69 -126 CURVE",
"59 -163 LINE",
"82 -174 OFFCURVE",
"113 -180 OFFCURVE",
"141 -180 CURVE SMOOTH"
);
}
);
width = 579;
},
{
anchors = (
{
name = top;
position = "{351, 517}";
}
);
layerId = "119329DF-C854-46E0-93EC-7E8A22DFCA4F";
paths = (
{
closed = 1;
nodes = (
"138 -180 OFFCURVE",
"195 -149 OFFCURVE",
"249 -61 CURVE SMOOTH",
"605 517 LINE",
"522 517 LINE",
"261 87 LINE",
"170 517 LINE",
"89 517 LINE",
"205 -2 LINE",
"160 -63 LINE",
"133 -99 OFFCURVE",
"107 -112 OFFCURVE",
"71 -112 CURVE SMOOTH",
"53 -112 OFFCURVE",
"32 -109 OFFCURVE",
"16 -100 CURVE",
"-10 -162 LINE",
"12 -173 OFFCURVE",
"39 -180 OFFCURVE",
"71 -180 CURVE SMOOTH"
);
}
);
width = 587;
},
{
anchors = (
{
name = top;
position = "{352, 517}";
}
);
layerId = "84328D8E-4D54-44EF-AF5C-0364B1C28646";
paths = (
{
closed = 1;
nodes = (
"127 -180 OFFCURVE",
"185 -146 OFFCURVE",
"227 -77 CURVE SMOOTH",
"593 517 LINE",
"554 517 LINE",
"249 25 LINE",
"142 517 LINE",
"103 517 LINE",
"221 -21 LINE",
"174 -93 LINE",
"150 -124 OFFCURVE",
"106 -144 OFFCURVE",
"61 -144 CURVE SMOOTH",
"37 -144 OFFCURVE",
"14 -138 OFFCURVE",
"-7 -127 CURVE",
"-22 -162 LINE",
"-1 -173 OFFCURVE",
"28 -180 OFFCURVE",
"59 -180 CURVE SMOOTH"
);
}
);
width = 588;
},
{
anchors = (
{
name = top;
position = "{362, 517}";
}
);
layerId = "88AF04C7-891B-4BE3-8AB1-6195D630646B";
paths = (
{
closed = 1;
nodes = (
"206 -180 OFFCURVE",
"290 -123 OFFCURVE",
"355 -11 CURVE SMOOTH",
"660 517 LINE",
"462 517 LINE",
"294 198 LINE",
"256 517 LINE",
"63 517 LINE",
"161 -7 LINE",
"144 -20 LINE",
"139 -29 OFFCURVE",
"105 -43 OFFCURVE",
"84 -43 CURVE SMOOTH",
"67 -43 OFFCURVE",
"43 -34 OFFCURVE",
"18 -18 CURVE",
"-36 -134 LINE",
"3 -159 OFFCURVE",
"68 -180 OFFCURVE",
"120 -180 CURVE SMOOTH"
);
}
);
width = 616;
}
);
leftKerningGroup = y;
rightKerningGroup = y;
unicode = 0079;
},
{
color = 1;
glyphname = z;
lastChange = "2017-12-08 19:30:34 +0000";
layers = (
{
anchors = (
{
name = top;
position = "{257, 517}";
}
);
layerId = "35616FF6-3D9C-499B-B113-AC9E0DB5842A";
paths = (
{
closed = 1;
nodes = (
"455 0 LINE",
"455 71 LINE",
"147 71 LINE",
"453 458 LINE",
"453 517 LINE",
"53 517 LINE",
"53 446 LINE",
"352 446 LINE",
"47 59 LINE",
"47 0 LINE"
);
}
);
width = 503;
},
{
anchors = (
{
name = top;
position = "{276, 517}";
}
);
layerId = "A0D976AB-773B-4D3A-9F7E-7A0C42AF1E7B";
paths = (
{
closed = 1;
nodes = (
"511 0 LINE",
"511 160 LINE",
"279 160 LINE",
"508 384 LINE",
"509 517 LINE",
"37 517 LINE",
"37 357 LINE",
"259 357 LINE",
"30 133 LINE",
"30 0 LINE"
);
}
);
width = 544;
},
{
anchors = (
{
name = top;
position = "{254, 517}";
}
);
layerId = "3B040282-CF47-4846-BCAF-7BFF90FB63BC";
paths = (
{
closed = 1;
nodes = (
"457 0 LINE",
"457 36 LINE",
"96 36 LINE",
"455 487 LINE",
"455 517 LINE",
"55 517 LINE",
"55 481 LINE",
"408 481 LINE",
"49 30 LINE",
"49 0 LINE"
);
}
);
width = 507;
},
{
anchors = (
{
name = top;
position = "{311, 517}";
}
);
layerId = "119329DF-C854-46E0-93EC-7E8A22DFCA4F";
paths = (
{
closed = 1;
nodes = (
"401 0 LINE",
"416 71 LINE",
"109 71 LINE",
"496 458 LINE",
"507 517 LINE",
"107 517 LINE",
"92 446 LINE",
"390 446 LINE",
"5 59 LINE",
"-6 0 LINE"
);
}
);
width = 503;
},
{
anchors = (
{
name = top;
position = "{312, 517}";
}
);
layerId = "84328D8E-4D54-44EF-AF5C-0364B1C28646";
paths = (
{
closed = 1;
nodes = (
"407 0 LINE",
"415 36 LINE",
"55 36 LINE",
"507 487 LINE",
"513 517 LINE",
"113 517 LINE",
"106 481 LINE",
"458 481 LINE",
"5 30 LINE",
"0 0 LINE"
);
}
);
width = 515;
},
{
anchors = (
{
name = top;
position = "{335, 517}";
}
);
layerId = "88AF04C7-891B-4BE3-8AB1-6195D630646B";
paths = (
{
closed = 1;
nodes = (
"462 0 LINE",
"496 160 LINE",
"266 160 LINE",
"541 384 LINE",
"568 517 LINE",
"96 517 LINE",
"63 357 LINE",
"283 357 LINE",
"7 133 LINE",
"-18 0 LINE"
);
}
);
width = 552;
}
);
leftKerningGroup = z;
rightKerningGroup = z;
unicode = 007A;
},
{
color = 1;
glyphname = a.alt;
lastChange = "2017-12-08 21:20:17 +0000";
layers = (
{
anchors = (
{
name = bottom;
position = "{555, 0}";
},
{
name = top;
position = "{310, 517}";
}
);
components = (
{
name = lowercase_loop_reverse;
transform = "{1, 0, 0, 1, -40, 0}";
},
{
name = idotless;
transform = "{1, 0, 0, 1, 398, 0}";
}
);
layerId = "35616FF6-3D9C-499B-B113-AC9E0DB5842A";
width = 637;
},
{
anchors = (
{
name = bottom;
position = "{619, 0}";
},
{
name = top;
position = "{330, 517}";
}
);
components = (
{
name = lowercase_loop_reverse;
transform = "{1, 0, 0, 1, -8, 0}";
},
{
name = idotless;
transform = "{1, 0, 0, 1, 375, 0}";
}
);
layerId = "A0D976AB-773B-4D3A-9F7E-7A0C42AF1E7B";
width = 670;
},
{
anchors = (
{
name = bottom;
position = "{533, 0}";
},
{
name = top;
position = "{304, 517}";
}
);
components = (
{
name = lowercase_loop_reverse;
transform = "{1, 0, 0, 1, -35, 0}";
},
{
name = idotless;
transform = "{1, 0, 0, 1, 407, 0}";
}
);
layerId = "3B040282-CF47-4846-BCAF-7BFF90FB63BC";
width = 623;
},
{
anchors = (
{
name = bottom;
position = "{437, 0}";
},
{
name = top;
position = "{334, 517}";
}
);
layerId = "119329DF-C854-46E0-93EC-7E8A22DFCA4F";
paths = (
{
closed = 1;
nodes = (
"437 0 LINE",
"501 311 OFFCURVE",
"508 328 OFFCURVE",
"508 371 CURVE SMOOTH",
"508 465 OFFCURVE",
"452 529 OFFCURVE",
"332 529 CURVE SMOOTH",
"285 529 OFFCURVE",
"221 517 OFFCURVE",
"139 480 CURVE",
"162 417 LINE",
"213 441 OFFCURVE",
"270 465 OFFCURVE",
"325 465 CURVE SMOOTH",
"410 465 OFFCURVE",
"434 418 OFFCURVE",
"434 365 CURVE SMOOTH",
"434 333 OFFCURVE",
"431 331 OFFCURVE",
"362 0 CURVE"
);
},
{
closed = 1;
nodes = (
"263 -12 OFFCURVE",
"366 32 OFFCURVE",
"405 120 CURVE",
"395 165 LINE",
"361 92 OFFCURVE",
"270 54 OFFCURVE",
"199 54 CURVE SMOOTH",
"137 54 OFFCURVE",
"94 81 OFFCURVE",
"94 130 CURVE SMOOTH",
"94 205 OFFCURVE",
"179 262 OFFCURVE",
"266 262 CURVE SMOOTH",
"334 262 OFFCURVE",
"395 251 OFFCURVE",
"446 231 CURVE",
"452 283 LINE",
"396 307 OFFCURVE",
"327 325 OFFCURVE",
"257 325 CURVE SMOOTH",
"136 325 OFFCURVE",
"21 243 OFFCURVE",
"21 121 CURVE SMOOTH",
"21 39 OFFCURVE",
"86 -12 OFFCURVE",
"183 -12 CURVE SMOOTH"
);
}
);
width = 562;
},
{
anchors = (
{
name = bottom;
position = "{432, 0}";
},
{
name = top;
position = "{338, 517}";
}
);
layerId = "84328D8E-4D54-44EF-AF5C-0364B1C28646";
paths = (
{
closed = 1;
nodes = (
"432 0 LINE",
"497 311 OFFCURVE",
"504 331 OFFCURVE",
"504 370 CURVE SMOOTH",
"504 465 OFFCURVE",
"446 529 OFFCURVE",
"341 529 CURVE SMOOTH",
"288 529 OFFCURVE",
"218 513 OFFCURVE",
"154 480 CURVE",
"165 447 LINE",
"219 476 OFFCURVE",
"280 493 OFFCURVE",
"334 493 CURVE SMOOTH",
"432 493 OFFCURVE",
"467 434 OFFCURVE",
"467 365 CURVE SMOOTH",
"467 329 OFFCURVE",
"463 320 OFFCURVE",
"396 0 CURVE"
);
},
{
closed = 1;
nodes = (
"279 -12 OFFCURVE",
"400 35 OFFCURVE",
"439 122 CURVE",
"430 163 LINE",
"391 70 OFFCURVE",
"278 24 OFFCURVE",
"198 24 CURVE SMOOTH",
"123 24 OFFCURVE",
"70 66 OFFCURVE",
"70 127 CURVE SMOOTH",
"70 221 OFFCURVE",
"169 289 OFFCURVE",
"281 289 CURVE SMOOTH",
"344 289 OFFCURVE",
"412 269 OFFCURVE",
"463 249 CURVE",
"467 283 LINE",
"411 307 OFFCURVE",
"341 325 OFFCURVE",
"278 325 CURVE SMOOTH",
"148 325 OFFCURVE",
"34 241 OFFCURVE",
"34 121 CURVE SMOOTH",
"34 41 OFFCURVE",
"97 -12 OFFCURVE",
"192 -12 CURVE SMOOTH"
);
}
);
width = 571;
},
{
anchors = (
{
name = bottom;
position = "{482, 0}";
},
{
name = top;
position = "{330, 517}";
}
);
layerId = "88AF04C7-891B-4BE3-8AB1-6195D630646B";
paths = (
{
closed = 1;
nodes = (
"482 0 LINE",
"543 292 OFFCURVE",
"550 316 OFFCURVE",
"550 347 CURVE SMOOTH",
"550 459 OFFCURVE",
"461 529 OFFCURVE",
"341 529 CURVE SMOOTH",
"260 529 OFFCURVE",
"179 507 OFFCURVE",
"100 471 CURVE",
"148 343 LINE",
"187 362 OFFCURVE",
"231 376 OFFCURVE",
"282 376 CURVE SMOOTH",
"335 376 OFFCURVE",
"364 362 OFFCURVE",
"364 329 CURVE SMOOTH",
"364 322 OFFCURVE",
"372 362 OFFCURVE",
"297 0 CURVE"
);
},
{
closed = 1;
nodes = (
"248 -12 OFFCURVE",
"331 27 OFFCURVE",
"367 106 CURVE",
"330 171 LINE",
"322 141 OFFCURVE",
"276 112 OFFCURVE",
"222 112 CURVE SMOOTH",
"197 112 OFFCURVE",
"181 121 OFFCURVE",
"181 137 CURVE SMOOTH",
"181 171 OFFCURVE",
"225 208 OFFCURVE",
"271 208 CURVE SMOOTH",
"295 208 OFFCURVE",
"323 205 OFFCURVE",
"344 192 CURVE",
"403 270 LINE",
"356 304 OFFCURVE",
"300 325 OFFCURVE",
"244 325 CURVE SMOOTH",
"118 325 OFFCURVE",
"-3 252 OFFCURVE",
"-3 135 CURVE SMOOTH",
"-3 48 OFFCURVE",
"70 -12 OFFCURVE",
"174 -12 CURVE SMOOTH"
);
}
);
width = 578;
}
);
leftKerningGroup = d;
rightKerningGroup = d;
},
{
color = 1;
export = 0;
glyphname = ae_upper;
lastChange = "2017-12-08 20:31:10 +0000";
layers = (
{
anchors = (
{
name = _ae_upper;
position = "{460, 687}";
}
);
layerId = "3B040282-CF47-4846-BCAF-7BFF90FB63BC";
paths = (
{
closed = 1;
nodes = (
"85 0 LINE",
"481 687 LINE",
"440 687 LINE",
"43 0 LINE"
);
},
{
closed = 1;
nodes = (
"482 175 LINE",
"482 211 LINE",
"173 211 LINE",
"173 175 LINE"
);
}
);
width = 529;
},
{
anchors = (
{
name = _ae_upper;
position = "{479, 687}";
}
);
layerId = "35616FF6-3D9C-499B-B113-AC9E0DB5842A";
paths = (
{
closed = 1;
nodes = (
"125 0 LINE",
"522 687 LINE",
"431 687 LINE",
"35 0 LINE"
);
},
{
closed = 1;
nodes = (
"500 156 LINE",
"500 230 LINE",
"181 230 LINE",
"181 156 LINE"
);
}
);
width = 543;
},
{
anchors = (
{
name = _ae_upper;
position = "{525, 687}";
}
);
layerId = "A0D976AB-773B-4D3A-9F7E-7A0C42AF1E7B";
paths = (
{
closed = 1;
nodes = (
"228 0 LINE",
"625 687 LINE",
"401 687 LINE",
"4 0 LINE"
);
},
{
closed = 1;
nodes = (
"656 92 LINE",
"656 235 LINE",
"237 235 LINE",
"237 92 LINE"
);
}
);
width = 674;
},
{
anchors = (
{
name = _ae_upper;
position = "{553, 687}";
}
);
layerId = "84328D8E-4D54-44EF-AF5C-0364B1C28646";
paths = (
{
closed = 1;
nodes = (
"36 0 LINE",
"575 687 LINE",
"533 687 LINE",
"-7 0 LINE"
);
},
{
closed = 1;
nodes = (
"464 175 LINE",
"471 211 LINE",
"167 211 LINE",
"160 175 LINE"
);
}
);
width = 533;
},
{
anchors = (
{
name = _ae_upper;
position = "{514, 687}";
}
);
layerId = "119329DF-C854-46E0-93EC-7E8A22DFCA4F";
paths = (
{
closed = 1;
nodes = (
"73 0 LINE",
"612 687 LINE",
"520 687 LINE",
"-20 0 LINE"
);
},
{
closed = 1;
nodes = (
"479 156 LINE",
"494 230 LINE",
"175 230 LINE",
"160 156 LINE"
);
}
);
width = 542;
},
{
anchors = (
{
name = _ae_upper;
position = "{548, 687}";
}
);
layerId = "88AF04C7-891B-4BE3-8AB1-6195D630646B";
paths = (
{
closed = 1;
nodes = (
"181 0 LINE",
"721 687 LINE",
"493 687 LINE",
"-47 0 LINE"
);
},
{
closed = 1;
nodes = (
"527 92 LINE",
"556 235 LINE",
"237 235 LINE",
"208 92 LINE"
);
}
);
width = 585;
}
);
},
{
color = 1;
export = 0;
glyphname = k_arms;
lastChange = "2017-12-08 20:42:43 +0000";
layers = (
{
anchors = (
{
name = k_arms;
position = "{49, 125}";
}
);
layerId = "3B040282-CF47-4846-BCAF-7BFF90FB63BC";
paths = (
{
closed = 1;
nodes = (
"421 0 LINE",
"201 280 LINE",
"433 517 LINE",
"383 517 LINE",
"49 177 LINE",
"49 125 LINE",
"176 255 LINE",
"375 0 LINE"
);
}
);
width = 476;
},
{
anchors = (
{
name = k_arms;
position = "{44, 126}";
}
);
layerId = "35616FF6-3D9C-499B-B113-AC9E0DB5842A";
paths = (
{
closed = 1;
nodes = (
"421 0 LINE",
"201 280 LINE",
"434 517 LINE",
"338 517 LINE",
"44 220 LINE",
"44 126 LINE",
"148 229 LINE",
"327 0 LINE"
);
}
);
width = 469;
},
{
anchors = (
{
name = k_arms;
position = "{26, 107}";
}
);
layerId = "A0D976AB-773B-4D3A-9F7E-7A0C42AF1E7B";
paths = (
{
closed = 1;
nodes = (
"389 0 LINE",
"204 294 LINE",
"385 517 LINE",
"169 517 LINE",
"27 323 LINE",
"26 107 LINE",
"78 171 LINE",
"173 0 LINE"
);
}
);
width = 395;
},
{
anchors = (
{
name = k_arms;
position = "{26, 125}";
}
);
layerId = "84328D8E-4D54-44EF-AF5C-0364B1C28646";
paths = (
{
closed = 1;
nodes = (
"370 0 LINE",
"209 280 LINE",
"491 517 LINE",
"439 517 LINE",
"36 177 LINE",
"26 125 LINE",
"180 255 LINE",
"325 0 LINE"
);
}
);
width = 484;
},
{
anchors = (
{
name = k_arms;
position = "{17, 127}";
}
);
layerId = "119329DF-C854-46E0-93EC-7E8A22DFCA4F";
paths = (
{
closed = 1;
nodes = (
"364 0 LINE",
"204 280 LINE",
"487 517 LINE",
"389 517 LINE",
"35 221 LINE",
"17 127 LINE",
"142 229 LINE",
"273 0 LINE"
);
}
);
width = 467;
},
{
anchors = (
{
name = k_arms;
position = "{2, 108}";
}
);
layerId = "88AF04C7-891B-4BE3-8AB1-6195D630646B";
paths = (
{
closed = 1;
nodes = (
"337 0 LINE",
"216 294 LINE",
"445 517 LINE",
"225 517 LINE",
"43 324 LINE",
"2 108 LINE",
"69 171 LINE",
"126 0 LINE"
);
}
);
width = 401;
}
);
},
{
color = 1;
export = 0;
glyphname = thorn_stem;
lastChange = "2017-12-08 19:30:33 +0000";
layers = (
{
anchors = (
{
name = _loop_right;
position = "{126, 259}";
}
);
layerId = "3B040282-CF47-4846-BCAF-7BFF90FB63BC";
paths = (
{
closed = 1;
nodes = (
"126 -172 LINE",
"126 699 LINE",
"90 699 LINE",
"90 -172 LINE"
);
}
);
width = 216;
},
{
anchors = (
{
name = _loop_right;
position = "{157, 259}";
}
);
layerId = "35616FF6-3D9C-499B-B113-AC9E0DB5842A";
paths = (
{
closed = 1;
nodes = (
"157 -172 LINE",
"157 699 LINE",
"82 699 LINE",
"82 -172 LINE"
);
}
);
width = 239;
},
{
anchors = (
{
name = _loop_right;
position = "{244, 259}";
}
);
layerId = "A0D976AB-773B-4D3A-9F7E-7A0C42AF1E7B";
paths = (
{
closed = 1;
nodes = (
"244 -172 LINE",
"244 699 LINE",
"51 699 LINE",
"51 -172 LINE"
);
}
);
width = 295;
},
{
anchors = (
{
name = _loop_right;
position = "{123, 192}";
}
);
layerId = "84328D8E-4D54-44EF-AF5C-0364B1C28646";
paths = (
{
closed = 1;
nodes = (
"40 -172 LINE",
"221 699 LINE",
"185 699 LINE",
"4 -172 LINE"
);
}
);
width = 223;
},
{
anchors = (
{
name = _loop_right;
position = "{149, 199}";
}
);
layerId = "119329DF-C854-46E0-93EC-7E8A22DFCA4F";
paths = (
{
closed = 1;
nodes = (
"66 -172 LINE",
"247 699 LINE",
"172 699 LINE",
"-9 -172 LINE"
);
}
);
width = 236;
},
{
anchors = (
{
name = _loop_right;
position = "{241, 219}";
}
);
layerId = "88AF04C7-891B-4BE3-8AB1-6195D630646B";
paths = (
{
closed = 1;
nodes = (
"157 -172 LINE",
"338 699 LINE",
"145 699 LINE",
"-36 -172 LINE"
);
}
);
width = 300;
}
);
},
{
color = 1;
glyphname = zero;
lastChange = "2017-12-08 19:28:16 +0000";
layers = (
{
layerId = "A0D976AB-773B-4D3A-9F7E-7A0C42AF1E7B";
paths = (
{
closed = 1;
nodes = (
"544 -12 OFFCURVE",
"678 135 OFFCURVE",
"678 344 CURVE SMOOTH",
"678 552 OFFCURVE",
"544 699 OFFCURVE",
"354 699 CURVE SMOOTH",
"164 699 OFFCURVE",
"30 552 OFFCURVE",
"30 344 CURVE SMOOTH",
"30 135 OFFCURVE",
"164 -12 OFFCURVE",
"354 -12 CURVE SMOOTH"
);
},
{
closed = 1;
nodes = (
"281 164 OFFCURVE",
"230 239 OFFCURVE",
"230 344 CURVE SMOOTH",
"230 449 OFFCURVE",
"281 523 OFFCURVE",
"354 523 CURVE SMOOTH",
"427 523 OFFCURVE",
"478 449 OFFCURVE",
"478 344 CURVE SMOOTH",
"478 239 OFFCURVE",
"427 164 OFFCURVE",
"354 164 CURVE SMOOTH"
);
}
);
width = 708;
},
{
layerId = "35616FF6-3D9C-499B-B113-AC9E0DB5842A";
paths = (
{
closed = 1;
nodes = (
"522 -12 OFFCURVE",
"640 135 OFFCURVE",
"640 344 CURVE SMOOTH",
"640 552 OFFCURVE",
"522 699 OFFCURVE",
"355 699 CURVE SMOOTH",
"187 699 OFFCURVE",
"69 552 OFFCURVE",
"69 344 CURVE SMOOTH",
"69 135 OFFCURVE",
"187 -12 OFFCURVE",
"355 -12 CURVE SMOOTH"
);
},
{
closed = 1;
nodes = (
"234 60 OFFCURVE",
"148 178 OFFCURVE",
"148 344 CURVE SMOOTH",
"148 510 OFFCURVE",
"234 627 OFFCURVE",
"355 627 CURVE SMOOTH",
"476 627 OFFCURVE",
"561 510 OFFCURVE",
"561 344 CURVE SMOOTH",
"561 178 OFFCURVE",
"476 60 OFFCURVE",
"355 60 CURVE SMOOTH"
);
}
);
width = 709;
},
{
layerId = "3B040282-CF47-4846-BCAF-7BFF90FB63BC";
paths = (
{
closed = 1;
nodes = (
"498 -12 OFFCURVE",
"607 135 OFFCURVE",
"607 344 CURVE SMOOTH",
"607 552 OFFCURVE",
"498 699 OFFCURVE",
"343 699 CURVE SMOOTH",
"188 699 OFFCURVE",
"79 552 OFFCURVE",
"79 344 CURVE SMOOTH",
"79 135 OFFCURVE",
"188 -12 OFFCURVE",
"343 -12 CURVE SMOOTH"
);
},
{
closed = 1;
nodes = (
"209 24 OFFCURVE",
"115 157 OFFCURVE",
"115 344 CURVE SMOOTH",
"115 531 OFFCURVE",
"209 663 OFFCURVE",
"343 663 CURVE SMOOTH",
"477 663 OFFCURVE",
"571 531 OFFCURVE",
"571 344 CURVE SMOOTH",
"571 157 OFFCURVE",
"477 24 OFFCURVE",
"343 24 CURVE SMOOTH"
);
}
);
width = 686;
},
{
layerId = "119329DF-C854-46E0-93EC-7E8A22DFCA4F";
paths = (
{
closed = 1;
nodes = (
"514 -12 OFFCURVE",
"666 218 OFFCURVE",
"666 440 CURVE SMOOTH",
"666 596 OFFCURVE",
"580 699 OFFCURVE",
"439 699 CURVE SMOOTH",
"228 699 OFFCURVE",
"75 469 OFFCURVE",
"75 248 CURVE SMOOTH",
"75 91 OFFCURVE",
"161 -12 OFFCURVE",
"302 -12 CURVE SMOOTH"
);
},
{
closed = 1;
nodes = (
"210 60 OFFCURVE",
"153 136 OFFCURVE",
"153 251 CURVE SMOOTH",
"153 422 OFFCURVE",
"270 627 OFFCURVE",
"435 627 CURVE SMOOTH",
"531 627 OFFCURVE",
"588 552 OFFCURVE",
"588 438 CURVE SMOOTH",
"588 265 OFFCURVE",
"472 60 OFFCURVE",
"306 60 CURVE SMOOTH"
);
}
);
width = 706;
},
{
layerId = "84328D8E-4D54-44EF-AF5C-0364B1C28646";
paths = (
{
closed = 1;
nodes = (
"497 -12 OFFCURVE",
"641 233 OFFCURVE",
"641 450 CURVE SMOOTH",
"641 600 OFFCURVE",
"564 699 OFFCURVE",
"437 699 CURVE SMOOTH",
"234 699 OFFCURVE",
"91 455 OFFCURVE",
"91 237 CURVE SMOOTH",
"91 86 OFFCURVE",
"167 -12 OFFCURVE",
"295 -12 CURVE SMOOTH"
);
},
{
closed = 1;
nodes = (
"189 24 OFFCURVE",
"126 110 OFFCURVE",
"126 242 CURVE SMOOTH",
"126 433 OFFCURVE",
"253 663 OFFCURVE",
"435 663 CURVE SMOOTH",
"543 663 OFFCURVE",
"606 577 OFFCURVE",
"606 446 CURVE SMOOTH",
"606 255 OFFCURVE",
"479 24 OFFCURVE",
"297 24 CURVE SMOOTH"
);
}
);
width = 696;
},
{
layerId = "88AF04C7-891B-4BE3-8AB1-6195D630646B";
paths = (
{
closed = 1;
nodes = (
"539 -12 OFFCURVE",
"707 194 OFFCURVE",
"707 422 CURVE SMOOTH",
"707 588 OFFCURVE",
"604 699 OFFCURVE",
"437 699 CURVE SMOOTH",
"213 699 OFFCURVE",
"45 494 OFFCURVE",
"45 265 CURVE SMOOTH",
"45 99 OFFCURVE",
"148 -12 OFFCURVE",
"314 -12 CURVE SMOOTH"
);
},
{
closed = 1;
nodes = (
"273 164 OFFCURVE",
"243 206 OFFCURVE",
"243 273 CURVE SMOOTH",
"243 388 OFFCURVE",
"322 523 OFFCURVE",
"426 523 CURVE SMOOTH",
"479 523 OFFCURVE",
"509 481 OFFCURVE",
"509 414 CURVE SMOOTH",
"509 300 OFFCURVE",
"429 164 OFFCURVE",
"326 164 CURVE SMOOTH"
);
}
);
width = 717;
}
);
unicode = 0030;
},
{
color = 1;
glyphname = one;
lastChange = "2017-12-08 19:28:17 +0000";
layers = (
{
layerId = "A0D976AB-773B-4D3A-9F7E-7A0C42AF1E7B";
paths = (
{
closed = 1;
nodes = (
"400 0 LINE",
"400 687 LINE",
"245 687 LINE",
"15 533 LINE",
"91 399 LINE",
"206 469 LINE",
"206 0 LINE"
);
}
);
width = 461;
},
{
layerId = "35616FF6-3D9C-499B-B113-AC9E0DB5842A";
paths = (
{
closed = 1;
nodes = (
"284 0 LINE",
"284 687 LINE",
"221 687 LINE",
"52 572 LINE",
"86 514 LINE",
"206 592 LINE",
"206 0 LINE"
);
}
);
width = 382;
},
{
layerId = "3B040282-CF47-4846-BCAF-7BFF90FB63BC";
paths = (
{
closed = 1;
nodes = (
"272 0 LINE",
"272 687 LINE",
"243 687 LINE",
"61 572 LINE",
"80 542 LINE",
"236 640 LINE",
"236 0 LINE"
);
}
);
width = 380;
},
{
layerId = "119329DF-C854-46E0-93EC-7E8A22DFCA4F";
paths = (
{
closed = 1;
nodes = (
"228 0 LINE",
"371 687 LINE",
"308 687 LINE",
"116 572 LINE",
"139 514 LINE",
"274 592 LINE",
"150 0 LINE"
);
}
);
width = 379;
},
{
layerId = "84328D8E-4D54-44EF-AF5C-0364B1C28646";
paths = (
{
closed = 1;
nodes = (
"222 0 LINE",
"365 687 LINE",
"336 687 LINE",
"131 572 LINE",
"144 542 LINE",
"320 640 LINE",
"186 0 LINE"
);
}
);
width = 389;
},
{
layerId = "88AF04C7-891B-4BE3-8AB1-6195D630646B";
paths = (
{
closed = 1;
nodes = (
"349 0 LINE",
"492 687 LINE",
"336 687 LINE",
"76 533 LINE",
"127 399 LINE",
"254 469 LINE",
"155 0 LINE"
);
}
);
width = 468;
}
);
unicode = 0031;
},
{
color = 1;
glyphname = two;
lastChange = "2017-12-08 19:28:17 +0000";
layers = (
{
layerId = "A0D976AB-773B-4D3A-9F7E-7A0C42AF1E7B";
paths = (
{
closed = 1;
nodes = (
"586 0 LINE",
"586 173 LINE",
"333 173 LINE",
"422 230 LINE SMOOTH",
"544 308 OFFCURVE",
"580 378 OFFCURVE",
"580 468 CURVE SMOOTH",
"580 601 OFFCURVE",
"470 699 OFFCURVE",
"307 699 CURVE SMOOTH",
"193 699 OFFCURVE",
"100 653 OFFCURVE",
"24 563 CURVE",
"144 442 LINE",
"197 495 OFFCURVE",
"243 523 OFFCURVE",
"302 523 CURVE SMOOTH",
"347 523 OFFCURVE",
"380 498 OFFCURVE",
"380 460 CURVE SMOOTH",
"380 424 OFFCURVE",
"363 393 OFFCURVE",
"291 341 CURVE SMOOTH",
"36 157 LINE",
"36 0 LINE"
);
}
);
width = 623;
},
{
layerId = "35616FF6-3D9C-499B-B113-AC9E0DB5842A";
paths = (
{
closed = 1;
nodes = (
"530 0 LINE",
"530 74 LINE",
"181 74 LINE",
"361 230 LINE SMOOTH",
"477 330 OFFCURVE",
"523 404 OFFCURVE",
"523 497 CURVE SMOOTH",
"523 620 OFFCURVE",
"423 699 OFFCURVE",
"304 699 CURVE SMOOTH",
"196 699 OFFCURVE",
"119 648 OFFCURVE",
"62 567 CURVE",
"117 522 LINE",
"164 586 OFFCURVE",
"221 629 OFFCURVE",
"301 629 CURVE SMOOTH",
"374 629 OFFCURVE",
"444 580 OFFCURVE",
"444 496 CURVE SMOOTH",
"444 428 OFFCURVE",
"404 362 OFFCURVE",
"307 279 CURVE SMOOTH",
"56 65 LINE",
"56 0 LINE"
);
}
);
width = 596;
},
{
layerId = "3B040282-CF47-4846-BCAF-7BFF90FB63BC";
paths = (
{
closed = 1;
nodes = (
"528 0 LINE",
"528 36 LINE",
"114 36 LINE",
"354 241 LINE SMOOTH",
"458 330 OFFCURVE",
"510 414 OFFCURVE",
"510 498 CURVE SMOOTH",
"510 603 OFFCURVE",
"428 699 OFFCURVE",
"303 699 CURVE SMOOTH",
"221 699 OFFCURVE",
"132 658 OFFCURVE",
"70 567 CURVE",
"98 545 LINE",
"154 624 OFFCURVE",
"231 665 OFFCURVE",
"305 665 CURVE SMOOTH",
"410 665 OFFCURVE",
"474 581 OFFCURVE",
"474 497 CURVE SMOOTH",
"474 429 OFFCURVE",
"431 354 OFFCURVE",
"331 268 CURVE SMOOTH",
"64 39 LINE",
"64 0 LINE"
);
}
);
width = 596;
},
{
layerId = "119329DF-C854-46E0-93EC-7E8A22DFCA4F";
paths = (
{
closed = 1;
nodes = (
"477 0 LINE",
"493 74 LINE",
"145 74 LINE",
"359 228 LINE SMOOTH",
"478 316 OFFCURVE",
"578 411 OFFCURVE",
"578 535 CURVE SMOOTH",
"578 636 OFFCURVE",
"498 699 OFFCURVE",
"391 699 CURVE SMOOTH",
"286 699 OFFCURVE",
"200 651 OFFCURVE",
"126 570 CURVE",
"175 520 LINE",
"234 584 OFFCURVE",
"302 629 OFFCURVE",
"385 629 CURVE SMOOTH",
"447 629 OFFCURVE",
"499 593 OFFCURVE",
"499 529 CURVE SMOOTH",
"499 438 OFFCURVE",
"408 352 OFFCURVE",
"311 281 CURVE SMOOTH",
"16 65 LINE",
"4 0 LINE"
);
}
);
width = 596;
},
{
layerId = "84328D8E-4D54-44EF-AF5C-0364B1C28646";
paths = (
{
closed = 1;
nodes = (
"479 0 LINE",
"487 36 LINE",
"73 36 LINE",
"357 240 LINE SMOOTH",
"471 323 OFFCURVE",
"569 425 OFFCURVE",
"569 538 CURVE SMOOTH",
"569 626 OFFCURVE",
"506 699 OFFCURVE",
"397 699 CURVE SMOOTH",
"316 699 OFFCURVE",
"220 659 OFFCURVE",
"139 568 CURVE",
"164 544 LINE",
"236 623 OFFCURVE",
"322 665 OFFCURVE",
"398 665 CURVE SMOOTH",
"486 665 OFFCURVE",
"533 604 OFFCURVE",
"533 535 CURVE SMOOTH",
"533 436 OFFCURVE",
"442 346 OFFCURVE",
"337 269 CURVE SMOOTH",
"23 39 LINE",
"15 0 LINE"
);
}
);
width = 606;
},
{
layerId = "88AF04C7-891B-4BE3-8AB1-6195D630646B";
paths = (
{
closed = 1;
nodes = (
"539 0 LINE",
"575 173 LINE",
"324 173 LINE",
"429 226 LINE SMOOTH",
"551 296 OFFCURVE",
"633 374 OFFCURVE",
"633 502 CURVE SMOOTH",
"633 617 OFFCURVE",
"542 699 OFFCURVE",
"393 699 CURVE SMOOTH",
"286 699 OFFCURVE",
"186 659 OFFCURVE",
"92 569 CURVE",
"195 437 LINE",
"257 490 OFFCURVE",
"311 523 OFFCURVE",
"377 523 CURVE SMOOTH",
"411 523 OFFCURVE",
"433 510 OFFCURVE",
"433 485 CURVE SMOOTH",
"433 432 OFFCURVE",
"374 385 OFFCURVE",
"311 345 CURVE SMOOTH",
"20 157 LINE",
"-10 0 LINE"
);
}
);
width = 634;
}
);
unicode = 0032;
},
